<svg id="Capa_1" data-name="Capa 1" xmlns="http://www.w3.org/2000/svg" viewBox="0 0 376.48 119.92"><defs><style>.cls-1{fill:#1e1e1c;}</style></defs><title>icon-javeriana-1</title><path class="cls-1" d="M102.3,193.31c0,.56-.42,1.43-.94,1.43s-1-.87-1-1.43.42-1.43,1-1.43.94.87.94,1.43m5.84,2.07c.37.06.72-.51.76-.91s-.22-1.06-.58-1.11-.72.52-.76.92.21,1.05.58,1.1m-13.72-2c-.37.06-.61.72-.58,1.11s.39,1,.76.92.61-.71.58-1.11-.39-1-.76-.92m173.4,75.13a2.21,2.21,0,0,0-.81-1.83,2.8,2.8,0,0,0-1.68-.45c-.48,0-1.9.1-2.28.1h-.77c-.15,0-.32.08-.32.2s.15.25.3.28c.61.15.68.27.74.6s.07,1,.07,2.23c0,3-.07,4.45-.1,4.77,0,.51-.09.73-.8.91-.13,0-.33.12-.33.26s.17.23.38.23.46,0,.88,0l2.14.05a3.59,3.59,0,0,0,2.09-.66,2.74,2.74,0,0,0,1-2.16,2.6,2.6,0,0,0-1.39-2.47s-.05-.12,0-.13a2.33,2.33,0,0,0,.92-1.92m-1.36.18a1.84,1.84,0,0,1-.56,1.42,2.28,2.28,0,0,1-1.36.36c-.08,0-.13-.12-.13-.19,0-2.51,0-2.95,0-3.18a.48.48,0,0,1,.11-.24,1.53,1.53,0,0,1,.41-.09c.84,0,1.49.68,1.49,1.92m.31,4.47c0,1.24-.67,2.2-1.42,2.2a1.19,1.19,0,0,1-.73-.51,1.51,1.51,0,0,1-.16-.48c0-.45-.06-2.24,0-2.63,0-.58.06-.65.09-.7a.74.74,0,0,1,.39-.1,1.72,1.72,0,0,1,1,.28,2.27,2.27,0,0,1,.86,1.94m5.31-3.45a2.55,2.55,0,0,0-1.87.87,3.38,3.38,0,0,0-.8,2.32,3.62,3.62,0,0,0,.87,2.3,2.23,2.23,0,0,0,3.22.16,3.41,3.41,0,0,0,1-2.54c0-2-1.3-3.11-2.46-3.11m-.23.49a1.06,1.06,0,0,1,.84.6,5.12,5.12,0,0,1,.47,2.25,4.44,4.44,0,0,1-.43,2.05.8.8,0,0,1-.52.37c-.49,0-1-.51-1.27-1.56a6.72,6.72,0,0,1-.14-1.43,3.15,3.15,0,0,1,.48-2,.78.78,0,0,1,.57-.32m5.9-.55a2,2,0,0,0-1.42.54,2.27,2.27,0,0,0-.7,1.68,2.15,2.15,0,0,0,.95,1.88c.05,0,.05.14,0,.15a6.64,6.64,0,0,1-.94.85.33.33,0,0,0-.08.18,1.52,1.52,0,0,0,.45,1.18,1.78,1.78,0,0,0,.48.28c.05,0,0,.08,0,.11l-.75.61a1.05,1.05,0,0,0-.36.88,1.88,1.88,0,0,0,.62,1.35,2.11,2.11,0,0,0,1.47.51,2.77,2.77,0,0,0,1.77-.66,3.08,3.08,0,0,0,1.2-2.39,2.15,2.15,0,0,0-.5-1.37,1.48,1.48,0,0,0-.6-.36c-.33-.06-1.68-.1-2.19-.13a.63.63,0,0,1-.43-.55A.67.67,0,0,1,277,274c0-.05.08-.05.17,0l.46,0a2.12,2.12,0,0,0,1.41-.57,2.46,2.46,0,0,0,.67-1.86,3.69,3.69,0,0,0-.07-.65s0-.12.07-.12c.28,0,.61,0,.68,0a1,1,0,0,0,.25-.57c0-.07-.05-.17-.11-.18a12.92,12.92,0,0,0-1.32-.1l-.31-.11a2.91,2.91,0,0,0-1.11-.22m.27,9.48a1.58,1.58,0,0,1-1.14-.43,1.54,1.54,0,0,1-.41-1.06,1.47,1.47,0,0,1,.35-.95.89.89,0,0,1,.57-.18,6,6,0,0,1,1.21.07.94.94,0,0,1,.65.39,1.39,1.39,0,0,1,.2.73,1.44,1.44,0,0,1-.53,1.18,1.61,1.61,0,0,1-.9.25m-.39-9.07c.23,0,.45.22.63.56a3.57,3.57,0,0,1,.26,1.22,2.87,2.87,0,0,1-.32,1.51.62.62,0,0,1-.36.22c-.56,0-.93-1-.93-1.92a2.4,2.4,0,0,1,.27-1.27.55.55,0,0,1,.45-.32m6.06-.35a2.55,2.55,0,0,0-1.87.87,3.34,3.34,0,0,0-.81,2.32,3.63,3.63,0,0,0,.88,2.3,2.23,2.23,0,0,0,3.22.16,3.41,3.41,0,0,0,1-2.54c0-2-1.3-3.11-2.46-3.11m-.22.49a1.08,1.08,0,0,1,.84.6,5.1,5.1,0,0,1,.46,2.25,4.32,4.32,0,0,1-.43,2.05.76.76,0,0,1-.51.37c-.49,0-1-.51-1.27-1.56a6.13,6.13,0,0,1-.14-1.43,3.15,3.15,0,0,1,.48-2,.77.77,0,0,1,.57-.32m5.48-.29c-.05,0-.11-.09-.11-.13V269a.33.33,0,0,0-.23-.25s-.13.12-.27.33a8.15,8.15,0,0,1-1.22,1.2.14.14,0,0,0-.06.13.29.29,0,0,0,.14.25c.24.12.45.23.45.33,0,.52,0,2.69,0,3.24a1.79,1.79,0,0,0,.21,1.06,1.28,1.28,0,0,0,1.08.64,1.65,1.65,0,0,0,1.33-.7.91.91,0,0,0,.19-.44c0-.16,0-.23-.08-.23a.44.44,0,0,0-.2.1,1.26,1.26,0,0,1-.51.21.86.86,0,0,1-.57-.26,1,1,0,0,1-.19-.7c0-.88,0-2.27,0-3a.13.13,0,0,1,.11-.11h1.11c.08,0,.3,0,.3-.17s0-.66,0-.61c0-.11-.13-.17-.18-.17l-1.24,0m4.4-.2a2.5,2.5,0,0,0-1.17.55c-.72.6-1,1-1,1.43,0,.09.08.21.15.21a5.83,5.83,0,0,0,1-.6.22.22,0,0,0,0-.13c0-.51,0-.66.07-.69a.52.52,0,0,1,.38-.1c.52,0,.77.59.78.95,0,.2,0,1,0,1.15a.34.34,0,0,1-.22.23c-.26.1-1.33.47-1.59.61a.9.9,0,0,0-.41.35,1.64,1.64,0,0,0-.22.76c0,.84.47,1.51.9,1.51a1.47,1.47,0,0,0,.52-.12,6.42,6.42,0,0,0,.92-.62s.1,0,.1.06a.86.86,0,0,0,.88.71,1.39,1.39,0,0,0,1.2-1,.56.56,0,0,0,0-.21s0,0-.07,0a2.4,2.4,0,0,1-.41.17c-.19,0-.43-.17-.43-.59,0-.17.05-2,.05-2.53a2.44,2.44,0,0,0-.26-1.28,1.3,1.3,0,0,0-1.2-.8M293,275c-.22,0-.64-.3-.64-.95,0-.39.07-.46.21-.6a2.46,2.46,0,0,1,1-.39s.08.08.08.15c0,.49,0,1.12-.05,1.33s0,.24-.11.28a.8.8,0,0,1-.44.18m.63-8.73c-.17.45-.64,1.82-.78,2.38-.07.27-.06.46.05.46s.23-.13.31-.24a19.25,19.25,0,0,0,1.18-2.23.88.88,0,0,0,.08-.42c0-.19-.35-.22-.5-.22a.43.43,0,0,0-.34.27M163.72,219a.6.6,0,0,0-.4.16,1.28,1.28,0,0,0-.13.68c0,.38,0,2.63,0,4.68,0,1.63,0,3.08,0,3.52,0,1.15.11,1.34.85,1.61.27.09.37.19.37.35s-.25.22-.45.22c-.37,0-.93-.07-1.55-.07-.41,0-1,.07-1.43.07-.27,0-.44-.08-.44-.27s.17-.23.31-.29c.76-.21.93-.55,1-1.31s.07-2.28.07-3.18c0-.59,0-4.44,0-5s0-.92-.8-1.06c-.27,0-.41-.16-.41-.27s.13-.22.31-.23a3.39,3.39,0,0,1,.46,0c.64,0,1.75-.15,2.42-.15a3.2,3.2,0,0,1,2.67,1.07,3.9,3.9,0,0,1,.82,2.44,3.81,3.81,0,0,1-1,2.78,2.53,2.53,0,0,1-1.63.79,2.33,2.33,0,0,1-.76-.13.39.39,0,0,1-.23-.31.17.17,0,0,1,.18-.16h.31c.71,0,1.73-.86,1.73-2.87,0-1.61-.93-3.05-2.22-3.05m6,4.89a1.35,1.35,0,0,1,.88-.49,1.59,1.59,0,0,1,1.15.71,5.3,5.3,0,0,1,.66,2.75,4.88,4.88,0,0,1-.61,2.39c-.35.45-.65.56-.8.56-.66,0-1.43-.65-1.76-2a6.58,6.58,0,0,1-.16-1.62,4,4,0,0,1,.64-2.34m4,2.65c0-2.28-1.46-3.69-2.85-3.69a2.8,2.8,0,0,0-2.1,1,3.91,3.91,0,0,0-1,2.81,4.43,4.43,0,0,0,1,2.75,2.78,2.78,0,0,0,1.88.93,2.55,2.55,0,0,0,1.8-.72,4.21,4.21,0,0,0,1.22-3.09m1.37-3.15a5.79,5.79,0,0,0,1-.52.77.77,0,0,1,.38-.21s.13.2.13.27c0,.27-.05.72-.05.88s.09.05.09.05a3.22,3.22,0,0,1,1.87-1,1.51,1.51,0,0,1,1.27.68,4.09,4.09,0,0,1,.5,2.2c0,.36,0,3,0,3.27a.7.7,0,0,0,.51.64c.27.09.35.19.35.3s-.19.22-.4.22-.71,0-1.1,0-.81,0-1,0-.35-.06-.35-.22.15-.23.34-.3.4-.33.43-.92,0-2.77,0-3.3a2.25,2.25,0,0,0-.38-1.28,1.52,1.52,0,0,0-.89-.34,1.48,1.48,0,0,0-1.18.52.91.91,0,0,0-.14.43c0,.24,0,4.11,0,4.32s.08.4.52.56a.35.35,0,0,1,.25.28c0,.13-.16.22-.37.22l-.89,0c-.52,0-1,.05-1.19.05s-.37-.09-.37-.25.14-.21.29-.27c.47-.17.53-.36.58-1s.08-2.09.08-3.91a.94.94,0,0,0-.35-.7c-.19-.18-.23-.25-.23-.31a.44.44,0,0,1,.22-.35m10.24-.36a.32.32,0,0,1,.17.16c0-.06.05.47.05.69s-.27.21-.37.21H183.7s-.11.09-.11.13c0,.47,0,2.91,0,3.81a1.32,1.32,0,0,0,.25.88,1,1,0,0,0,.82.34,1.23,1.23,0,0,0,.67-.27c.13-.09.17-.1.23-.1s.07,0,.07.2a.8.8,0,0,1-.2.46,1.89,1.89,0,0,1-1.52.81,1.51,1.51,0,0,1-1.26-.82,2.59,2.59,0,0,1-.18-1.21c0-.66,0-3.36,0-4,0-.13-.25-.25-.54-.34a.31.31,0,0,1-.18-.24.25.25,0,0,1,.08-.19,8.54,8.54,0,0,0,1.2-1.28c.16-.23.26-.39.32-.39s.21.16.21.21V223c0,.05.07.14.12.14.31,0,1.62-.07,1.67-.07m2.91-2.92c0-.34-.22-.93-.63-.93a.78.78,0,0,0-.59.27,1.24,1.24,0,0,0-.18.66,1.15,1.15,0,0,0,.22.69.75.75,0,0,0,.48.23.91.91,0,0,0,.7-.92m-1.67,3.29c-.15.06-.3.2-.3.33a.37.37,0,0,0,.13.22c.4.35.55.52.57.64s0,2.44,0,2.56c0,.68,0,1.8-.06,2.05a.88.88,0,0,1-.56.52c-.24.07-.34.16-.34.27s.16.21.37.21.76-.06,1.23-.06c.3,0,1,0,1.1,0s.35-.07.35-.2-.09-.22-.31-.3-.63-.2-.64-.76,0-1.35,0-2.26.07-3.4.08-3.67c0,0-.07-.21-.14-.21a12.24,12.24,0,0,1-1.46.61m6.57-.3a3.56,3.56,0,0,0,1.77-.24,1.61,1.61,0,0,1,.44-.1c.1,0,.05.48.05,1.53,0,3.26,0,4,0,4.75,0,.38.18.47.58.63s.31.18.31.3-.17.22-.33.22c-.31,0-.76,0-1.11,0s-.91.06-1.22.06c-.15,0-.27-.05-.27-.21s.08-.18.31-.31.49-.34.5-.65c0-1.13.06-4,.06-4.8a.36.36,0,0,0-.17-.27,12.35,12.35,0,0,0-2.28,0,.28.28,0,0,0-.14.23c0,.53,0,3.6,0,4.57,0,.57.09.67.72.92.22.09.3.17.3.28s-.1.22-.31.22-.88-.06-1.33-.06-1,.09-1.19.09-.28-.11-.28-.22.1-.21.28-.27c.48-.18.55-.3.61-.92,0-.39,0-3.26,0-4.57,0-.05-.06-.22-.14-.23a3,3,0,0,0-.5-.07c-.07,0-.13-.13-.11-.2s.19-.33.63-.61a.4.4,0,0,0,.14-.25,8.49,8.49,0,0,1,.39-2.68,5.23,5.23,0,0,1,1.25-2,2.66,2.66,0,0,1,1.82-.84,1.59,1.59,0,0,1,1.48.78.8.8,0,0,1,.13.45,1.16,1.16,0,0,1-.73.91c-.08,0-.3-.22-.55-.55a1.61,1.61,0,0,0-1.18-.68.94.94,0,0,0-.84.51c-.33.48-.63,1.72-.63,4.15a.2.2,0,0,0,.18.18c.21,0,1.16,0,1.26,0m8.47.22a1,1,0,0,1,.21.57,1.25,1.25,0,0,1-.48.74,1.1,1.1,0,0,1-.56-.36c-.45-.42-.71-.72-1.18-.72a1.26,1.26,0,0,0-.82.56,3.91,3.91,0,0,0-.57,2.12,3.68,3.68,0,0,0,.39,1.8,1.89,1.89,0,0,0,1.72,1.15,1.87,1.87,0,0,0,1.26-.54c.14-.13.25-.08.25,0a.93.93,0,0,1-.19.54,2.65,2.65,0,0,1-2,1.13,2.44,2.44,0,0,1-2.1-1.44,5.25,5.25,0,0,1-.45-2.1,4,4,0,0,1,1.38-3.11,3.33,3.33,0,0,1,1.86-.76,2.23,2.23,0,0,1,1.33.4m3.14-3.21c0-.34-.22-.93-.63-.93a.79.79,0,0,0-.59.27,1.25,1.25,0,0,0-.19.66,1.15,1.15,0,0,0,.23.69.75.75,0,0,0,.48.23.9.9,0,0,0,.7-.92m-1.67,3.29c-.16.06-.3.2-.3.33a.37.37,0,0,0,.13.22c.39.35.55.52.56.64s0,2.44,0,2.56c0,.68,0,1.8,0,2.05a.87.87,0,0,1-.57.52c-.23.07-.33.16-.33.27s.15.21.36.21.77-.06,1.24-.06c.29,0,1,0,1.09,0s.35-.07.35-.2-.08-.22-.31-.3-.63-.2-.64-.76,0-1.35,0-2.26.07-3.4.08-3.67c0,0-.07-.21-.14-.21a11.28,11.28,0,0,1-1.45.61m5.94,5.66a1.26,1.26,0,0,1-.71.28,1,1,0,0,1-.85-1.07c0-.45.11-.58.27-.69a3.13,3.13,0,0,1,1.39-.54s.1.09.1.14c0,.42,0,1.07,0,1.45,0,.05-.08.37-.17.43m1-5.33a1.45,1.45,0,0,0-1.31-.88,2.7,2.7,0,0,0-1.32.69c-.7.59-1.09,1.1-1.09,1.6,0,.1.09.24.17.24a5.18,5.18,0,0,0,1-.62.42.42,0,0,0,.08-.18,1.34,1.34,0,0,1,.09-.76.81.81,0,0,1,.55-.18,1.2,1.2,0,0,1,1.07,1.19c0,.21,0,1.3,0,1.46s-.08.19-.38.32-1.46.52-1.68.65a1.29,1.29,0,0,0-.56.43,1.84,1.84,0,0,0-.27.94c0,.91.49,1.68,1,1.68a2,2,0,0,0,.58-.1,6,6,0,0,0,1.23-.81s.09,0,.1.07c.17.67.58.88.92.88a1.53,1.53,0,0,0,1.3-1.13.56.56,0,0,0,0-.2c0-.05,0-.07-.08-.05a2,2,0,0,1-.53.26c-.14,0-.55-.11-.55-.86,0-.2.05-2.43.05-3.13a2.94,2.94,0,0,0-.29-1.51m5.07-5.18c.59,0,1,0,1.5,0s1.1,0,1.41,0,.42.07.42.21-.14.26-.41.33c-.5.13-.76.32-.84,1.05s-.06,2.43-.06,5c0,2.05.35,2.79.8,3.42a2.65,2.65,0,0,0,2,.94,2.62,2.62,0,0,0,2.59-2.49,27.71,27.71,0,0,0,.3-4.59c0-1.17,0-2-.06-2.21,0-.67-.16-.92-.93-1.15-.13,0-.32-.18-.32-.31s.1-.2.35-.2.76,0,1.21,0,.88,0,1.28,0c.23,0,.35.08.35.22s-.12.22-.32.31c-.62.23-.9.54-.91,1.65,0,.82-.1,2.84-.13,3.77-.09,3.13-.76,4.62-1.76,5.35a3.27,3.27,0,0,1-2,.56,3.49,3.49,0,0,1-2.56-1.06c-.78-.95-1.13-2.24-1.13-5.22,0-2.34,0-4,0-4.28s-.23-.63-.76-.77c-.17-.06-.33-.17-.33-.32s.17-.21.4-.21m10,4.84a6.08,6.08,0,0,0,1-.52.81.81,0,0,1,.38-.21c.05,0,.12.2.12.27,0,.27,0,.72,0,.88s.09.05.09.05a3.25,3.25,0,0,1,1.87-1,1.49,1.49,0,0,1,1.27.68,4.09,4.09,0,0,1,.5,2.2c0,.36,0,3,0,3.27a.72.72,0,0,0,.53.64c.26.09.34.19.34.3s-.2.22-.4.22-.7,0-1.1,0-.81,0-1,0-.35-.06-.35-.22.16-.23.34-.3.41-.33.44-.92,0-2.77,0-3.3a2.25,2.25,0,0,0-.38-1.28,1.47,1.47,0,0,0-.88-.34,1.5,1.5,0,0,0-1.19.52.91.91,0,0,0-.14.43c0,.24,0,4.11,0,4.32s.07.4.5.56a.35.35,0,0,1,.25.28c0,.13-.15.22-.37.22l-.89,0c-.52,0-1,.05-1.2.05s-.36-.09-.36-.25.14-.21.29-.27c.47-.17.53-.36.57-1s.09-2.09.09-3.91a1,1,0,0,0-.35-.7c-.19-.18-.24-.25-.24-.31a.56.56,0,0,1,.25-.35m9-3.28c0-.34-.22-.93-.63-.93a.78.78,0,0,0-.59.27,1.25,1.25,0,0,0-.19.66,1.15,1.15,0,0,0,.23.69.75.75,0,0,0,.48.23.91.91,0,0,0,.7-.92m-1.67,3.29c-.15.06-.3.2-.3.33a.37.37,0,0,0,.13.22c.39.35.55.52.56.64s0,2.44,0,2.56c0,.68,0,1.8-.06,2.05a.85.85,0,0,1-.56.52c-.24.07-.33.16-.33.27s.15.21.36.21.77-.06,1.24-.06c.29,0,1,0,1.09,0s.35-.07.35-.2-.08-.22-.3-.3-.64-.2-.65-.76,0-1.35,0-2.26.07-3.4.08-3.67c0,0-.07-.21-.14-.21a11.28,11.28,0,0,1-1.45.61m2.92-.39c.24,0,1.07.09,1.23.09.36,0,.72,0,.89,0s.32.07.32.2-.12.21-.31.29c-.39.14-.36.37-.29.61a31.53,31.53,0,0,0,1.21,3.69c.05.05.09,0,.12-.07.18-.51.91-3,1.05-3.51s0-.58-.44-.77c-.12-.06-.24-.13-.24-.26s.1-.19.28-.19.44,0,.78,0,.68-.09.95-.09.28.09.28.19-.08.18-.31.29a1.68,1.68,0,0,0-.7.74c-.24.48-.73,2.12-1.15,3.38s-.41,1.46-.65,2.39c-.06.27-.22.47-.33.47s-.16-.13-.2-.32c-.14-.57-.2-.82-.52-1.86s-1.07-3.36-1.44-4.17a1,1,0,0,0-.6-.61c-.21-.11-.28-.18-.28-.3s.21-.2.35-.2m7.34,1.71c.24-.83.77-1.39,1.39-1.39s.89.6.89,1.1-.16.49-.48.49h-1.74s-.09-.11-.06-.2m3-1.15a1.86,1.86,0,0,0-1.42-.68,2.34,2.34,0,0,0-1.1.3,4.1,4.1,0,0,0-1.7,3.55c0,2.08,1,3.57,2.53,3.57a2.34,2.34,0,0,0,2.1-1.38,1.49,1.49,0,0,0,.11-.45c0-.07,0-.22-.13-.22s-.12.13-.18.22a1.29,1.29,0,0,1-1.27.65,1.9,1.9,0,0,1-1.58-1,4.29,4.29,0,0,1-.51-2,3,3,0,0,1,.05-.63c0-.07.09-.14.13-.14h3.18c.15,0,.27-.24.27-.34a2.43,2.43,0,0,0-.48-1.53m1.61-.05a9.76,9.76,0,0,0,1.13-.61c.16-.14.25-.2.29-.2s.14.14.14.2c0,.32,0,.64,0,1,0,.07.07.11.09.07a2.63,2.63,0,0,1,1.58-1.11.67.67,0,0,1,.73.62.88.88,0,0,1-.08.27,4.58,4.58,0,0,1-.6.89.34.34,0,0,1-.21-.05,1.28,1.28,0,0,0-.8-.42.61.61,0,0,0-.55.22.62.62,0,0,0-.14.39c0,.37.05,3.58.07,3.85,0,.53.12.87.36.94a6.46,6.46,0,0,1,.63.2c.23.09.27.22.27.28s-.13.18-.35.18c-.37,0-.91-.08-1.73-.08-.39,0-.59.07-.93.07-.16,0-.29-.07-.29-.24s.18-.18.28-.24c.53-.23.57-.41.59-1.49V225a.81.81,0,0,0-.14-.59c-.31-.3-.49-.44-.49-.51s0-.24.18-.29m7.34-.56a2.73,2.73,0,0,1,.45.19.52.52,0,0,1,.13.27c0,.31,0,1,0,1.08s-.07.34-.17.34-.17-.14-.23-.34c-.31-.83-.68-1.19-1.14-1.19s-.81.67-.81,1.06c0,.63.47,1.08,1.36,1.71a2.4,2.4,0,0,1,1.15,2.08,2.33,2.33,0,0,1-.83,1.76,2.14,2.14,0,0,1-1.22.43A2.35,2.35,0,0,1,252,230a5,5,0,0,1-.23-1.39c0-.23.05-.39.12-.39s.22.22.31.42c.41,1,.81,1.29,1.29,1.29a.83.83,0,0,0,.56-.27,1.46,1.46,0,0,0,.33-1,1.44,1.44,0,0,0-.62-1.15,11.09,11.09,0,0,0-.9-.76,2.41,2.41,0,0,1-.88-1.85,2,2,0,0,1,.78-1.67,1.9,1.9,0,0,1,1.17-.38,2.48,2.48,0,0,1,.72.11m3.81-2.85c0-.34-.23-.93-.64-.93a.81.81,0,0,0-.59.27,1.24,1.24,0,0,0-.18.66,1.15,1.15,0,0,0,.22.69.75.75,0,0,0,.48.23.91.91,0,0,0,.71-.92m-1.68,3.29a.43.43,0,0,0-.29.33.4.4,0,0,0,.12.22c.4.35.55.52.57.64s0,2.44,0,2.56c0,.68,0,1.8-.05,2.05a.9.9,0,0,1-.57.52c-.23.07-.33.16-.33.27s.15.21.36.21.78-.06,1.24-.06c.3,0,1,0,1.1,0s.35-.07.35-.2-.08-.22-.31-.3-.64-.2-.65-.76,0-1.35,0-2.26.08-3.4.09-3.67c0,0-.07-.21-.14-.21a13.34,13.34,0,0,1-1.47.61m4.95.67a1.42,1.42,0,0,1,1-.59,1.71,1.71,0,0,1,1.2.71,1.8,1.8,0,0,1,.29.7c.06.8.06,2,.05,3a3.65,3.65,0,0,1-.23,1.12,1.3,1.3,0,0,1-.95.39c-1.18,0-2-1.62-2-3.08a4.36,4.36,0,0,1,.57-2.25m2.43-1.15a4.78,4.78,0,0,0-.87-.06,3.23,3.23,0,0,0-1.85.69,3.9,3.9,0,0,0-1.51,3.31,4.23,4.23,0,0,0,.71,2.48,2.13,2.13,0,0,0,1.74,1,2.51,2.51,0,0,0,1.8-.88.12.12,0,0,1,.08.13c0,.25,0,.55,0,.72s.1.23.16.23a1.73,1.73,0,0,0,.53-.18,8.78,8.78,0,0,1,1.31-.36.82.82,0,0,0,.25-.46s0-.11-.08-.11-.59.12-.75.12-.2-.09-.22-.84c0-.35,0-.35,0-4,0-5.2.06-6.15.12-7.06a.41.41,0,0,0-.09-.29.36.36,0,0,0-.2.06,10.54,10.54,0,0,1-1.52.52.46.46,0,0,0-.24.29s0,.08.15.18c.64.41.64.62.65.73.05.43.09,3.11,0,3.62,0,.08-.06.21-.12.19m5.65,6.14a1.31,1.31,0,0,1-.72.28,1,1,0,0,1-.84-1.07c0-.45.11-.58.26-.69a3.21,3.21,0,0,1,1.4-.54s.09.09.09.14c0,.42,0,1.07,0,1.45,0,.05-.08.37-.17.43m1-5.33a1.41,1.41,0,0,0-1.3-.88,2.7,2.7,0,0,0-1.32.69c-.7.59-1.08,1.1-1.08,1.6,0,.1.08.24.16.24a5.56,5.56,0,0,0,1-.62.4.4,0,0,0,.07-.18c0-.42,0-.7.1-.76a.76.76,0,0,1,.54-.18,1.2,1.2,0,0,1,1.07,1.19c0,.21,0,1.3,0,1.46s-.09.19-.39.32-1.46.52-1.68.65a1.34,1.34,0,0,0-.56.43,1.94,1.94,0,0,0-.26.94c0,.91.49,1.68,1,1.68a2,2,0,0,0,.58-.1,6.26,6.26,0,0,0,1.24-.81s.08,0,.09.07c.17.67.58.88.92.88a1.53,1.53,0,0,0,1.3-1.13.56.56,0,0,0,0-.2c0-.05,0-.07-.08-.05a2,2,0,0,1-.53.26c-.14,0-.55-.11-.55-.86,0-.2.06-2.43.06-3.13a2.91,2.91,0,0,0-.31-1.51m3.63.34a1.4,1.4,0,0,1,1-.59,1.69,1.69,0,0,1,1.19.71,2,2,0,0,1,.3.7c.05.8.05,2,0,3a3.11,3.11,0,0,1-.23,1.12,1.28,1.28,0,0,1-.95.39c-1.18,0-2-1.62-2-3.08a4.35,4.35,0,0,1,.58-2.25m2.43-1.15a4.87,4.87,0,0,0-.87-.06,3.25,3.25,0,0,0-1.86.69,3.93,3.93,0,0,0-1.5,3.31,4.29,4.29,0,0,0,.7,2.48,2.16,2.16,0,0,0,1.74,1,2.51,2.51,0,0,0,1.8-.88s.09,0,.09.13c0,.25,0,.55,0,.72s.1.23.15.23a1.67,1.67,0,0,0,.54-.18,8.17,8.17,0,0,1,1.31-.36.82.82,0,0,0,.25-.46s0-.11-.08-.11-.6.12-.75.12-.19-.09-.22-.84c0-.35-.05-.35-.05-4,0-5.2.07-6.15.13-7.06,0-.14-.07-.29-.1-.29a.33.33,0,0,0-.19.06,11.43,11.43,0,0,1-1.52.52.46.46,0,0,0-.24.29s0,.08.15.18c.63.41.63.62.65.73,0,.43.08,3.11,0,3.62,0,.08-.06.21-.12.19M158.62,260.71a1.62,1.62,0,0,1,.69-.45,1.57,1.57,0,0,1,.73.33,2.91,2.91,0,0,0,1.5.88.65.65,0,0,0,.63-.36,4.58,4.58,0,0,0,.48-2c.09-1.73.07-5.68.07-10s-.07-7.38-.12-8.65a1.6,1.6,0,0,0-1.33-1.55c-.52-.15-.75-.42-.75-.67s.18-.42.73-.42c.73,0,1.68.12,2.7.12,1.31,0,2.16-.09,2.89-.09.36,0,.66.12.66.37s-.14.48-.71.66c-.8.24-1.11.64-1.13,2.13,0,2.48-.12,10.47-.17,13-.09,3.65-1.45,6.59-3,8a5.17,5.17,0,0,1-2.91,1.55c-.74,0-1.71-.52-1.71-1.37a4,4,0,0,1,.74-1.52m18.91-12.35a.25.25,0,0,1-.1.24c-.76,0-2.51,0-3.43.07-.1,0-.19-.15-.17-.3.14-.74,1.28-4.56,1.7-6,.08-.25.22-.31.27-.1.33,1,1.37,4.67,1.73,6.1m-.05-10.29c-.19-.61-.28-.67-.4-.67s-.28.12-.43.4a17.06,17.06,0,0,1-1.23,1.88c-.07.06,0,.15,0,.24a2.64,2.64,0,0,1-.12.55c-1,3-3.55,11.65-4.12,13.11-.69,1.79-.95,2.27-2.16,2.7-.5.19-.59.4-.59.61s.14.37.68.37c.36,0,1.42-.13,2.35-.13s1.47.06,1.9.06.71-.15.71-.39-.21-.46-.69-.61c-.87-.3-1.11-.72-1.11-1.33a18.47,18.47,0,0,1,1-4.4c0-.1.19-.31.26-.31.33,0,1.47-.12,4-.09a.74.74,0,0,1,.57.45,33.89,33.89,0,0,1,1.09,4.43c.05.49,0,1-.95,1.27-.45.13-.62.37-.62.52s.29.46.76.46,1.53-.07,2.32-.07,2.52.13,3.11.13.78-.25.78-.45-.21-.4-.62-.55c-.8-.31-1.32-.61-2.1-3.07-.48-1.52-2.09-7-3.39-11.71-.31-1.12-.74-2.68-1-3.4m6.07-.31c.48,0,1.66.16,2.82.16.81,0,2.28-.06,2.82-.06.31,0,.57.15.57.36s-.17.49-.59.64c-1.07.37-1,.79-.86,1.64.36,1.49,2.89,9.56,3.46,11.05,0,.09.19.09.21,0,.19-.48,2.71-8,3.41-10.38.53-1.8-.11-1.92-1.06-2.37-.26-.12-.52-.33-.52-.52s.26-.45.64-.45c.73,0,1.23.09,2,.09s1.63-.12,2.13-.12.71.18.71.42-.23.49-.64.58c-1.07.33-1.56,1-2.16,2.55s-2,5.16-3.41,9.66c-.78,2.39-1.3,4.09-1.78,5.94-.09.34-.4.8-.64.8s-.47-.52-.52-.74a47.43,47.43,0,0,0-1.23-4.64c-.81-2.76-2.63-8.34-3.53-11.11-.5-1.42-.86-2.09-1.92-2.49-.29-.09-.62-.21-.62-.55s.34-.46.7-.46m26.53.16a14.39,14.39,0,0,0,2.08-.18c.1,0,.26.18.29.39,0,.55,0,2.64,0,3.25,0,.43-.16.85-.37.85s-.41-.46-.46-.76c-.3-1.7-1-2.16-1.51-2.28a16.91,16.91,0,0,0-3.3-.18c-.09,0-.28.12-.31.85s-.12,5-.09,6.64c0,.1.09.31.23.31h1.9c1.69,0,1.64-.12,2.09-1.46.14-.45.31-.79.52-.79s.26.52.24.86c0,.84-.1,1.39-.1,2.09s.05,1.3.1,2.06c0,.55-.12.91-.31.91s-.38-.37-.45-.67c-.31-1.33-.61-1.55-1.54-1.64a21,21,0,0,0-2.37-.09c-.09,0-.31.3-.31.37-.09.84-.07,3.21,0,4.22,0,.72,0,1.85.09,2.48.07.28.28.67.52.73a9.4,9.4,0,0,0,1.92.18,5.74,5.74,0,0,0,2.18-.27,4.21,4.21,0,0,0,1.87-2.24c.34-.79.55-1.07.74-1.07s.21.64.19.88a30.48,30.48,0,0,1-.9,3.52.81.81,0,0,1-.57.4c-.26,0-6.12-.15-7.89-.15-1.59,0-1.85.15-2.7.15-.46,0-.81-.09-.81-.4s.31-.48.71-.6c1.21-.37,1.52-.67,1.61-2.31.07-1.27.2-3.58.2-7.35,0-3.57,0-5,0-5.85-.05-1.1-.24-1.7-1.26-2-.49-.12-.75-.24-.75-.54s.4-.46.73-.46c1.11,0,3.06.09,4.29.09h3.55Zm14.07,1.91a5.63,5.63,0,0,1,1,3.22,4.57,4.57,0,0,1-1.32,3.4,5.1,5.1,0,0,1-2.56.66c-.12,0-.29-.18-.31-.36-.09-.79,0-6.1.07-7.13a1.38,1.38,0,0,1,.29-.64,3,3,0,0,1,.9-.21,2.47,2.47,0,0,1,1.92,1.06m2.29,6.74a5.23,5.23,0,0,0,1.66-3.89,5.53,5.53,0,0,0-1.28-3.61c-1.14-1.22-3-1.33-4.12-1.33-1.28,0-3.25.14-4.13.14h-1.73c-.4,0-.69.22-.69.43s.26.46.6.58c1.11.33,1.33.79,1.37,1.51s.12,3.4.12,6.65c0,2.58,0,5.13-.14,7.47-.07,1-.33,1.33-1.42,1.76-.31.12-.57.3-.57.48s.17.48.76.48c.26,0,1.45-.12,2.28-.12,1.16,0,2.2.18,3,.18.28,0,.74-.12.74-.46s-.17-.42-.57-.57c-1.1-.37-1.26-.66-1.33-2s-.12-5.43-.07-6c0-.16.17-.31.26-.31a1.87,1.87,0,0,1,1.14.4,5.26,5.26,0,0,1,.76,1.27c1,2.19,2.2,4.67,2.87,5.83a3.74,3.74,0,0,0,3.57,2,5.17,5.17,0,0,0,1.59-.24.61.61,0,0,0,.38-.46.57.57,0,0,0-.43-.42,3.3,3.3,0,0,1-2-1.52,52.91,52.91,0,0,1-3.58-7.17c0-.11-.07-.36.05-.42a7.79,7.79,0,0,0,.92-.62m9.09-5.43c-.07-1.46-.07-1.91-1.23-2.28-.57-.18-.71-.39-.71-.61s.33-.42.76-.42c.69,0,1.92.09,2.7.09,1.16,0,2-.09,2.83-.09.4,0,.73.12.73.42s-.33.52-.73.61c-1.19.27-1.26,1.07-1.31,1.86s-.1,1.82-.1,7c0,3.67,0,5,.08,5.88.09,1.79.23,2.16,1.56,2.62.43.12.66.33.66.63s-.45.4-.73.4c-.95,0-2.56-.18-3.56-.15-.68,0-1.39.09-2.27.09-.57,0-.73-.21-.73-.51s.21-.42.71-.58c1.09-.33,1.25-1,1.3-2.28.07-1.15.12-4.28.12-6.86,0-1.56,0-4.71-.08-5.86m16.5,7.22a.27.27,0,0,1-.1.24c-.75,0-2.51,0-3.44.07-.09,0-.19-.15-.16-.3.14-.74,1.28-4.56,1.7-6,.07-.25.22-.31.27-.1.33,1,1.37,4.67,1.73,6.1M252,238.07c-.19-.61-.28-.67-.4-.67s-.29.12-.43.4a18.64,18.64,0,0,1-1.23,1.88c-.07.06,0,.15,0,.24a3.49,3.49,0,0,1-.12.55c-1,3-3.56,11.65-4.13,13.11-.69,1.79-1,2.27-2.15,2.7-.5.19-.6.4-.6.61s.14.37.69.37c.35,0,1.42-.13,2.35-.13s1.46.06,1.89.06.71-.15.71-.39-.21-.46-.69-.61c-.87-.3-1.11-.72-1.11-1.33a18.47,18.47,0,0,1,1-4.4c0-.1.19-.31.26-.31.33,0,1.47-.12,4-.09a.73.73,0,0,1,.57.45,32.29,32.29,0,0,1,1.09,4.43c.05.49,0,1-.94,1.27-.45.13-.62.37-.62.52s.28.46.76.46,1.54-.07,2.32-.07,2.51.13,3.11.13.78-.25.78-.45-.22-.4-.62-.55c-.8-.31-1.33-.61-2.11-3.07-.47-1.52-2.08-7-3.39-11.71-.3-1.12-.72-2.68-.94-3.4m10.08-.28c.52,0,2.39.13,3.6.13.12,0,.45.3.52.39.36.55,1,1.48,2,2.94,1.17,1.82,5.81,8,7.07,9.68.12.15.21-.12.21-.18.12-.88.05-4.31.05-6.86,0-1-.07-2.46-.14-3.25a1.83,1.83,0,0,0-1.47-1.7c-.48-.15-.79-.33-.79-.7,0-.21.26-.36.69-.36.59,0,1.14,0,1.61,0,1.15,0,2.11-.16,2.73-.16.4,0,.57.18.57.4s-.17.45-.59.61c-1.24.52-1.36,1.06-1.47,2.28s-.24,8.77-.24,11.34c0,1.27.14,3.95.14,4.74,0,.27-.26.57-.38.57-.5,0-1.07-.78-1.28-1.15-.45-.76-.9-1.46-1.54-2.45-2.23-3.5-6.1-8.71-8.2-11.9-.12-.18-.26.06-.26.15-.05.82-.1,1.52-.12,3.92,0,4.21-.07,6.52.05,8a2,2,0,0,0,1.49,1.94c.5.18.66.4.66.58s-.33.45-.78.45c-.69,0-1.23-.12-2.06-.12-.52,0-1.85.1-2.25.1s-.62-.15-.62-.4.28-.46.52-.54c1.1-.43,1.66-.67,1.73-2.95.12-3.4.43-9.23.43-11.41a4.3,4.3,0,0,0-.15-1.7,2.51,2.51,0,0,0-1.82-1.45c-.26-.07-.62-.31-.62-.52s.29-.46.72-.46m26.64,10.57a.25.25,0,0,1-.09.24c-.76,0-2.52,0-3.44.07-.1,0-.19-.15-.17-.3.14-.74,1.28-4.56,1.71-6,.07-.25.21-.31.26-.1.33,1,1.37,4.67,1.73,6.1m-.05-10.29c-.19-.61-.28-.67-.4-.67s-.28.12-.43.4a15.72,15.72,0,0,1-1.23,1.88c-.07.06,0,.15,0,.24a2.64,2.64,0,0,1-.12.55c-1,3-3.55,11.65-4.12,13.11-.69,1.79-.95,2.27-2.15,2.7-.5.19-.59.4-.59.61s.14.37.68.37c.36,0,1.43-.13,2.35-.13s1.47.06,1.9.06.71-.15.71-.39-.22-.46-.69-.61c-.88-.3-1.12-.72-1.12-1.33a18.47,18.47,0,0,1,1-4.4c0-.1.19-.31.26-.31.34,0,1.47-.12,4-.09a.74.74,0,0,1,.57.45,33.89,33.89,0,0,1,1.09,4.43c0,.49,0,1-.95,1.27-.45.13-.62.37-.62.52s.29.46.76.46c.62,0,1.55-.07,2.33-.07s2.51.13,3.1.13.78-.25.78-.45-.21-.4-.61-.55c-.81-.31-1.33-.61-2.11-3.07-.48-1.52-2.08-7-3.39-11.71-.32-1.12-.74-2.68-1-3.4M87.28,268.81c.27.08.39.19.39.31s-.24.31-.48.31c-.81,0-2.13-.15-3.18-.15s-2.09.19-3,.19a.56.56,0,0,1-.51-.31c0-.19.21-.27.48-.35,1-.31,1.2-.85,1.23-2.45s0-9.32,0-10.06c0-1.48,0-2.69-.06-3.19a1.46,1.46,0,0,0-1.2-1.36c-.18-.08-.45-.27-.45-.39s.18-.27.51-.27c.57,0,2.07.15,2.79.15.5,0,2.39-.15,3.17-.15.36,0,.51.08.51.23a.6.6,0,0,1-.49.43c-1,.31-1.07.74-1.11,1.94v5.79c0,4.39,0,7.34.09,8,.1.82.49,1.13,1.27,1.36m32.52-9.67a6.31,6.31,0,0,1,2.42,5.12,5.43,5.43,0,0,1-5.63,5.64,10.68,10.68,0,0,1-3.5-.94.58.58,0,0,1-.27-.43c-.09-.54-.12-1.75-.27-2.87-.11-.58.07-.82.15-.82s.21.27.33.7a6.07,6.07,0,0,0,1.38,2.56,3.22,3.22,0,0,0,2.28,1.16c1.49,0,2.51-1.12,2.51-3,0-1.44-1-2.68-2.6-4-2.55-2.1-3.57-3.81-3.57-6.25a5.24,5.24,0,0,1,1.83-4.36,5.58,5.58,0,0,1,3.12-1,9.37,9.37,0,0,1,3,.5.42.42,0,0,1,.24.39,19.48,19.48,0,0,0,.21,2.65c.06.38,0,.58-.15.58s-.21-.2-.3-.51a6.82,6.82,0,0,0-1-2.1,2.73,2.73,0,0,0-1.89-1c-1.08,0-2.18.93-2.18,2.87a3.86,3.86,0,0,0,1.47,3c.92.91,1.88,1.6,2.45,2.11m-10.59,9.67c.27.08.48.15.48.35a.54.54,0,0,1-.51.31c-.9,0-2-.19-3-.19s-2.37.15-3.18.15c-.23,0-.48-.08-.48-.31s.12-.24.39-.31c.78-.24,1.17-.54,1.26-1.36,0-.54.08-2.84.09-6.33,0-.23-.06-.44-.2-.47s-6.79,0-7.06,0a.42.42,0,0,0-.08.19c0,3.61,0,6,.08,6.57.09.81.49,1.12,1.26,1.35.27.08.39.2.39.31s-.24.31-.48.31c-.81,0-2.12-.15-3.17-.15s-2.1.19-3,.19a.52.52,0,0,1-.5-.31c0-.19.21-.27.48-.35,1-.31,1.19-.85,1.22-2.45s0-9.32,0-10.06c0-1.48,0-2.68,0-3.19a1.47,1.47,0,0,0-1.2-1.36c-.18-.08-.45-.27-.45-.39s.18-.27.51-.27c.57,0,2.07.16,2.79.16.5,0,2.39-.16,3.17-.16.36,0,.51.08.51.24a.61.61,0,0,1-.48.42c-1,.32-1.08.75-1.11,1.95v5.05c0,.55,0,.74.15.78s1.26,0,2.64,0v-10.8H97.05v-2.3h2.67v-3h1.77v3h2.66v2.3h-2.66v10.8c1.38,0,2.57,0,2.61,0s.17-.09.18-.31v-5.52c0-1.2-.15-1.63-1.11-1.95a.63.63,0,0,1-.48-.42c0-.16.15-.24.51-.24.77,0,2.66.16,3.17.16.72,0,2.22-.16,2.79-.16.33,0,.51.16.51.27s-.27.31-.45.39a1.46,1.46,0,0,0-1.2,1.36c0,.51-.06,1.71-.06,3.19,0,.74,0,8.43,0,10.06s.23,2.15,1.22,2.46m7.45-31.9a1.23,1.23,0,0,0,.42,1.43.64.64,0,0,0,.31.07,2.5,2.5,0,0,0,1-.28.29.29,0,0,0,.13-.16.39.39,0,0,0,0-.24c-.08-.27-.37-1.16-.73-1.37a.74.74,0,0,0-.34-.1.85.85,0,0,0-.77.65m2,3a1.78,1.78,0,0,0-1.23.48,1.34,1.34,0,0,0,.07,1.53.72.72,0,0,0,.56.27.76.76,0,0,0,.62-.35,3.66,3.66,0,0,0,.24-1.64.36.36,0,0,0-.08-.21.21.21,0,0,0-.17-.08Zm.44-1.59a1,1,0,0,0,.35,1.18.55.55,0,0,0,.28.07h.14l.08,0,0,0s.07,0,.09-.06h0l.09-.1,0,0a.24.24,0,0,0,.06-.08l0,0s0,0,0,0h0l0-.11a1,1,0,0,0-.35-1.18l-.13-.05h-.29l-.08,0,0,0h0a.71.71,0,0,0-.14.1h0l-.06.06,0,0-.06.08s0,0,0,0a.81.81,0,0,0-.06.13m.07-3a3.27,3.27,0,0,0,.55,1.51.22.22,0,0,0,.15.11h0a.19.19,0,0,0,.15-.07,2.77,2.77,0,0,0,.78-1.32,1.07,1.07,0,0,0-.75-1.2H120a1,1,0,0,0-.83,1m1.92,2.76a.46.46,0,0,0,0,.23.35.35,0,0,0,.1.2,2.3,2.3,0,0,0,1.1.57l.11,0a1.11,1.11,0,0,0,.65-1.28.94.94,0,0,0-.82-.86.55.55,0,0,0-.18,0c-.38.1-.81.9-.93,1.14m.33,4.36a1.28,1.28,0,0,0,.3-1.48,2,2,0,0,0-1.13-.8h0a.2.2,0,0,0-.13,0,.36.36,0,0,0-.11.19,3.65,3.65,0,0,0,0,1.66.85.85,0,0,0,.73.54.64.64,0,0,0,.42-.14m-4.65-3.15a2,2,0,0,1-.86-1.18,2.71,2.71,0,0,1,0-1.62,1.7,1.7,0,0,1,1.5-1.27,1.26,1.26,0,0,1,.67.19,1.65,1.65,0,0,1,.27.21,1.89,1.89,0,0,1,0-.41,1.86,1.86,0,0,1,1.63-1.9h.17a2.06,2.06,0,0,1,1.46,2.34,1.78,1.78,0,0,1-.07.39,1.08,1.08,0,0,1,.29-.13,1.33,1.33,0,0,1,.34,0,1.82,1.82,0,0,1,1.61,1.69,2.65,2.65,0,0,1-.23,1.6,1.73,1.73,0,0,1-1,.92,1.2,1.2,0,0,1-.28,0h0a1.5,1.5,0,0,1,.19.32,2.68,2.68,0,0,1,.17,1.61,2.2,2.2,0,0,1-.77,1.3,1.4,1.4,0,0,1-.82.28,1.63,1.63,0,0,1-1.42-1.06,2.4,2.4,0,0,1-.12-.38,2.55,2.55,0,0,1-.17.33,1.51,1.51,0,0,1-1.23.7,1.44,1.44,0,0,1-1.09-.54,2.6,2.6,0,0,1-.12-3,1.18,1.18,0,0,1,.24-.26.72.72,0,0,1-.31-.11m-9.9-7.21a1.05,1.05,0,0,1-.37-1.07.62.62,0,0,1,.87-.31,1.06,1.06,0,0,1,.38,1.07.64.64,0,0,1-.88.31m-27.11,5.69a1.12,1.12,0,0,0,.64,1.29l.12,0a2.26,2.26,0,0,0,1.09-.57.4.4,0,0,0,.07-.44c-.13-.24-.55-1-.93-1.13a.57.57,0,0,0-.18,0,.92.92,0,0,0-.81.86m2.92-3.42a1.05,1.05,0,0,0-.74,1.19,2.8,2.8,0,0,0,.77,1.33.26.26,0,0,0,.16.07h0a.25.25,0,0,0,.16-.11,3.19,3.19,0,0,0,.55-1.51,1,1,0,0,0-.83-1h-.09m1,4a.61.61,0,0,0-.07-.14l0,0L83.5,238s0,0,0,0l-.06-.06h0l-.13-.11h0l0,0-.09,0h-.29a.38.38,0,0,0-.13.06,1,1,0,0,0-.35,1.17,1.17,1.17,0,0,0,0,.11h0s0,0,0,0l0,0,.06.08s0,0,0,0a.41.41,0,0,0,.1.09v0l.09.06,0,0,.09,0H83a.6.6,0,0,0,.28-.08,1,1,0,0,0,.35-1.15m.19,1.88a3.37,3.37,0,0,0,.23,1.64.76.76,0,0,0,.62.36.73.73,0,0,0,.56-.28,1.34,1.34,0,0,0,.06-1.53,1.78,1.78,0,0,0-1.23-.48h0a.21.21,0,0,0-.16.08.35.35,0,0,0-.07.21m.4-2.46a.49.49,0,0,0,0,.24.36.36,0,0,0,.14.16,2.5,2.5,0,0,0,1,.28.51.51,0,0,0,.31-.08,1.21,1.21,0,0,0,.42-1.42.85.85,0,0,0-.77-.65.68.68,0,0,0-.33.09c-.36.22-.65,1.11-.73,1.38M82.48,242a3.53,3.53,0,0,0,0-1.66.31.31,0,0,0-.12-.19.21.21,0,0,0-.12,0h-.06c-.21.08-.93.35-1.12.8a1.29,1.29,0,0,0,.3,1.49.68.68,0,0,0,.42.14.83.83,0,0,0,.73-.55m-2.27-2a1.74,1.74,0,0,1-1-.92,2.65,2.65,0,0,1-.23-1.6,1.82,1.82,0,0,1,1.6-1.69,1.06,1.06,0,0,1,.35,0,1.23,1.23,0,0,1,.29.13,2.57,2.57,0,0,1-.07-.4,2.06,2.06,0,0,1,1.46-2.33h.17a1.86,1.86,0,0,1,1.63,1.9,1.9,1.9,0,0,1,0,.41,1.24,1.24,0,0,1,.27-.21,1.29,1.29,0,0,1,.67-.19,1.69,1.69,0,0,1,1.5,1.27,2.64,2.64,0,0,1,0,1.62,2,2,0,0,1-.86,1.18,1.14,1.14,0,0,1-.3.13,3.08,3.08,0,0,1,.24.26,2.6,2.6,0,0,1-.13,3,1.45,1.45,0,0,1-1.09.55,1.5,1.5,0,0,1-1.22-.7,2.21,2.21,0,0,1-.18-.34,2,2,0,0,1-.12.37,1.63,1.63,0,0,1-1.42,1.07,1.35,1.35,0,0,1-.82-.29,2.09,2.09,0,0,1-.76-1.29,2.71,2.71,0,0,1,.16-1.62,2.07,2.07,0,0,1,.19-.32h0a.92.92,0,0,1-.29,0m15.67-8a.62.62,0,0,1-.87-.32,1.06,1.06,0,0,1,.37-1.07.63.63,0,0,1,.87.31,1.06,1.06,0,0,1-.37,1.08m6.26-28.68c0,.47-.35,1.19-.78,1.19s-.79-.72-.79-1.19.35-1.19.79-1.19.78.72.78,1.19m4.84,1.79c-.3-.08-.48-.65-.43-1s.38-.77.68-.69.47.64.42,1-.37.76-.67.69M95.5,203.53c.31-.08.63.36.68.69s-.12.89-.42,1-.63-.36-.68-.69.12-.9.42-1m6.48,8.29c0,.36-.28.94-.62.94s-.62-.57-.62-.94.28-.94.62-.94.62.57.62.94m3.81,1.41c-.23-.06-.37-.5-.33-.77s.29-.6.54-.55.37.51.33.77-.3.61-.54.55m-9.05-1.32c.23,0,.49.29.53.55s-.09.71-.33.77-.5-.29-.54-.54.1-.71.34-.78m41.61,61.42c2.52,0,5.19-1.15,8-3.41-.64,0-1.49.07-2.48.07a44.43,44.43,0,0,1-6.19-.44,12.58,12.58,0,0,0-1.67-.13,7.08,7.08,0,0,0-1.77.21,7.81,7.81,0,0,1,1.25,2.76,6,6,0,0,1,2.58.91,1.73,1.73,0,0,0,.32,0m2.84,5.62c-1-2.32-2.7-5.06-5.55-5.48a10.41,10.41,0,0,1-.08,3.07,5.06,5.06,0,0,0,1.63.8,19.46,19.46,0,0,1,4,1.61m-6.48-2.29c.19-.77,1.23-5.93-3.68-8.46a1.39,1.39,0,0,0-.6-.14,1.36,1.36,0,0,0-.91.34,28.49,28.49,0,0,1-6.59,4.91,5.41,5.41,0,0,1,3.49,3.54,8.55,8.55,0,0,1,.61,5.64c0,.15-.08.29-.13.43a32.15,32.15,0,0,0,4.31-2.91,17.92,17.92,0,0,0,3.5-3.35m-9.13,6.87c.25-.29,1.38-1.78.62-4.74a25.17,25.17,0,0,1-2.44,1.41,2.74,2.74,0,0,0-.13,2,2.26,2.26,0,0,0,.8,1.3,1.17,1.17,0,0,0,1.15,0m-6.33-5a34,34,0,0,0,5.5-2.86,4.12,4.12,0,0,0-1.06-.94,39.07,39.07,0,0,1-13.29,4.92,8,8,0,0,0-.21,1.5l.39-.07A9.15,9.15,0,0,1,115.9,279a20.63,20.63,0,0,0,3.35-.49m-4.52,4.87c3,0,5.37-1.59,7.2-4.72l0,0a16.15,16.15,0,0,1-5.94,1.37,8.77,8.77,0,0,0-4.46,1.52,6.85,6.85,0,0,0-.92.79,9.67,9.67,0,0,0,4.16,1m5.79,1a9.91,9.91,0,0,0-1.71-1.13,7.79,7.79,0,0,1-4.08,1.13,9.73,9.73,0,0,1-3.18-.56c1.23,1.32,3.59,2.78,8,2.78a25.59,25.59,0,0,0,4.42-.41,9.3,9.3,0,0,1-3.45-1.81m-1.15,7.71a12.12,12.12,0,0,0-1.79-4.54,10.49,10.49,0,0,1-6-2.41,12.86,12.86,0,0,0,4.64,4.28,11,11,0,0,1,3.2,2.67M107,288.68a15.58,15.58,0,0,0,5.34-.83,7,7,0,0,1-2.94-5.37c-.18-3.16.7-4.91,1.73-6h0a34.9,34.9,0,0,1-9.7,1.31h0a34.84,34.84,0,0,1-9.7-1.31h0c1,1.06,1.91,2.82,1.73,6a7,7,0,0,1-2.93,5.37,15.56,15.56,0,0,0,5.33.83c.93,0,2.08-2.12,2.4-2.85a.41.41,0,0,1,.35-.27h.08a.49.49,0,0,1,.32.46c.26,3,0,5.31-.87,6.93h0a6.18,6.18,0,0,1-.37.61,4.45,4.45,0,0,1-1,1,4.45,4.45,0,0,0,1.4-.61,7.17,7.17,0,0,0,2.91-4.44.39.39,0,1,1,.78,0,7.17,7.17,0,0,0,2.91,4.44,4.81,4.81,0,0,0,1.4.61,4.45,4.45,0,0,1-1-1c-1.12-1.62-1.53-4.15-1.24-7.55a.51.51,0,0,1,.31-.46.37.37,0,0,1,.43.26c.33.74,1.48,2.86,2.39,2.86m.12,4.24a4.54,4.54,0,0,1-1.17.29,3.29,3.29,0,0,0,2.53,1.17h.25a1,1,0,0,0-.1-1.09,1.68,1.68,0,0,0-1-.52l-.47.16m-12.85,1.46a3.27,3.27,0,0,0,2.53-1.18,4,4,0,0,1-1.16-.28l-.48-.17a1.61,1.61,0,0,0-1,.53.94.94,0,0,0-.11,1.09h.25m-7.73-4.89a12.9,12.9,0,0,0,4.63-4.28,10.47,10.47,0,0,1-6.08,2.41,12.32,12.32,0,0,0-1.77,4.54,11.31,11.31,0,0,1,3.22-2.67m-3.39-2.81c4.51,0,6.86-1.5,8.07-2.83a9.94,9.94,0,0,1-3.12.53A7.94,7.94,0,0,1,84,283.26a9.52,9.52,0,0,0-1.83,1.19,9.27,9.27,0,0,1-3.44,1.81,25.46,25.46,0,0,0,4.41.42h0m-2.26-7.93c1.86,3,4.28,4.58,7.21,4.58a9.65,9.65,0,0,0,4-.95,8.42,8.42,0,0,0-.92-.79,8.64,8.64,0,0,0-4.46-1.52,16.12,16.12,0,0,1-5.87-1.32M78,275.68a34.48,34.48,0,0,0,5.54,2.88,20.08,20.08,0,0,0,3.27.47,9.06,9.06,0,0,1,5.31,2.05l.44.08a8,8,0,0,0-.2-1.5,38.91,38.91,0,0,1-13.29-4.92,4.15,4.15,0,0,0-1.07.94m-1.67,1.16a5.48,5.48,0,0,1,3.49-3.54,28,28,0,0,1-6.58-4.91,1.42,1.42,0,0,0-.92-.34,1.31,1.31,0,0,0-.59.14c-4.91,2.53-3.88,7.68-3.69,8.47A18.65,18.65,0,0,0,71.53,280a30.79,30.79,0,0,0,4.32,2.91,8.25,8.25,0,0,1,.46-6.07M79,280.21c-.91-.49-1.52-.83-2.44-1.41l-.09.41a5.49,5.49,0,0,0,.42,3.9,2.32,2.32,0,0,0,.3.42,1.18,1.18,0,0,0,1.15,0,2.24,2.24,0,0,0,.79-1.3,2.59,2.59,0,0,0-.13-2M67.28,272.4a7.64,7.64,0,0,1,1.25-2.76,6.76,6.76,0,0,0-1.77-.21,11.07,11.07,0,0,0-1.66.13,44.68,44.68,0,0,1-6.2.44h0c-1,0-1.83,0-2.48-.07,2.77,2.26,5.45,3.4,8,3.4h.31a6,6,0,0,1,2.58-.92m-1.74,5a5,5,0,0,0,1.62-.81,11.5,11.5,0,0,1-.08-3.06c-2.84.42-4.57,3.15-5.53,5.47a18.63,18.63,0,0,1,4-1.6m-4.36-13.12a12.56,12.56,0,0,0,4.11,4.26,12.82,12.82,0,0,1,1.47-.1,6.85,6.85,0,0,1,2.49.41,7.68,7.68,0,0,1,1.4-1.13A4.47,4.47,0,0,0,67,265.4a27.43,27.43,0,0,1-5.8-1.17m-.94-1.47a20.79,20.79,0,0,0,6.81,1.6,5,5,0,0,1,.69.11,16.07,16.07,0,0,1-.67-4.64A16.74,16.74,0,0,1,68.56,253a8.54,8.54,0,0,1-2.28.84v1.05a.65.65,0,0,1-.06.29c-.28,1.9-1.42,3.69-3.56,3.69a3.38,3.38,0,0,1-3.29-3.26h0a1.35,1.35,0,0,1,0-.22V251.6a5.3,5.3,0,0,0-1.69,2.6,7.18,7.18,0,0,0-.24,1.27,10,10,0,0,0,2.31,7.46v0a.35.35,0,0,1,.48-.15M57.3,225.35c-1,5.75-.31,9.33.62,11.44a5.86,5.86,0,0,1,2.14-1.54,11.05,11.05,0,0,0-.6-2.48,61.13,61.13,0,0,1-2.16-7.42m4.43-6.07a27.66,27.66,0,0,0-2.35,10.61c.24.75.51,1.57.82,2.44a13.08,13.08,0,0,1,.66,2.71,3.79,3.79,0,0,1,.58,0,5.19,5.19,0,0,1,1.15.13,13.58,13.58,0,0,0-.12-5.41,42.82,42.82,0,0,1-.74-10.43m-1.56,34.29a3,3,0,0,1,.91-.58,2.41,2.41,0,0,1,1.16-.19v-2.29a4.75,4.75,0,0,0-2.07.55v2.51m1.16.42a1.64,1.64,0,0,0-1.16,1.36v.11a2.5,2.5,0,0,0,2.49,2.32c1.91,0,2.79-1.75,2.82-3.49a3.69,3.69,0,0,0-2.1-3.55,1.7,1.7,0,0,0-.34-.12v2.82a.59.59,0,0,1-.18.43.32.32,0,0,1-.37.06,1.39,1.39,0,0,0-1.16.06m4.15-15.94a5.65,5.65,0,0,0-4-2c-2.18,0-3.7,2.38-4,3v13.69a6.76,6.76,0,0,1,2-2.28v0l.18-.1a4.26,4.26,0,0,1,3.35-.76,2.66,2.66,0,0,1,.77.23,4.56,4.56,0,0,1,1.82,1.6v-13.3m-1.9-5.9a11.74,11.74,0,0,1-.2,3.21,7.21,7.21,0,0,1,1.3.7,11.28,11.28,0,0,0,.28-7.93,30.19,30.19,0,0,1-1.38,4m2.7,20.58a8.49,8.49,0,0,0,5-3.39,12.32,12.32,0,0,0,1.94-6.56,12,12,0,0,1-4.73,4.81,5.8,5.8,0,0,0-2.17,1.93Zm0-4.67a7,7,0,0,1,1.87-1.43,10.46,10.46,0,0,0,1.21-.78,8.48,8.48,0,0,0,.81-2.52,20.43,20.43,0,0,1,2.13-6.76,12,12,0,0,0-5.54,7.59,16.87,16.87,0,0,0-.48,2.64Zm0-5.19a13.65,13.65,0,0,1,3.2-5.31,24.79,24.79,0,0,0-.57-7.21,25.3,25.3,0,0,1-2.56,9.22.61.61,0,0,1-.07.14ZM76.52,245a26.09,26.09,0,0,0-3.66,3.19,10.32,10.32,0,0,1-1,1.88A9.36,9.36,0,0,1,70,252a15.7,15.7,0,0,0-2.13,7.83,15.3,15.3,0,0,0,.82,4.92,4.9,4.9,0,0,1,1.73,1.13A13.81,13.81,0,0,1,69,259.83c0-4.88,2.68-9.51,7.59-13.24a.58.58,0,0,1-.2-.51c0-.22.06-.64.14-1.11M76,242.71a3.58,3.58,0,0,0,1.14.3.39.39,0,0,0,.23,0,.84.84,0,0,0,.38-.52,1.18,1.18,0,0,0,0-.72.76.76,0,0,0-.67-.57.67.67,0,0,0-.3.08,4,4,0,0,0-.77,1.48m-.88-3.14a3.06,3.06,0,0,0,1.24.71h0a.74.74,0,0,0,.48-.38,1.18,1.18,0,0,0,.13-.7c-.07-.51-.44-.87-.84-.79-.22,0-.66.58-1,1.17M76.62,234a3.51,3.51,0,0,0,0,3.33l.06,0a4.59,4.59,0,0,1,.85-3,2.7,2.7,0,0,1,1.41-1,2.28,2.28,0,0,0-.86-.18,1.58,1.58,0,0,0-1.42.82m3.41.37a2.49,2.49,0,0,0-.47,0,1.86,1.86,0,0,0-1.51.77,3.94,3.94,0,0,0-.56,2.93,2.28,2.28,0,0,1,.33,1,2.46,2.46,0,0,1-.15,1.24,1.79,1.79,0,0,1,.83,1,2.55,2.55,0,0,1,0,1.5,1.49,1.49,0,0,1,.81.67,2.32,2.32,0,0,1,.32,1c.61.94,1.24,1.49,2.06,1.42a2.33,2.33,0,0,0,1.74-1.42,1.13,1.13,0,0,1,.12-.21.4.4,0,0,1,.34-.19,2.16,2.16,0,0,1,.29,0,3.46,3.46,0,0,0,.94.13,3,3,0,0,0,2.39-1.27,6.38,6.38,0,0,0,.88-5.67h0l0-.06,0-.11-.84-2.44s0-.07,0-.11a.43.43,0,0,1,0,0v0l-.06-.19a3.93,3.93,0,0,0-3.78-2.77,3.71,3.71,0,0,0-2.88,2.45c-.13.27-.25.5-.49.5h0l-.17,0m1-3.62a4,4,0,0,0-.49,1.7,4.08,4.08,0,0,1,3-2.06,4.35,4.35,0,0,1,3.37,1.44c-.62-1.89-1.65-2.9-3-2.9h-.27A3.4,3.4,0,0,0,81,230.79m7.16,2.45a1.2,1.2,0,0,0,0,.77l1,2.8a.8.8,0,0,0,.72.6.61.61,0,0,0,.31-.09.89.89,0,0,0,.35-.41l0,0-1.44-4.2v-.06l-.16,0a.61.61,0,0,0-.31.09,1,1,0,0,0-.41.57m1.61-1.78a1.3,1.3,0,0,0,0,.78l1.44,4.2a.81.81,0,0,0,.71.6.62.62,0,0,0,.32-.09.93.93,0,0,0,.41-.56,1.3,1.3,0,0,0,0-.78l-1.44-4.2a.78.78,0,0,0-.71-.6.72.72,0,0,0-.32.08,1.1,1.1,0,0,0-.41.57m2.51-.93a.83.83,0,0,0-.35.41s0,0,0,.05l1.44,4.2a.42.42,0,0,0,0,.06l.15,0a.59.59,0,0,0,.31-.09,1.16,1.16,0,0,0,.4-1.33l-1-2.81a.81.81,0,0,0-.72-.59.58.58,0,0,0-.31.08m.43-2.54a6.93,6.93,0,0,0,2.08-.62l-5.1-2.94-.35-.07A8,8,0,0,0,92.72,228m-7.1-1.51C86.31,227,87.9,228,91,228a10.79,10.79,0,0,1-3-4.62,59.64,59.64,0,0,1-1.85-7.62c0-.19-.07-.39-.11-.59l-1.48.4.29,1.87-1.25.34-.3-1.87-1.44.38c.48,3.68,1.25,8.14,3.71,10.15m-2.53-12.17-.3-1.87,1.26-.34.3,1.87,1.48-.4a.59.59,0,0,1,0-.13c-.1-.62-.19-1.33-.29-2.08-.49-4-1.18-9.44-4-11.14a5.5,5.5,0,0,0-3.33-.91h-.57a11,11,0,0,1,2.63,5.39c.41,1.65.91,5.74,1.3,9,0,.33.08.64.11.94Zm-1.68,4.18c-.18-1.11-.31-2.2-.43-3.19,0-.32-.08-.66-.13-1l-10.24-5.92-.51,1.49-.61,1.76Zm-.27,1-11.5-6.65-.88,2.58.51.29a.59.59,0,0,1,.2.68l-.78,2.27a.38.38,0,0,1-.53.27l-.51-.3-.8,2.34,4.52,2.59.8-2.34-.5-.29a.45.45,0,0,1-.21-.3.65.65,0,0,1,0-.39l.78-2.25c.09-.27.33-.39.53-.27l.51.3.23-.68a.37.37,0,0,1,.53-.26l1.75,1a.46.46,0,0,1,.21.29.61.61,0,0,1,0,.4l-.22.65.51.3a.46.46,0,0,1,.21.29.78.78,0,0,1,0,.4l-.78,2.26c-.09.27-.33.39-.53.27l-.51-.3-.8,2.35,4.52,2.58.8-2.34-.5-.29a.58.58,0,0,1-.21-.68l.78-2.25a.45.45,0,0,1,.22-.28.31.31,0,0,1,.31,0l.51.29Zm-11.1-12a1.3,1.3,0,0,0,0-.78,1,1,0,0,0-.41-.56.61.61,0,0,0-.31-.09.82.82,0,0,0-.72.61l-1.44,4.2a1.22,1.22,0,0,0,0,.78.93.93,0,0,0,.41.56.73.73,0,0,0,.31.09.82.82,0,0,0,.72-.61Zm-2.16-1.25s0,0,0-.05a.94.94,0,0,0-.35-.41.61.61,0,0,0-.32-.08.79.79,0,0,0-.71.6l-1,2.8a1.16,1.16,0,0,0,.4,1.34.65.65,0,0,0,.31.08.36.36,0,0,0,.15,0,.14.14,0,0,0,0-.06ZM65.74,206h-.07a1.18,1.18,0,0,0-1,.88,1.84,1.84,0,0,0,.24,1.64ZM79,204.48l.28,0a20.59,20.59,0,0,0-1.72-3.88,11.37,11.37,0,0,0-.9-1l-.15-.16a2.45,2.45,0,0,0-1.51.7l-.42.41a4.86,4.86,0,0,1-1.16.92,1.7,1.7,0,0,0,.41,0,2.93,2.93,0,0,0,1.22-.31,3.69,3.69,0,0,1,1.1-.2.47.47,0,0,1,.51.44.59.59,0,0,1-.28.63,3.54,3.54,0,0,0-.75.63,5.55,5.55,0,0,1-.85.72,1.46,1.46,0,0,0,.3,0,3.32,3.32,0,0,0,1.38-.34,3.84,3.84,0,0,1,1.08-.19.49.49,0,0,1,.52.45.57.57,0,0,1-.27.61,3.49,3.49,0,0,0-.71.65,4,4,0,0,1-1,.91,1.06,1.06,0,0,0,.48.11,2,2,0,0,0,1.26-.58l0-.05a1.83,1.83,0,0,1,1.17-.56m8.51,13.64c.5,2.27.89,3.66,1.18,4.58L97,227.51l3.37-1.95Zm8.94-.16a9.18,9.18,0,0,1-1.39,3.38l3.8,2.2a14.81,14.81,0,0,0,1.69-4.16c.13-.5.31-1.57.41-2.36a20.87,20.87,0,0,0-4.47.55l0,.39m-1.26-1.07.59-.19h0a22.15,22.15,0,0,1,11.26,0h0c.18.06.36.11.53.18a0,0,0,0,1,0,0,.65.65,0,0,0,.22-.29,1.83,1.83,0,0,0,0-.84,19.62,19.62,0,0,0-12.81,0,1.63,1.63,0,0,0,0,.85.55.55,0,0,0,.21.29h0m-.56-2.82c.09.2.17.41.25.62a20.25,20.25,0,0,1,13,0c.07-.2.15-.41.24-.62a.31.31,0,0,1-.16.06l-.2,0a1.16,1.16,0,0,1-1-.65.64.64,0,0,1,0-.7.48.48,0,0,0,.08-.22.49.49,0,0,0-.21-.5.48.48,0,0,1-.23-.3.67.67,0,0,1,0-.42.27.27,0,0,0,0-.12.45.45,0,0,0-.27-.52c-.19-.05-.37.11-.41.35a.57.57,0,0,0,0,.13.62.62,0,0,1-.11.4.37.37,0,0,1-.29.17.38.38,0,0,0-.34.36.59.59,0,0,0,0,.23.6.6,0,0,1-.17.61l0,0a1.42,1.42,0,0,1-.77.23,1.55,1.55,0,0,1-1.22-.65.66.66,0,0,1-.1-.55,2.06,2.06,0,0,0,.09-.43.83.83,0,0,0-.53-.84.42.42,0,0,1-.27-.24.73.73,0,0,1,0-.42.91.91,0,0,0,0-.23.78.78,0,0,0-.66-.86c-.36,0-.65.38-.65.86a.85.85,0,0,0,0,.23.66.66,0,0,1,0,.42.42.42,0,0,1-.27.24.85.85,0,0,0-.53.84,2.55,2.55,0,0,0,.09.43.66.66,0,0,1-.1.55,1.55,1.55,0,0,1-1.22.65,1.47,1.47,0,0,1-.79-.24.58.58,0,0,1-.2-.63.81.81,0,0,0,0-.22.38.38,0,0,0-.34-.36.39.39,0,0,1-.3-.18.65.65,0,0,1-.1-.39.28.28,0,0,0,0-.13c0-.24-.22-.4-.41-.36a.41.41,0,0,0-.22.19.56.56,0,0,0,0,.34.53.53,0,0,0,0,.12.68.68,0,0,1,0,.42.45.45,0,0,1-.23.3.5.5,0,0,0-.21.5.72.72,0,0,0,.08.22.66.66,0,0,1,0,.7,1.19,1.19,0,0,1-1,.65l-.21,0-.16-.07m-1.43-6a42.6,42.6,0,0,0,1.53,4.35,1.55,1.55,0,0,1,.19.24,2.68,2.68,0,0,1,.19.42l.05,0a2.3,2.3,0,0,1-.06-.28,1.76,1.76,0,0,1,.38-1.41,1.8,1.8,0,0,1,.19-1.05,1.18,1.18,0,0,1,.73-.63h.07l.15,0a1.27,1.27,0,0,1,1.12,1.16,1.4,1.4,0,0,1,.75,1.12,1.79,1.79,0,0,1,0,.23h.17a.78.78,0,0,0,.48-.16,3,3,0,0,1-.05-.42,2,2,0,0,1,.82-1.7v0a1.51,1.51,0,1,1,2.91,0v0a2,2,0,0,1,.82,1.7,3.19,3.19,0,0,1-.05.42.76.76,0,0,0,.47.16h.17a1.79,1.79,0,0,1,0-.23,1.45,1.45,0,0,1,.75-1.12,1.27,1.27,0,0,1,1.12-1.16l.15,0h.07a1.51,1.51,0,0,1,.92,1.68,1.79,1.79,0,0,1,.38,1.41,1.76,1.76,0,0,1-.07.27l.06,0a2,2,0,0,1,.19-.42,1.12,1.12,0,0,1,.19-.24,45.05,45.05,0,0,0,1.52-4.35,20,20,0,0,0-3.75-.9,31.67,31.67,0,0,0-8.84,0,20,20,0,0,0-3.76.9m-1.32-3.15a23.08,23.08,0,0,1,.77,2.26,28.57,28.57,0,0,1,17.45,0,22.42,22.42,0,0,1,.78-2.27.6.6,0,0,0-.42.29,2.62,2.62,0,0,0-.21.6.44.44,0,0,1-.32.37,1.62,1.62,0,0,1-1.63-.75.64.64,0,0,1,0-.69,1,1,0,0,0,.13-.35.77.77,0,0,0-.33-.79.5.5,0,0,1-.22-.3.61.61,0,0,1,0-.42.41.41,0,0,0,0-.19.86.86,0,0,0-.08-.53.57.57,0,0,0-.35-.3c-.3-.08-.59.18-.64.56a1.41,1.41,0,0,0,0,.2.7.7,0,0,1-.1.41.37.37,0,0,1-.3.16.6.6,0,0,0-.53.58,1.09,1.09,0,0,0,0,.36.58.58,0,0,1-.22.64,1.8,1.8,0,0,1-.93.27,1.88,1.88,0,0,1-1.47-.78.61.61,0,0,1-.08-.6,1.61,1.61,0,0,0,.09-.54,1.18,1.18,0,0,0-.75-1.19.45.45,0,0,1-.27-.24.67.67,0,0,1,0-.42,1.39,1.39,0,0,0,0-.35,1,1,0,1,0-1.87,0,1.86,1.86,0,0,0,0,.34.67.67,0,0,1,0,.42.4.4,0,0,1-.27.24,1.17,1.17,0,0,0-.75,1.19,1.82,1.82,0,0,0,.08.52.54.54,0,0,1,.06.25.6.6,0,0,1-.13.38A1.88,1.88,0,0,1,98,205a1.79,1.79,0,0,1-.95-.28.58.58,0,0,1-.2-.62,1.09,1.09,0,0,0,0-.36.63.63,0,0,0-.54-.58A.38.38,0,0,1,96,203a.68.68,0,0,1-.1-.4.67.67,0,0,0,0-.2c-.06-.38-.34-.64-.64-.57a.57.57,0,0,0-.35.3,1,1,0,0,0-.09.54.82.82,0,0,0,.06.19.61.61,0,0,1,0,.42.5.5,0,0,1-.22.3.76.76,0,0,0-.33.78.73.73,0,0,0,.13.34.65.65,0,0,1,0,.72,1.6,1.6,0,0,1-1.33.76l-.28,0a.45.45,0,0,1-.33-.37,2.63,2.63,0,0,0-.2-.6.7.7,0,0,0-.44-.29m7-7.61a36.77,36.77,0,0,0-7.47,1.07,45.3,45.3,0,0,0,.76,5.56,1.41,1.41,0,0,1,.74.62,2.7,2.7,0,0,1,.25.6.75.75,0,0,0,.45-.18,3.89,3.89,0,0,1-.1-.4,2.09,2.09,0,0,1,.49-1.7h0a2.24,2.24,0,0,1,.21-1.31,1.39,1.39,0,0,1,.87-.74,1.06,1.06,0,0,1,.25,0,1.48,1.48,0,0,1,1.32,1.42h0a1.64,1.64,0,0,1,.94,1.35,1,1,0,0,1,0,.17,1.34,1.34,0,0,1,0,.2,1.12,1.12,0,0,0,.32,0,1.06,1.06,0,0,0,.71-.27,3.08,3.08,0,0,1-.06-.61,2.38,2.38,0,0,1,1-2.06v-.13a1.8,1.8,0,1,1,3.48,0v.13a2.38,2.38,0,0,1,1,2.06,3.08,3.08,0,0,1-.07.61,1.08,1.08,0,0,0,.72.27,1.17,1.17,0,0,0,.32,0v-.2c0-.06,0-.12,0-.18a1.67,1.67,0,0,1,.94-1.35h0a1.5,1.5,0,0,1,1.32-1.42,1.09,1.09,0,0,1,.26,0,1.35,1.35,0,0,1,.86.74,2.23,2.23,0,0,1,.21,1.31,2,2,0,0,1,.49,1.7,1.8,1.8,0,0,1-.1.4.77.77,0,0,0,.45.18,2.91,2.91,0,0,1,.25-.6,1.43,1.43,0,0,1,.75-.62,43.3,43.3,0,0,0,.75-5.56,36.77,36.77,0,0,0-7.47-1.07c-1.64-.08-3.31-.08-5,0m-7.85.11a44,44,0,0,1,20.65,0,16.4,16.4,0,0,1,.57-2.71.69.69,0,0,0-.28.34l-.37,1a.44.44,0,0,1-.27.29c-.65.18-1.06,0-1.6-.68a.64.64,0,0,1,0-.7,1.12,1.12,0,0,0,.14-.48,1,1,0,0,0-.51-1,.43.43,0,0,1-.24-.28.67.67,0,0,1,0-.42,1.32,1.32,0,0,0,0-.26.92.92,0,0,0-.65-1.06c-.4-.06-.77.32-.81.85a.83.83,0,0,0,0,.27.61.61,0,0,1-.08.4.41.41,0,0,1-.29.21.85.85,0,0,0-.67.84,1.24,1.24,0,0,0,0,.47.71.71,0,0,1,0,.21.53.53,0,0,1-.25.48,2,2,0,0,1-2.74-.66.65.65,0,0,1,0-.59,2,2,0,0,0,.11-.66,1.54,1.54,0,0,0-1-1.54.46.46,0,0,1-.27-.23.75.75,0,0,1,0-.42,2.3,2.3,0,0,0,0-.45,1.42,1.42,0,0,0-1.21-1.56,1.24,1.24,0,0,0-1.1.94,1.85,1.85,0,0,0-.1.63,2.2,2.2,0,0,0,0,.44.71.71,0,0,1,0,.25.84.84,0,0,1,0,.17.42.42,0,0,1-.27.24,1.44,1.44,0,0,0-.94,1.15,2.58,2.58,0,0,0,0,.39,1.72,1.72,0,0,0,.13.68.67.67,0,0,1,0,.57,2,2,0,0,1-2.75.66.15.15,0,0,1-.07-.05.62.62,0,0,1-.15-.63,1.1,1.1,0,0,0,0-.48.85.85,0,0,0-.67-.84.41.41,0,0,1-.29-.2.58.58,0,0,1-.07-.41,1.22,1.22,0,0,0,0-.27c0-.53-.41-.91-.81-.85a.94.94,0,0,0-.66,1.06,1.1,1.1,0,0,0,.06.26.67.67,0,0,1,0,.42.43.43,0,0,1-.24.28,1,1,0,0,0-.51,1,1.12,1.12,0,0,0,.14.48.62.62,0,0,1,0,.69c-.55.69-.95.87-1.6.68a.43.43,0,0,1-.28-.28s-.25-.66-.36-1a.75.75,0,0,0-.28-.34,16.18,16.18,0,0,1,.57,2.71m.58-4.29a11,11,0,0,0-.19,1.35s0,.07,0,.11c.08.19.2.51.28.73.15,0,.27,0,.45-.18a2.29,2.29,0,0,1-.11-.58,2.24,2.24,0,0,1,.71-1.92v-.07a1.94,1.94,0,0,1,1.36-2.21c.84-.11,1.61.68,1.7,1.78v.06a2,2,0,0,1,1,1.67,3.38,3.38,0,0,1,0,.45,1.35,1.35,0,0,0,1.33-.28,3.1,3.1,0,0,1-.1-.81,3,3,0,0,1,.07-.66,2.51,2.51,0,0,1,1.17-1.75v-.22a3.19,3.19,0,0,1,.16-1,2.33,2.33,0,0,1,1.18-1.42,1.53,1.53,0,0,1,.67-.15,1.68,1.68,0,0,1,.67.15,2.64,2.64,0,0,1,1.34,2.46,1.62,1.62,0,0,1,0,.22,2.72,2.72,0,0,1,1.25,2.41,3.1,3.1,0,0,1-.1.81,1.33,1.33,0,0,0,1.32.28,3.38,3.38,0,0,1,0-.45,2,2,0,0,1,1-1.67v-.06c.1-1.1.86-1.89,1.71-1.77a2,2,0,0,1,1.36,2.21s0,0,0,.06a2.22,2.22,0,0,1,.72,1.92,3.38,3.38,0,0,1-.11.57.47.47,0,0,0,.45.19l.27-.73,0-.11c0-.5-.11-1-.19-1.35a9.74,9.74,0,0,0-9.64-7.86h-.21a9.75,9.75,0,0,0-9.65,7.86m9.74-11.79a1.45,1.45,0,1,0,1.08,1.4,1.28,1.28,0,0,0-1.08-1.4m6.37,40a9.31,9.31,0,0,1-1.38-3.36v-.06l0-.31a20.68,20.68,0,0,0-4.47-.57c.1.79.29,1.85.41,2.36a15.27,15.27,0,0,0,1.68,4.12l3.8-2.18m-4.55,2.62a16.26,16.26,0,0,1-1.69-4.24c0-.11-.06-.25-.09-.4,0,.15-.06.29-.09.4A15.7,15.7,0,0,1,99.6,224l1.76,1Zm-6.12,4.68,1.11,3.25,16-9.22c.29-.92.68-2.31,1.17-4.57ZM116.6,215.8a59.64,59.64,0,0,1-1.85,7.62,10.88,10.88,0,0,1-3,4.62c3.13-.09,4.73-1,5.42-1.56,2.46-2,3.23-6.47,3.7-10.15l-1.43-.38-.3,1.87-1.26-.34.3-1.87-1.48-.4c0,.2-.08.4-.11.59m.38-2.31v.09l1.48.4.29-1.87,1.26.34-.3,1.86,1.38.38c0-.3.07-.61.11-.94.39-3.29.89-7.38,1.3-9a11.18,11.18,0,0,1,2.63-5.39h-.57a5.57,5.57,0,0,0-3.33.91c-2.77,1.7-3.45,7.15-4,11.13-.09.76-.18,1.47-.28,2.08v.05m9.16-13.87c-.18.19-.4.4-.65.67a19.35,19.35,0,0,0-1.9,4.17l.28,0A1.85,1.85,0,0,1,125,205l.06.05a2,2,0,0,0,1.25.59,1.26,1.26,0,0,0,.49-.11,4,4,0,0,1-1-.91,2.8,2.8,0,0,0-.71-.65.59.59,0,0,1-.27-.62.47.47,0,0,1,.52-.44,3.69,3.69,0,0,1,1.07.18,3.38,3.38,0,0,0,1.38.35h0l.3,0a5.09,5.09,0,0,1-.85-.73,3.69,3.69,0,0,0-.74-.62.61.61,0,0,1-.29-.63.48.48,0,0,1,.51-.45,4,4,0,0,1,1.1.2,2.82,2.82,0,0,0,1.22.31,1.86,1.86,0,0,0,.42-.05,4.62,4.62,0,0,1-1.16-.91l-.42-.41a2.39,2.39,0,0,0-1.57-.7l-.16.16M122,214.24c0,.37-.09.74-.13,1.06-.12,1-.25,2.06-.43,3.15l11.85-6.84-.05-.13-1.07-3.12Zm10.73-7.56a1.3,1.3,0,0,0,0,.78l1.43,4.2a.82.82,0,0,0,.72.61.56.56,0,0,0,.31-.09,1,1,0,0,0,.42-.56,1.38,1.38,0,0,0,0-.78l-1.44-4.2a.79.79,0,0,0-.71-.61.62.62,0,0,0-.32.09,1,1,0,0,0-.41.56m2.5-.93a.89.89,0,0,0-.35.41s0,0,0,.05l1.45,4.2v.05l.15,0a.62.62,0,0,0,.32-.09,1.14,1.14,0,0,0,.39-1.33l-1-2.81a.8.8,0,0,0-.71-.6.77.77,0,0,0-.32.09m1.88.23H137l.86,2.51a1.84,1.84,0,0,0,.24-1.64,1.18,1.18,0,0,0-1-.88m-3.79,10.4a.59.59,0,0,1,.2-.68l.51-.29-.88-2.58-11.51,6.65.88,2.56.5-.29a.29.29,0,0,1,.31,0,.43.43,0,0,1,.22.27l.78,2.25a.58.58,0,0,1-.21.69l-.5.29.8,2.34,4.52-2.59-.81-2.34-.51.29a.37.37,0,0,1-.53-.26l-.77-2.27a.61.61,0,0,1,0-.4.49.49,0,0,1,.21-.29l.51-.29-.23-.66a.74.74,0,0,1,0-.39.54.54,0,0,1,.21-.29l1.76-1a.37.37,0,0,1,.53.27l.23.67.5-.29c.21-.12.44,0,.53.26l.78,2.25a.78.78,0,0,1,0,.4.48.48,0,0,1-.22.29l-.5.3.8,2.34,4.52-2.59-.81-2.34-.5.29a.37.37,0,0,1-.53-.26ZM110.08,228a8,8,0,0,0,3.37-3.63,3,3,0,0,1-.43.07l-5,2.93a7.35,7.35,0,0,0,2.11.63m-1.63,5.86a1.16,1.16,0,0,0,.4,1.33.62.62,0,0,0,.32.09l.15,0,0-.05,1.44-4.2s0,0,0-.05a.79.79,0,0,0-.35-.41.59.59,0,0,0-.31-.09.8.8,0,0,0-.71.6Zm1.62,1.77a1.27,1.27,0,0,0,0,.77,1,1,0,0,0,.41.57.63.63,0,0,0,.32.08.79.79,0,0,0,.71-.59l1.44-4.2a1.3,1.3,0,0,0,0-.78.93.93,0,0,0-.41-.56.5.5,0,0,0-.32-.09.81.81,0,0,0-.71.6Zm2.15,1.25a.43.43,0,0,0,0,0,.89.89,0,0,0,.35.41.69.69,0,0,0,.32.08.79.79,0,0,0,.71-.6l1-2.8a1.26,1.26,0,0,0,0-.77,1,1,0,0,0-.41-.56.65.65,0,0,0-.32-.09l-.15,0s0,0,0,.06Zm2.16.19,0,.11,0,.06h0a6.33,6.33,0,0,0,.88,5.67,3,3,0,0,0,2.39,1.27,3.44,3.44,0,0,0,.93-.13,2.16,2.16,0,0,1,.29,0,.4.4,0,0,1,.33.19,2.39,2.39,0,0,1,.13.21,2.3,2.3,0,0,0,1.74,1.42c.81.07,1.45-.48,2-1.42a2.25,2.25,0,0,1,.33-.95,1.57,1.57,0,0,1,.8-.68,2.56,2.56,0,0,1,0-1.5,1.82,1.82,0,0,1,.83-1,2.52,2.52,0,0,1-.15-1.23,2.19,2.19,0,0,1,.33-1,3.89,3.89,0,0,0-.56-2.93,1.86,1.86,0,0,0-1.51-.77,2.59,2.59,0,0,0-.47,0h-.21c-.25,0-.36-.23-.49-.5a3.71,3.71,0,0,0-2.88-2.45,3.94,3.94,0,0,0-3.79,2.77,1.33,1.33,0,0,1,0,.19v0a.08.08,0,0,1,0,0l0,.11Zm4.7-8.09c-1.48-.14-2.62.88-3.28,2.89a4.42,4.42,0,0,1,3.09-1.44h.28a4,4,0,0,1,3,2.06,3.94,3.94,0,0,0-.49-1.7,3.44,3.44,0,0,0-2.64-1.82m5.62,4.25a2.11,2.11,0,0,0-.86.19,2.68,2.68,0,0,1,1.41,1,4.58,4.58,0,0,1,.85,3l.06,0a3.51,3.51,0,0,0,0-3.33,1.57,1.57,0,0,0-1.41-.83m2.88,6.35c-.38-.59-.82-1.13-1-1.17h-.12a.83.83,0,0,0-.72.8,1.15,1.15,0,0,0,.13.71.72.72,0,0,0,.48.38h0a3.05,3.05,0,0,0,1.24-.71m-2,3.43a3.75,3.75,0,0,0,1.14-.29,3.61,3.61,0,0,0-.77-1.48.51.51,0,0,0-.29-.08.75.75,0,0,0-.67.56,1.21,1.21,0,0,0,0,.73.88.88,0,0,0,.39.52.42.42,0,0,0,.22,0m4.31,5.17a25.68,25.68,0,0,0-3.67-3.2,10.42,10.42,0,0,1,.14,1.12.56.56,0,0,1-.2.51c4.92,3.72,7.6,8.36,7.6,13.23a13.82,13.82,0,0,1-1.43,6.06,4.87,4.87,0,0,1,1.73-1.14,15.24,15.24,0,0,0,.81-4.92,15.76,15.76,0,0,0-2.13-7.83,9.56,9.56,0,0,1-1.82-1.95,11,11,0,0,1-1-1.88m4.41-.58a12,12,0,0,1-4.72-4.81,12.21,12.21,0,0,0,1.94,6.57,8.5,8.5,0,0,0,4.95,3.38v-3.19a5.6,5.6,0,0,0-2.17-1.95m-3.85-11a20.39,20.39,0,0,1,2.14,6.76,8.2,8.2,0,0,0,.81,2.52,9.67,9.67,0,0,0,1.21.78,6.72,6.72,0,0,1,1.86,1.43V246.8a16.67,16.67,0,0,0-.49-2.68,11.94,11.94,0,0,0-5.53-7.55m3.39-6.22a24.45,24.45,0,0,0-.57,7.21,13.53,13.53,0,0,1,3.2,5.31v-3.16l-.07-.14a25.25,25.25,0,0,1-2.56-9.22m2.7,24.78a.65.65,0,0,1-.07-.29v-1.05a8.54,8.54,0,0,1-2.28-.84,16.74,16.74,0,0,1,1.49,6.88,16.52,16.52,0,0,1-.66,4.64,5,5,0,0,1,.69-.11,20.69,20.69,0,0,0,6.81-1.61.34.34,0,0,1,.46.16s0,0,0,0a9.66,9.66,0,0,0,2-3.79,10.08,10.08,0,0,0,.3-3.68,6.28,6.28,0,0,0-.24-1.26,5.72,5.72,0,0,0-1.69-2.56v3.7a1.35,1.35,0,0,1,0,.22h0a3.39,3.39,0,0,1-3.29,3.26c-2.13,0-3.28-1.79-3.55-3.69m5.13-2.13a3.16,3.16,0,0,1,.91.57v-2.5a4.85,4.85,0,0,0-2.06-.55v2.29a2.17,2.17,0,0,1,1.15.19m-1.79.86a.62.62,0,0,1-.17-.43v-2.82l-.34.12a3.69,3.69,0,0,0-2.1,3.56c0,1.74.91,3.48,2.82,3.48a2.48,2.48,0,0,0,2.49-2.31v-.13A1.69,1.69,0,0,0,141.4,254a1.55,1.55,0,0,0-1.17-.07.32.32,0,0,1-.37,0m-2.61-2.51a4.56,4.56,0,0,1,1.82-1.6,2.93,2.93,0,0,1,.76-.23,4.22,4.22,0,0,1,3.3.72l.24.14v0a6.91,6.91,0,0,1,2,2.27V239c-.33-.57-1.86-3-4-3a5.69,5.69,0,0,0-4,2Zm.52-23.22a11.6,11.6,0,0,0,.09,7.44c.07.17.13.34.21.49a6.21,6.21,0,0,1,1.28-.69,12.56,12.56,0,0,1-.2-3.21,29.25,29.25,0,0,1-1.38-4m2.49,1.58a14,14,0,0,0-.12,5.41,5.33,5.33,0,0,1,1.15-.13,3.7,3.7,0,0,1,.59,0,13.08,13.08,0,0,1,.66-2.71c.31-.87.58-1.69.82-2.44A27.66,27.66,0,0,0,141,219.28a43.47,43.47,0,0,1-.75,10.43m5.17-4.35a60.31,60.31,0,0,1-2.17,7.42,11.35,11.35,0,0,0-.6,2.48,5.71,5.71,0,0,1,2.15,1.54c.1-.22.19-.45.28-.7,1.2-3.33.94-7.4.34-10.74M124,244.11a1.14,1.14,0,0,0,.1,1.33,1.68,1.68,0,0,0,1.08.23h.29A4.3,4.3,0,0,0,125,244a.63.63,0,0,0-.45-.22.67.67,0,0,0-.57.35m-.77,1.58a2.69,2.69,0,0,1-2.29,1.19,2.46,2.46,0,0,1-1.51-.7,4,4,0,0,0,.44.9,1.66,1.66,0,0,0,1.45.87c1.08-.09,1.62-1,1.94-2.19l0-.07m-33.71-6.23a7.53,7.53,0,0,1-1.44,4.21,3.69,3.69,0,0,1-2.95,1.56H84.9a2.26,2.26,0,0,0,1.62.69A3.27,3.27,0,0,0,89,244.55a5.05,5.05,0,0,0,.54-5.09m25.09,4.21a7.52,7.52,0,0,1-1.43-4.21,5,5,0,0,0,.54,5.09,3.25,3.25,0,0,0,2.48,1.36,2.27,2.27,0,0,0,1.62-.69h-.25a3.7,3.7,0,0,1-3-1.56m-3-5.93h0s0,0,0,0m-6-6.49-.45,1.32a2.34,2.34,0,0,0,1,1.34,1.57,1.57,0,0,0,1.3.14l.21-.62h0l.44-1.3.74-2.13a2.31,2.31,0,0,0-1-1.16,1.58,1.58,0,0,0-1.45-.08Zm0-2.56-3.3,1.9,2.2,1.28ZM95,233.43h0l.22.62a1.51,1.51,0,0,0,1.29-.14,2.29,2.29,0,0,0,1-1.34l-.23-.68-1.08-3.13a1.56,1.56,0,0,0-1.44.08,2.26,2.26,0,0,0-1,1.16l.29.84Zm0,1.63a1.88,1.88,0,0,1-.81,1.08,1.3,1.3,0,0,1-.65.18h0a1.79,1.79,0,0,1-.09.46,2.25,2.25,0,0,1-.26.59,50.15,50.15,0,0,1,8.2-.65,51.28,51.28,0,0,1,8.2.65,2.25,2.25,0,0,1-.26-.59,1.79,1.79,0,0,1-.09-.46h0a1.24,1.24,0,0,1-.64-.18,1.89,1.89,0,0,1-.82-1.08,2.33,2.33,0,0,1-.7.11,2.15,2.15,0,0,1-1.12-.31,3.39,3.39,0,0,1-1.44-1.92l-3.08-1.78-3.08,1.78a3.31,3.31,0,0,1-1.44,1.92,2.15,2.15,0,0,1-1.12.31,2.43,2.43,0,0,1-.7-.11m-4,2.68h0a0,0,0,0,0,0,0m10.3,0A49.71,49.71,0,0,0,90.25,239a8.48,8.48,0,0,1,.38,1.38,50.21,50.21,0,0,1,21.46,0,8.58,8.58,0,0,1,.39-1.38,49.73,49.73,0,0,0-11.12-1.23m-24.12,7.92h.3a1.76,1.76,0,0,0,1.07-.22,1.16,1.16,0,0,0,.11-1.34.68.68,0,0,0-.57-.35.6.6,0,0,0-.46.22,4.49,4.49,0,0,0-.45,1.69m4.53,1.21a2.62,2.62,0,0,1-2.28-1.19l0,.07c.32,1.17.87,2.09,2,2.19h.11a1.74,1.74,0,0,0,1.34-.87,4.49,4.49,0,0,0,.44-.91,2.39,2.39,0,0,1-1.52.71m.87,28.66c0-.11-.08-.22-.13-.33l-.16-.28a2.4,2.4,0,0,0-.82-.69,3.84,3.84,0,0,0-.55,0,3.89,3.89,0,0,0-.78.08c.78.45,1.6.87,2.44,1.26m9.3,3a4.91,4.91,0,0,0-2-2.1,5.38,5.38,0,0,0-1.43-.65,1.69,1.69,0,0,0-.64,0,2,2,0,0,0-1.19.93c-.08.12-.14.24-.2.35a44.4,44.4,0,0,0,5.42,1.44m24.26-1.44c0-.11-.12-.23-.19-.35a2,2,0,0,0-1.19-.93,1.7,1.7,0,0,0-.64,0,5.38,5.38,0,0,0-1.43.65,4.91,4.91,0,0,0-2,2.1,43.76,43.76,0,0,0,5.41-1.44m6.34-2.82a3.89,3.89,0,0,0-.78-.08,3.52,3.52,0,0,0-.54,0,2.26,2.26,0,0,0-.83.69,2.54,2.54,0,0,0-.16.28,2.26,2.26,0,0,0-.13.33c.83-.39,1.65-.81,2.44-1.26M121,273.21a31.53,31.53,0,0,0,8-5.61,2.08,2.08,0,0,1,1.43-.59l.24,0a13.1,13.1,0,0,0,2.27-7.2c0-4.84-3-9.49-8.34-13.16a2,2,0,0,1-.67-.2c-.4,1.24-1.13,2.39-2.53,2.51h-.17a2.37,2.37,0,0,1-1.94-1.24,5.35,5.35,0,0,1-.76-1.91,3,3,0,0,1-2.31,1.11,4,4,0,0,1-3-1.65,5.75,5.75,0,0,1-1.21-3.92,49.47,49.47,0,0,0-21.21,0,5.77,5.77,0,0,1-1.21,3.92,4,4,0,0,1-3,1.65,3,3,0,0,1-2.31-1.1,5.35,5.35,0,0,1-.76,1.91A2.39,2.39,0,0,1,81.51,249h-.16c-1.4-.13-2.13-1.27-2.54-2.51a2.23,2.23,0,0,1-.66.2c-5.39,3.66-8.35,8.32-8.35,13.15a13.07,13.07,0,0,0,2.27,7.2h.23a2,2,0,0,1,1.43.58,32.07,32.07,0,0,0,8,5.62l0,0,.06,0a3.16,3.16,0,0,1,1.72,2.67c.71.31,1.45.61,2.2.88a2.85,2.85,0,0,1,2.93-2.06h0c.57.11,2.36.53,2.93.68l.2.06a33.94,33.94,0,0,0,9.55,1.29h0a34.32,34.32,0,0,0,9.55-1.29l.2-.06c.57-.15,2.36-.57,2.93-.68h0a2.86,2.86,0,0,1,2.93,2.06c.75-.27,1.48-.56,2.2-.88a3.15,3.15,0,0,1,1.74-2.68h0l.06,0m16.42-4.72a12.41,12.41,0,0,0,4.1-4.27,27,27,0,0,1-5.79,1.18,4.44,4.44,0,0,0-3.66,2.27,8,8,0,0,1,1.39,1.13,6.89,6.89,0,0,1,2.49-.41,10.89,10.89,0,0,1,1.47.1m10.73.58a.58.58,0,0,1-.15.61c-3,2.8-6,4.35-8.74,4.63a13.92,13.92,0,0,1,3.17,5.66.71.71,0,0,1,.05.26.47.47,0,0,1-.4.52h0a.36.36,0,0,1-.29-.15s-1-1.11-4.81-2.25a5.54,5.54,0,0,1-1.79-.88,19.84,19.84,0,0,1-3.6,3.43,22.9,22.9,0,0,1-5.73,3.59,2.26,2.26,0,0,1-1,.24,1.66,1.66,0,0,1-.84-.23,3.16,3.16,0,0,1-1.21-1.91,3.68,3.68,0,0,1,.36-3.19.33.33,0,0,1,.13-.11,28,28,0,0,0,2.52-1.47c0-.16-.12-.32-.18-.48a7.33,7.33,0,0,0-.41-.84l-.05,0c-.59.39-1.2.75-1.82,1.11a13.32,13.32,0,0,1-3.72,5.07,10.86,10.86,0,0,1,1.24.88,9,9,0,0,0,5.65,2c.34,0,.54,0,.54,0,.21,0,.4.17.44.44a.52.52,0,0,1-.32.58,30.83,30.83,0,0,1-7.71,1.12l-.89,0a14.55,14.55,0,0,1,1.74,6.22.45.45,0,0,1,0,.11.48.48,0,0,1-.39.53h0a.43.43,0,0,1-.37-.32,8.38,8.38,0,0,0-3.8-3.8,16.41,16.41,0,0,1-2.6-1.84,16.08,16.08,0,0,1-6.25,1.12c-1,0-1.85-1.15-2.43-2.11a10.52,10.52,0,0,0,.72,4.57,3.61,3.61,0,0,0,1.61-.26c.17-.06.35-.13.57-.19h.11a2.37,2.37,0,0,1,1.63.85,2.21,2.21,0,0,1,0,2.68h0l0,.05h0l0,0h0a4.6,4.6,0,0,1-2,.42,5.08,5.08,0,0,1-2.77-.82,7.7,7.7,0,0,1-2.94-3.82,7.83,7.83,0,0,1-3,3.82,5.19,5.19,0,0,1-2.77.82,4.55,4.55,0,0,1-2-.42h0l0,0,0,0s0,0,0,0h0a2.21,2.21,0,0,1,0-2.68,2.37,2.37,0,0,1,1.63-.85h.1l.58.19a3.28,3.28,0,0,0,1.6.26,10.49,10.49,0,0,0,.73-4.56c-.59,1-1.48,2.11-2.43,2.11a16.18,16.18,0,0,1-6.28-1.13,16.09,16.09,0,0,1-2.61,1.85c-3,1.76-3.8,3.78-3.8,3.8a.42.42,0,0,1-.36.31l-.1,0a.51.51,0,0,1-.3-.54A14.64,14.64,0,0,1,84,287.7l-.88,0h0a30.83,30.83,0,0,1-7.71-1.12.52.52,0,0,1-.32-.58c0-.27.22-.47.44-.44,0,0,.19,0,.53,0a9,9,0,0,0,5.66-2,9,9,0,0,1,1.34-.93,13.3,13.3,0,0,1-3.76-5c-.64-.35-1.25-.72-1.85-1.12l0,0a6,6,0,0,0-.41.84c-.07.16-.13.32-.19.48a27.16,27.16,0,0,0,2.53,1.47.33.33,0,0,1,.13.11,3.67,3.67,0,0,1,.36,3.19,3.19,3.19,0,0,1-1.2,1.91,1.6,1.6,0,0,1-.85.23,2.26,2.26,0,0,1-1-.24,22.79,22.79,0,0,1-5.72-3.59,20.57,20.57,0,0,1-3.61-3.42,5.54,5.54,0,0,1-1.79.88c-3.87,1.14-4.8,2.23-4.81,2.24a.35.35,0,0,1-.28.16.35.35,0,0,1-.23-.09.63.63,0,0,1-.15-.64,14,14,0,0,1,3.19-5.71c-2.78-.29-5.72-1.83-8.74-4.63a.6.6,0,0,1-.14-.61.39.39,0,0,1,.41-.33,32.06,32.06,0,0,0,3.92.21h0a43,43,0,0,0,4.93-.28,15.45,15.45,0,0,1-3.12-3.56A10.43,10.43,0,0,1,57,259.49a11.84,11.84,0,0,1-.37-3.86.51.51,0,0,1,0-.13V238.82a.59.59,0,0,1,.07-.29,11,11,0,0,1,.65-1c-.13-.27-.25-.57-.38-.9-1.6-4.34-.87-9.79,0-13.6a.43.43,0,0,1,.42-.36.47.47,0,0,1,.37.46,29.75,29.75,0,0,0,.93,4.4,32,32,0,0,1,3.45-11.15.36.36,0,0,1,.51-.19.58.58,0,0,1,.22.62s-1.06,4.75.4,12.66c.06.3.1.59.15.87a13.49,13.49,0,0,0,1-3.9.53.53,0,0,1,.29-.54.4.4,0,0,1,.47.29c1.79,4.85,1.13,8.28.15,10.4a5.93,5.93,0,0,1,.82.87.51.51,0,0,1,.1.24,23.41,23.41,0,0,0,1.82-7.23A13.87,13.87,0,0,0,68,227a.56.56,0,0,1,.27-.62c.2-.08.41,0,.49.3a30.23,30.23,0,0,1,1.56,10.06,12.83,12.83,0,0,1,3.29-2,.37.37,0,0,1,.48.27.62.62,0,0,1-.12.66,6.4,6.4,0,0,0-1.17,1.71,19.81,19.81,0,0,0-1.87,6.11,8.88,8.88,0,0,1-.24,1.1,11.94,11.94,0,0,0,2.49-4,.39.39,0,0,1,.44-.32.5.5,0,0,1,.33.49,19,19,0,0,1-.46,5.37,27.67,27.67,0,0,1,2.84-2.31,6.89,6.89,0,0,1-1-.39.58.58,0,0,1-.23-.67,10.34,10.34,0,0,1,.66-1.69,6.29,6.29,0,0,1-1.44-1,.63.63,0,0,1-.09-.73,6.1,6.1,0,0,1,1.49-1.86,4.62,4.62,0,0,1,.26-4.12,2.35,2.35,0,0,1,2-1.22,3.06,3.06,0,0,1,1.68.55,5.32,5.32,0,0,1,.64-2.54A4.24,4.24,0,0,1,83.58,228l.32,0c1.84,0,3.22,1.49,3.93,4.14a1.9,1.9,0,0,1,.41-.34,1.24,1.24,0,0,1,.64-.18h.05a1.79,1.79,0,0,1,.09-.46,1.92,1.92,0,0,1,.83-1.14,1.34,1.34,0,0,1,.64-.18,1.38,1.38,0,0,1,.89.36,1.66,1.66,0,0,1,.57-.55,1.24,1.24,0,0,1,.64-.18,1.36,1.36,0,0,1,.52.12,3.14,3.14,0,0,1,.3-.61,7.52,7.52,0,0,1-1,.15h-.1c-.2,0-.51,0-.88,0-1.57,0-4.46-.23-6.31-1.73s-2.86-4.25-3.45-7.05l-.9,2.63a.5.5,0,0,1-.23.28.29.29,0,0,1-.3,0l-.51-.3-.45,1.3.51.29a.59.59,0,0,1,.2.69l-1.13,3.29a.39.39,0,0,1-.36.31.35.35,0,0,1-.17,0l-5.25-3a.49.49,0,0,1-.21-.29.68.68,0,0,1,0-.4l1.13-3.29a.37.37,0,0,1,.53-.27l.51.3.45-1.32-.51-.29a.53.53,0,0,1-.21-.29.61.61,0,0,1,0-.4l.22-.66-1-.59-.23.68a.37.37,0,0,1-.53.26l-.51-.29-.44,1.29.51.3a.47.47,0,0,1,.21.28.64.64,0,0,1,0,.41l-1.13,3.29a.37.37,0,0,1-.53.26l-5.25-3a.46.46,0,0,1-.21-.29.68.68,0,0,1,0-.4l1.14-3.29a.45.45,0,0,1,.22-.28.29.29,0,0,1,.3,0l.51.29.45-1.31-.5-.3a.57.57,0,0,1-.21-.68l.84-2.46a1.25,1.25,0,0,1-1.46.12,1.92,1.92,0,0,1-.83-1.14,2.39,2.39,0,0,1-.09-.45h0a1.24,1.24,0,0,1-.64-.18,2.12,2.12,0,0,1-.93-1.73,2.93,2.93,0,0,1-.8-3.19,2,2,0,0,1,1.77-1.49,1.48,1.48,0,0,1,.59.12,1.41,1.41,0,0,1,1-.44,1.28,1.28,0,0,1,.65.18,1.87,1.87,0,0,1,.56.56,1.31,1.31,0,0,1,.89-.36,1.27,1.27,0,0,1,.64.18,1.9,1.9,0,0,1,.84,1.14,2.57,2.57,0,0,1,.08,1.07l9.82,5.67c-.33-2.68-.73-5.9-1.07-7.55h-.17a3,3,0,0,0-.42,0,1.12,1.12,0,0,0-.76.37l-.07,0a2.59,2.59,0,0,1-1.7.76h0a2.35,2.35,0,0,1-1.85-1.18.67.67,0,0,1,0-.57.37.37,0,0,1,.39-.25,1.23,1.23,0,0,0,1-.34,3.62,3.62,0,0,1-1,.15,2.14,2.14,0,0,1-1.8-.86.66.66,0,0,1-.06-.55.43.43,0,0,1,.36-.31,1.69,1.69,0,0,0,.85-.29,2.53,2.53,0,0,1-2.7-1.06.62.62,0,0,1,0-.58.4.4,0,0,1,.4-.26,3.47,3.47,0,0,0,.42,0c.64,0,1-.31,1.59-.92.13-.13.27-.27.44-.42a3.56,3.56,0,0,1,1-.64l0,0,.35-.1a2.23,2.23,0,0,1,.57-.12,10.77,10.77,0,0,1,1.32-.15h1.64l.21,0h0l.25,0h.06l.18,0,.08,0,.15,0,.09,0,.13,0,.09,0,.13,0,.09,0,.12.05.09,0,.12.07.09,0,.13.07.08,0,.15.08.07,0,.21.12c3.73,2.28,4.09,10.09,4.68,14,.13.82.25,1.6.39,2.31.08.45.17.87.25,1.28l7,4.07a8.12,8.12,0,0,0,1.36-3.08l-.38.13h0l-.06,0H95a1.47,1.47,0,0,1-.81-.91,3.11,3.11,0,0,1,0-1.67,16.51,16.51,0,0,0-1.48-3.07.64.64,0,0,1,0-.57.38.38,0,0,1,.39-.28,1.15,1.15,0,0,1,.4.13c-.41-1.1-.76-2.17-1.06-3.2h0c-.2,0-.36-.18-.39-.44a.22.22,0,0,1,0-.08,28.92,28.92,0,0,0-1.66-4.43.65.65,0,0,1,0-.62.34.34,0,0,1,.47-.12,2.26,2.26,0,0,1,.34.26c0-.29-.09-.56-.13-.83-.19-1.2-.31-2.39-.39-3.53a.37.37,0,0,1-.19-.09.55.55,0,0,1-.16-.39,18.43,18.43,0,0,0-1.17-4.8.68.68,0,0,1,0-.56.37.37,0,0,1,.41-.2,1.48,1.48,0,0,1,.95,1.08l.19.09c0-.3.08-.59.14-.85a10.59,10.59,0,0,1,9.09-8.54,2.92,2.92,0,0,1-.44-1.57,2.42,2.42,0,0,1,1.36-2.34v-2.07h-.94V177h.94v-1.14h1V177h.93v1.35h-.93v2.07a2.44,2.44,0,0,1,1.36,2.34,2.84,2.84,0,0,1-.45,1.57,10.57,10.57,0,0,1,9.09,8.54c.06.26.1.55.14.85l.19-.09a1.5,1.5,0,0,1,1-1.08.37.37,0,0,1,.41.2.66.66,0,0,1,0,.55,18,18,0,0,0-1.17,4.8.61.61,0,0,1-.16.39.28.28,0,0,1-.2.09,41.75,41.75,0,0,1-.53,4.37l.35-.26a.34.34,0,0,1,.47.12.63.63,0,0,1,0,.62,28.33,28.33,0,0,0-1.69,4.58.62.62,0,0,1-.2.31.33.33,0,0,1-.19.06h0c-.31,1.06-.66,2.13-1.06,3.19a1.13,1.13,0,0,1,.41-.13.37.37,0,0,1,.38.28.64.64,0,0,1,0,.57,17.35,17.35,0,0,0-1.49,3.07,3.11,3.11,0,0,1,0,1.67,1.46,1.46,0,0,1-.81.92h0a.05.05,0,0,0,0,0h-.08l-.1,0h0l-.32-.11a8.17,8.17,0,0,0,1.34,3l7.08-4.09c.08-.38.16-.79.24-1.22.14-.72.26-1.5.38-2.32.61-3.86,1-11.68,4.69-14l.21-.13.07,0,.15-.08.08,0,.13-.07.09,0,.12-.06.09,0,.13-.06.09,0,.12,0,.09,0,.13,0,.09,0,.15,0,.08,0,.18,0h.06l.25,0h0l.21,0h.1l.17,0h1.37a8.74,8.74,0,0,1,1.27.13,3.16,3.16,0,0,1,.86.2l.11,0h0a3.56,3.56,0,0,1,1,.67l.44.42c.63.6.94.91,1.59.91a2.1,2.1,0,0,0,.41,0,.39.39,0,0,1,.4.27.63.63,0,0,1,0,.57,2.53,2.53,0,0,1-2.1,1.13,2.6,2.6,0,0,1-.61-.07,1.53,1.53,0,0,0,.86.29.42.42,0,0,1,.35.31.66.66,0,0,1-.06.55,2.12,2.12,0,0,1-1.8.86h0a3.61,3.61,0,0,1-1-.15,1.23,1.23,0,0,0,.83.35h.19a.38.38,0,0,1,.4.25.64.64,0,0,1,0,.57,2.3,2.3,0,0,1-1.84,1.18,2.6,2.6,0,0,1-1.71-.76l-.06-.05a1.15,1.15,0,0,0-.77-.37,2.82,2.82,0,0,0-.41,0h-.24c-.34,1.65-.74,4.84-1.06,7.51l9.75-5.63a2.58,2.58,0,0,1,.08-1.07,1.92,1.92,0,0,1,.83-1.14,1.3,1.3,0,0,1,.65-.18,1.35,1.35,0,0,1,.89.36,1.67,1.67,0,0,1,.56-.56,1.33,1.33,0,0,1,.64-.17,1.38,1.38,0,0,1,1,.43A1.52,1.52,0,0,1,137,205a2,2,0,0,1,1.77,1.49,3,3,0,0,1-.79,3.2,2.1,2.1,0,0,1-.94,1.73,1.24,1.24,0,0,1-.64.18h0a3.58,3.58,0,0,1-.09.45,1.93,1.93,0,0,1-.84,1.14,1.34,1.34,0,0,1-.64.18,1.31,1.31,0,0,1-.82-.3l.84,2.46a.59.59,0,0,1-.2.68l-.51.29.45,1.32.51-.29a.29.29,0,0,1,.31,0,.46.46,0,0,1,.22.27l1.14,3.3a.68.68,0,0,1,0,.4.49.49,0,0,1-.21.29l-5.25,3a.37.37,0,0,1-.53-.27l-1.13-3.29a.61.61,0,0,1,0-.4.46.46,0,0,1,.21-.29l.51-.29-.45-1.3-.5.3a.37.37,0,0,1-.53-.27l-.23-.67-1,.59.22.65a.64.64,0,0,1,0,.41.47.47,0,0,1-.21.28l-.51.3.45,1.31.51-.29a.37.37,0,0,1,.53.27l1.13,3.29a.61.61,0,0,1,0,.4.46.46,0,0,1-.21.29l-5.25,3a.47.47,0,0,1-.16,0,.41.41,0,0,1-.37-.31l-1.13-3.29a.6.6,0,0,1,.2-.69l.51-.29-.44-1.3-.51.3a.34.34,0,0,1-.31,0,.49.49,0,0,1-.22-.28l-.86-2.52c-.6,2.76-1.57,5.42-3.43,6.94s-4.74,1.73-6.31,1.73c-.37,0-.67,0-.88,0h-.09a7.14,7.14,0,0,1-1-.17,3.1,3.1,0,0,1,.32.63,1.2,1.2,0,0,1,.52-.12,1.15,1.15,0,0,1,.64.18,1.55,1.55,0,0,1,.56.55,1.35,1.35,0,0,1,.89-.36,1.3,1.3,0,0,1,.65.18,1.92,1.92,0,0,1,.83,1.14,2.39,2.39,0,0,1,.09.45h0a1.24,1.24,0,0,1,.64.18,1.46,1.46,0,0,1,.41.34c.71-2.66,2.09-4.15,3.93-4.15l.32,0a4.21,4.21,0,0,1,3.24,2.25,5.47,5.47,0,0,1,.64,2.54,3,3,0,0,1,1.68-.54,2.34,2.34,0,0,1,2,1.21,4.62,4.62,0,0,1,.26,4.12,6.22,6.22,0,0,1,1.49,1.86.63.63,0,0,1-.09.73,6.57,6.57,0,0,1-1.44,1.05,10.3,10.3,0,0,1,.65,1.68.56.56,0,0,1-.22.67,6.88,6.88,0,0,1-1,.4,26.34,26.34,0,0,1,2.84,2.3,19,19,0,0,1-.46-5.37.48.48,0,0,1,.33-.48.39.39,0,0,1,.44.31,11.82,11.82,0,0,0,2.49,4,8.88,8.88,0,0,1-.24-1.1,20.15,20.15,0,0,0-1.86-6.12,7.33,7.33,0,0,0-1.17-1.71.63.63,0,0,1-.13-.65.38.38,0,0,1,.48-.27,12.9,12.9,0,0,1,3.3,2,30.23,30.23,0,0,1,1.55-10.06.38.38,0,0,1,.49-.3.57.57,0,0,1,.27.62,14.57,14.57,0,0,0-.07,3.43,24,24,0,0,0,1.82,7.22.94.94,0,0,1,.1-.23,6.36,6.36,0,0,1,.83-.87c-1-2.13-1.65-5.56.14-10.4a.37.37,0,0,1,.46-.28.52.52,0,0,1,.3.54,13.66,13.66,0,0,0,1,3.89q.06-.42.15-.87a42.75,42.75,0,0,0,.75-9.33,20.23,20.23,0,0,0-.35-3.33.58.58,0,0,1,.21-.62.36.36,0,0,1,.51.19A32,32,0,0,1,144,227.55a33.17,33.17,0,0,0,.94-4.41.47.47,0,0,1,.36-.46.43.43,0,0,1,.42.37c.89,3.81,1.62,9.25,0,13.6-.12.33-.25.62-.38.9a9,9,0,0,1,.65,1,.57.57,0,0,1,.07.29v16.68a.66.66,0,0,1,0,.14,11,11,0,0,1-4.1,9.47,15.26,15.26,0,0,1-3.12,3.57,45.55,45.55,0,0,0,4.93.28,30.24,30.24,0,0,0,3.92-.22.39.39,0,0,1,.46.3" transform="translate(-54.52 -175.85)"/><path class="cls-1" d="M332.5,240.2a18.79,18.79,0,0,0,1.91-.06c.08,0,.16.09.16.18,0,.43,0,1.15,0,1.66,0,.19-.06.42-.17.42s-.19-.15-.27-.5c-.14-.58-.38-1-.79-1.09s-1.37,0-1.62,0c-.07,0-.17.14-.17.17-.06.45-.08,2.21-.08,3.19,0,.24.05.53.14.53a11.85,11.85,0,0,0,1.36,0c.36-.08.49-.18.61-.69.06-.2.13-.39.24-.39s.14.23.14.36,0,.68,0,1c0,.52,0,.89,0,1.13s-.1.49-.2.49-.14-.1-.21-.39c-.11-.53-.3-.67-.47-.71a3.23,3.23,0,0,0-.76-.09,5.74,5.74,0,0,0-.73,0,.39.39,0,0,0-.1.16c0,1,0,2.47,0,2.73,0,.61.12.79.71.93.18.05.34.15.34.3s-.18.23-.39.23-.74,0-1.18,0-1.28.09-1.66.09-.34-.09-.34-.18.13-.25.34-.31a.78.78,0,0,0,.64-.79c0-.46.09-1.36.09-4.28,0-1.39,0-2.26,0-2.65a.76.76,0,0,0-.62-.85c-.24-.09-.37-.17-.37-.31s.19-.21.35-.21c.51,0,1,.05,1.5.05h1.56Z" transform="translate(-54.52 -175.85)"/><path class="cls-1" d="M338.34,244.38a2.5,2.5,0,0,1,.26,1.28c0,.58-.05,2.36-.05,2.53,0,.42.24.6.43.6a2.14,2.14,0,0,0,.41-.18s.05,0,.07,0a.51.51,0,0,1,0,.2,1.39,1.39,0,0,1-1.2,1,.87.87,0,0,1-.88-.72s-.08-.09-.1,0a4.59,4.59,0,0,1-.92.62,1.27,1.27,0,0,1-.51.12c-.43,0-.9-.67-.9-1.5a1.64,1.64,0,0,1,.21-.77,1,1,0,0,1,.42-.36c.26-.13,1.32-.5,1.59-.61a.29.29,0,0,0,.21-.22c0-.13,0-1,0-1.15,0-.36-.25-1-.78-1a.5.5,0,0,0-.37.11c-.05,0-.07.18-.07.68a.14.14,0,0,1-.05.13,5.21,5.21,0,0,1-1,.6c-.07,0-.15-.12-.15-.21,0-.43.25-.83,1-1.43a2.57,2.57,0,0,1,1.16-.56,1.31,1.31,0,0,1,1.2.81m-1.1,4.36a.49.49,0,0,0,.11-.29c0-.2,0-.83,0-1.33,0-.05,0-.14-.08-.14a2.22,2.22,0,0,0-.94.39c-.14.13-.21.21-.21.59,0,.66.41,1,.64,1a.88.88,0,0,0,.44-.18" transform="translate(-54.52 -175.85)"/><path class="cls-1" d="M343.84,244a.68.68,0,0,1,.2.54,1.13,1.13,0,0,1-.45.7c-.1,0-.29-.1-.54-.37s-.56-.65-.92-.65a.71.71,0,0,0-.51.33,3.36,3.36,0,0,0-.45,1.82,3,3,0,0,0,.37,1.57,1.48,1.48,0,0,0,1.28.8,1.86,1.86,0,0,0,1.11-.49c.06,0,.16,0,.16.12a.86.86,0,0,1-.19.46,2.37,2.37,0,0,1-1.8,1,2.12,2.12,0,0,1-1.83-1.2,4.11,4.11,0,0,1-.38-1.73,3.22,3.22,0,0,1,1.16-2.59,3,3,0,0,1,1.65-.64,2,2,0,0,1,1.14.33" transform="translate(-54.52 -175.85)"/><path class="cls-1" d="M348.1,248.53a1,1,0,0,0,.12-.35v-3.34a.43.43,0,0,0-.2-.34,4.92,4.92,0,0,1-.46-.23.31.31,0,0,1-.19-.27c0-.06.1-.15.19-.15a8.64,8.64,0,0,0,1.55-.19,1.09,1.09,0,0,1,.28-.06c.08,0,.12.18.12.23,0,.54-.06,4.34-.06,4.81,0,.05,0,.27.15.27s.37-.1.53-.1.13.35.13.39-.08.16-.13.16a8.41,8.41,0,0,0-1.2.31,5,5,0,0,1-.6.2s-.13-.1-.13-.21,0-.35,0-.61c0-.07,0-.13-.07-.1a5,5,0,0,1-.81.65,1.26,1.26,0,0,1-.75.23,1.29,1.29,0,0,1-1.19-.79,2.52,2.52,0,0,1-.13-.79c0-1.06,0-2.51,0-3.31a.59.59,0,0,0-.4-.62.41.41,0,0,1-.21-.31.18.18,0,0,1,.18-.17c.33,0,1.57-.16,1.61-.16s.1.16.1.22c0,1.14,0,3.37,0,4.06a.94.94,0,0,0,.23.64,1,1,0,0,0,.65.29,1,1,0,0,0,.71-.36" transform="translate(-54.52 -175.85)"/><path class="cls-1" d="M351,239.75a4.73,4.73,0,0,0,1.51-.67s.14.09.14.15c0,.53-.09,3.53-.09,5.77,0,1.16,0,3.14,0,3.59a.66.66,0,0,0,.53.69c.16.07.24.15.24.25s-.18.18-.31.18c-.28,0-1-.06-1.16-.06s-.84.06-1.09.06-.33-.11-.33-.18.15-.22.28-.25c.38-.14.45-.36.49-1.14s.07-2.34.07-4.7c0-.77,0-2.2,0-2.62,0-.17-.07-.27-.31-.5s-.21-.24-.21-.31a.38.38,0,0,1,.22-.26" transform="translate(-54.52 -175.85)"/><path class="cls-1" d="M356.93,243.74s.17.06.17.16c0-.05,0,.43,0,.61s-.22.18-.3.18h-1.11a.13.13,0,0,0-.12.1c0,.74,0,2.13,0,3a1,1,0,0,0,.19.71.81.81,0,0,0,.57.25,1.13,1.13,0,0,0,.51-.21c.1-.07.15-.1.2-.1s.08.07.08.24a1,1,0,0,1-.18.43,1.68,1.68,0,0,1-1.33.7,1.3,1.3,0,0,1-1.09-.64,1.79,1.79,0,0,1-.21-1.06c0-.55.05-2.72.05-3.24,0-.1-.2-.21-.45-.33a.29.29,0,0,1-.14-.25.14.14,0,0,1,.06-.13,8.32,8.32,0,0,0,1.23-1.2c.14-.21.22-.33.27-.33a.33.33,0,0,1,.23.26v.74c0,.05.06.14.1.14l1.24,0" transform="translate(-54.52 -175.85)"/><path class="cls-1" d="M361.15,244.38a2.5,2.5,0,0,1,.26,1.28c0,.58-.05,2.36-.05,2.53,0,.42.23.6.43.6a2.14,2.14,0,0,0,.41-.18s.05,0,.07,0a.75.75,0,0,1,0,.2,1.37,1.37,0,0,1-1.2,1,.86.86,0,0,1-.87-.72s-.08-.09-.1,0a4.59,4.59,0,0,1-.92.62,1.31,1.31,0,0,1-.51.12c-.44,0-.9-.67-.9-1.5a1.64,1.64,0,0,1,.21-.77,1,1,0,0,1,.42-.36c.25-.13,1.31-.5,1.58-.61a.29.29,0,0,0,.21-.22c0-.13,0-1,0-1.15,0-.36-.25-1-.78-1a.5.5,0,0,0-.37.11s-.07.18-.07.68a.14.14,0,0,1,0,.13,5.21,5.21,0,0,1-1,.6c-.07,0-.15-.12-.15-.21,0-.43.25-.83,1-1.43a2.57,2.57,0,0,1,1.16-.56,1.33,1.33,0,0,1,1.21.81m-1.1,4.36a.49.49,0,0,0,.11-.29c0-.2,0-.83,0-1.33,0-.05,0-.14-.09-.14a2.33,2.33,0,0,0-.94.39c-.14.13-.21.21-.21.59,0,.66.42,1,.64,1a.88.88,0,0,0,.44-.18" transform="translate(-54.52 -175.85)"/><path class="cls-1" d="M366.16,243.63s.08-.07.1-.13c.06-.45,0-2.43,0-2.81,0-.12,0-.35-.49-.62-.11-.06-.17-.13-.17-.15a.48.48,0,0,1,.21-.29,7.62,7.62,0,0,0,1.47-.43.51.51,0,0,1,.22-.07s.12.15.1.3c0,.57-.1,2.31-.1,5.67,0,1.85,0,2.6,0,2.88,0,.91.11,1.05.21,1.05s.45-.06.59-.06.07.11.07.12a1,1,0,0,1-.25.41,7.56,7.56,0,0,0-1.24.29,1.59,1.59,0,0,1-.51.17c-.06,0-.14-.12-.14-.21s0-.34,0-.57c0-.07-.05-.11-.08-.1a2.2,2.2,0,0,1-1.43.7,1.77,1.77,0,0,1-1.4-.72,3.34,3.34,0,0,1-.65-2.1,3.27,3.27,0,0,1,1.26-2.78,3,3,0,0,1,1.56-.56,2.68,2.68,0,0,1,.65,0m-1.74,1a3.58,3.58,0,0,0-.44,1.82c0,1.27.67,2.49,1.57,2.49a.72.72,0,0,0,.56-.22,2.06,2.06,0,0,0,.16-.7c0-.53,0-2,0-2.59a2.71,2.71,0,0,0-.21-.6,1.26,1.26,0,0,0-.95-.65,1,1,0,0,0-.68.45" transform="translate(-54.52 -175.85)"/><path class="cls-1" d="M374.62,243.63c.05,0,.08-.07.09-.13a26.2,26.2,0,0,0,0-2.81c0-.12,0-.35-.49-.62a.37.37,0,0,1-.16-.15.48.48,0,0,1,.21-.29,8.06,8.06,0,0,0,1.47-.43.51.51,0,0,1,.22-.07c.05,0,.12.15.1.3,0,.57-.1,2.31-.1,5.67,0,1.85,0,2.6,0,2.88,0,.91.11,1.05.22,1.05s.44-.06.58-.06.07.11.07.12a1,1,0,0,1-.25.41,7.68,7.68,0,0,0-1.23.29,1.67,1.67,0,0,1-.51.17c-.06,0-.14-.12-.14-.21s0-.34,0-.57c0-.07-.06-.11-.08-.1a2.2,2.2,0,0,1-1.43.7,1.77,1.77,0,0,1-1.4-.72,3.34,3.34,0,0,1-.65-2.1,3.27,3.27,0,0,1,1.26-2.78,3,3,0,0,1,1.57-.56,2.55,2.55,0,0,1,.63,0m-1.75,1a3.68,3.68,0,0,0-.43,1.82c0,1.27.67,2.49,1.56,2.49a.75.75,0,0,0,.57-.22,2.06,2.06,0,0,0,.16-.7c0-.53,0-2,0-2.59a2,2,0,0,0-.21-.6,1.24,1.24,0,0,0-.94-.65,1,1,0,0,0-.69.45" transform="translate(-54.52 -175.85)"/><path class="cls-1" d="M381,244.2a2.09,2.09,0,0,1,.45,1.31c0,.11-.12.37-.26.37h-2.54a.13.13,0,0,0-.13.1,2.79,2.79,0,0,0,0,.53,3.42,3.42,0,0,0,.36,1.39,1.51,1.51,0,0,0,1.3.75,1.11,1.11,0,0,0,1.05-.52c0-.09.1-.18.15-.18s.1.1.1.19a1,1,0,0,1-.09.38,2,2,0,0,1-1.87,1.3c-1.33,0-2.15-1.3-2.15-3a3.38,3.38,0,0,1,1.48-2.95,1.89,1.89,0,0,1,1-.29,1.59,1.59,0,0,1,1.23.63m-2.41,1.06c0,.08,0,.15.09.15.3,0,.66,0,1.24,0,.19,0,.41-.15.41-.51s-.32-.91-.65-.91c-.49,0-1,.6-1.09,1.27" transform="translate(-54.52 -175.85)"/><path class="cls-1" d="M385.54,241.78c0-.72,0-.94-.61-1.12-.28-.09-.35-.2-.35-.3s.16-.21.37-.21.94,0,1.33,0c.57,0,1,0,1.39,0,.2,0,.36.06.36.21s-.16.25-.36.3c-.58.13-.62.52-.64.91s0,.89,0,3.46c0,1.81,0,2.45,0,2.9,0,.88.11,1.06.77,1.28.21.07.32.16.32.32s-.22.2-.36.2c-.46,0-1.25-.1-1.74-.08-.34,0-.69,0-1.12,0-.28,0-.36-.11-.36-.26s.1-.21.35-.28c.53-.17.62-.48.64-1.12s.06-2.11.06-3.38c0-.76,0-2.31,0-2.88" transform="translate(-54.52 -175.85)"/><path class="cls-1" d="M388.87,244.09a7.45,7.45,0,0,0,.94-.45,1.51,1.51,0,0,1,.4-.22s.12.16.12.22,0,.53,0,.66.07.07.08.07a2.36,2.36,0,0,1,1.48-.8,1.31,1.31,0,0,1,1.08.6,3.28,3.28,0,0,1,.42,1.8c0,.31,0,2.51,0,2.72a.53.53,0,0,0,.41.51c.22.07.3.15.3.27s-.14.2-.34.2l-1.06,0c-.29,0-.76.05-.92.05s-.31-.05-.31-.21.12-.19.28-.25.32-.27.35-.76,0-2.35,0-2.78a1.54,1.54,0,0,0-.26-.9,1,1,0,0,0-.66-.31,1,1,0,0,0-.77.3.81.81,0,0,0-.12.33c0,.25,0,3.46,0,3.64s0,.31.4.46c.1.07.2.16.2.26s-.13.2-.33.2l-.9,0c-.43,0-.88.05-1.09.05s-.31-.09-.31-.22.12-.2.25-.25c.38-.16.44-.28.47-.83s.06-1.64.06-3.15c0-.16-.08-.31-.34-.61-.09-.12-.13-.16-.13-.21a.67.67,0,0,1,.22-.33" transform="translate(-54.52 -175.85)"/><path class="cls-1" d="M397.94,243.75a2.69,2.69,0,0,0,.32.1,12.47,12.47,0,0,1,1.31.12.17.17,0,0,1,.12.16.94.94,0,0,1-.26.57,6,6,0,0,1-.67,0c-.06,0-.08.09-.07.1a3.69,3.69,0,0,1,.07.65,2.46,2.46,0,0,1-.67,1.86,2.07,2.07,0,0,1-1.41.57l-.46,0c-.08,0-.13,0-.17,0a.7.7,0,0,0-.22.39.64.64,0,0,0,.44.55c.51,0,1.85.07,2.19.15a1.18,1.18,0,0,1,.59.36,2,2,0,0,1,.5,1.35,3.06,3.06,0,0,1-1.2,2.39,2.74,2.74,0,0,1-1.77.66,2.1,2.1,0,0,1-1.46-.51,1.88,1.88,0,0,1-.62-1.35,1.07,1.07,0,0,1,.36-.88c.23-.19.59-.47.74-.61a.05.05,0,0,0,0-.1,2.29,2.29,0,0,1-.47-.28,1.55,1.55,0,0,1-.46-1.18.31.31,0,0,1,.09-.18,7.33,7.33,0,0,0,.94-.85s0-.1,0-.15a2.18,2.18,0,0,1-.95-1.88,2.27,2.27,0,0,1,.7-1.68,2.07,2.07,0,0,1,1.42-.55,2.88,2.88,0,0,1,1.09.24m.07,9a1.45,1.45,0,0,0,.52-1.18,1.38,1.38,0,0,0-.19-.73,1,1,0,0,0-.65-.39,6,6,0,0,0-1.22-.07.86.86,0,0,0-.56.18,1.51,1.51,0,0,0-.35.95,1.54,1.54,0,0,0,.41,1.06,1.58,1.58,0,0,0,1.14.43,1.61,1.61,0,0,0,.9-.25m-1.75-8.49a2.58,2.58,0,0,0-.27,1.27c0,.95.37,1.92.94,1.92a.69.69,0,0,0,.36-.22,3,3,0,0,0,.31-1.51,3.44,3.44,0,0,0-.25-1.21c-.18-.35-.4-.57-.63-.57a.56.56,0,0,0-.46.32" transform="translate(-54.52 -175.85)"/><path class="cls-1" d="M403.72,244.2a2.09,2.09,0,0,1,.44,1.31c0,.11-.12.37-.26.37h-2.54a.13.13,0,0,0-.13.1,2.12,2.12,0,0,0-.05.53,3.29,3.29,0,0,0,.37,1.39,1.51,1.51,0,0,0,1.29.75,1.1,1.1,0,0,0,1.05-.52c0-.09.1-.18.15-.18s.1.1.1.19a1,1,0,0,1-.09.38,2,2,0,0,1-1.87,1.3c-1.34,0-2.15-1.3-2.15-3a3.38,3.38,0,0,1,1.48-2.95,1.89,1.89,0,0,1,1-.29,1.65,1.65,0,0,1,1.25.63m-2.42,1.06c0,.08,0,.15.08.15.31,0,.67,0,1.25,0,.19,0,.41-.15.41-.51s-.33-.91-.65-.91c-.49,0-.95.6-1.09,1.27" transform="translate(-54.52 -175.85)"/><path class="cls-1" d="M405.16,244.09a7.45,7.45,0,0,0,.94-.45,1.51,1.51,0,0,1,.4-.22s.12.16.12.22,0,.53,0,.66.07.07.08.07a2.36,2.36,0,0,1,1.49-.8,1.28,1.28,0,0,1,1.07.6,3.28,3.28,0,0,1,.42,1.8c0,.31,0,2.51,0,2.72a.55.55,0,0,0,.41.51c.22.07.3.15.3.27s-.13.2-.33.2l-1.06,0c-.3,0-.76.05-.92.05s-.32-.05-.32-.21.13-.19.28-.25.33-.27.35-.76,0-2.35,0-2.78a1.61,1.61,0,0,0-.25-.9,1,1,0,0,0-1.44,0,1,1,0,0,0-.11.33c0,.25,0,3.46,0,3.64s0,.31.41.46c.1.07.2.16.2.26s-.13.2-.33.2l-.9,0c-.43,0-.89.05-1.09.05s-.31-.09-.31-.22.11-.2.24-.25c.39-.16.44-.28.48-.83s.05-1.64.05-3.15c0-.16-.08-.31-.33-.61-.1-.12-.13-.16-.13-.21a.59.59,0,0,1,.21-.33" transform="translate(-54.52 -175.85)"/><path class="cls-1" d="M411.24,249.71c-.19,0-.33-.09-.33-.2s.08-.18.31-.26a.64.64,0,0,0,.43-.43c0-.22.07-1.28.07-2.33,0-.45,0-1.17,0-1.35s-.16-.26-.4-.54c-.07-.08-.14-.16-.14-.23s.13-.24.32-.28a13.75,13.75,0,0,0,1.39-.54c.06,0,.12.12.12.17,0,.5-.06,2.51-.06,3.37,0,.46,0,1,0,1.51s.16.5.46.62.25.17.25.29-.16.19-.32.19-.71,0-1,0-.93.05-1.13.05m1.77-8.33a.92.92,0,0,1-.7.91.71.71,0,0,1-.47-.26,1,1,0,0,1-.22-.65,1.27,1.27,0,0,1,.18-.66.82.82,0,0,1,.59-.27c.41,0,.62.59.62.93" transform="translate(-54.52 -175.85)"/><path class="cls-1" d="M418,244.2a2.09,2.09,0,0,1,.45,1.31c0,.11-.12.37-.26.37H415.6a.13.13,0,0,0-.13.1,2.12,2.12,0,0,0-.05.53,3.29,3.29,0,0,0,.37,1.39,1.51,1.51,0,0,0,1.29.75,1.1,1.1,0,0,0,1.05-.52c0-.09.1-.18.15-.18s.11.1.11.19a1,1,0,0,1-.1.38,2,2,0,0,1-1.86,1.3c-1.35,0-2.16-1.3-2.16-3a3.38,3.38,0,0,1,1.48-2.95,1.94,1.94,0,0,1,1-.29,1.61,1.61,0,0,1,1.24.63m-2.41,1.06c0,.08,0,.15.08.15.3,0,.66,0,1.25,0,.18,0,.4-.15.4-.51s-.33-.91-.65-.91c-.49,0-.94.6-1.08,1.27" transform="translate(-54.52 -175.85)"/><path class="cls-1" d="M419.28,244.17a6.21,6.21,0,0,0,1.18-.57.76.76,0,0,1,.28-.17c.07,0,.14.13.14.17,0,.27,0,.56,0,.84,0,0,.06.1.1.06.36-.5.87-.93,1.23-.93a.64.64,0,0,1,.68.61,1.07,1.07,0,0,1-.07.25,4.32,4.32,0,0,1-.57.88s-.18,0-.21-.07a1.38,1.38,0,0,0-.73-.42.41.41,0,0,0-.3.1.38.38,0,0,0-.1.29c0,.3.06,2.9.07,3.12,0,.47.1.74.27.78a3.25,3.25,0,0,1,.5.2c.19.07.24.17.24.24s-.14.18-.33.18c-.35,0-1-.08-1.65-.08-.24,0-.49,0-.77,0-.12,0-.27,0-.27-.21s.17-.18.27-.23c.42-.19.44-.35.45-1.25v-2.46a1.06,1.06,0,0,0-.09-.57,2.34,2.34,0,0,1-.42-.52s0-.25.14-.29" transform="translate(-54.52 -175.85)"/><path class="cls-1" d="M423.67,244.08c.47-.12,1.21-.48,1.39-.53s.12.11.12.16c0,.51-.06,2.51-.06,3.37,0,.46,0,1,0,1.51s.16.51.46.63.25.16.25.28-.16.2-.32.2-.71,0-1,0-.93.06-1.13.06-.33-.09-.33-.2.08-.18.3-.26.41-.28.43-.43a22.48,22.48,0,0,0,.07-2.33c0-.31,0-1.17,0-1.34s-.14-.27-.4-.54c-.07-.09-.14-.16-.14-.25s.14-.23.33-.28m1.55-4.19c.15,0,.54.05.57.27a.87.87,0,0,1-.08.4,20,20,0,0,1-1.21,2.23.55.55,0,0,1-.34.23c-.1,0-.12-.19,0-.46.14-.56.59-1.94.76-2.41a.46.46,0,0,1,.34-.26" transform="translate(-54.52 -175.85)"/><path class="cls-1" d="M429.85,244.38a2.63,2.63,0,0,1,.25,1.28c0,.58,0,2.36,0,2.53,0,.42.23.6.43.6a2.14,2.14,0,0,0,.41-.18s0,0,.06,0a.51.51,0,0,1,0,.2,1.39,1.39,0,0,1-1.2,1,.86.86,0,0,1-.87-.72s-.08-.09-.11,0a4.59,4.59,0,0,1-.92.62,1.27,1.27,0,0,1-.51.12c-.43,0-.9-.67-.9-1.5a1.64,1.64,0,0,1,.21-.77,1,1,0,0,1,.42-.36c.25-.13,1.31-.5,1.58-.61a.29.29,0,0,0,.21-.22c0-.13,0-1,0-1.15,0-.36-.26-1-.78-1a.52.52,0,0,0-.38.11s-.07.18-.07.68a.18.18,0,0,1,0,.13,5.58,5.58,0,0,1-1,.6c-.07,0-.15-.12-.15-.21,0-.43.25-.83,1-1.43a2.57,2.57,0,0,1,1.16-.56,1.33,1.33,0,0,1,1.22.81m-1.1,4.36a.49.49,0,0,0,.11-.29c0-.2,0-.83,0-1.33,0-.05,0-.14-.08-.14a2.28,2.28,0,0,0-.94.39c-.14.13-.21.21-.21.59,0,.66.42,1,.64,1a.92.92,0,0,0,.44-.18" transform="translate(-54.52 -175.85)"/><path class="cls-1" d="M314.5,282.16a.43.43,0,0,1-.37-.47v-70a.38.38,0,1,1,.74,0v70c0,.27-.17.47-.37.47" transform="translate(-54.52 -175.85)"/></svg>