<svg id="Capa_1" data-name="Capa 1" xmlns="http://www.w3.org/2000/svg" xmlns:xlink="http://www.w3.org/1999/xlink" viewBox="0 0 290.27 261.66"><defs><style>.cls-1{fill:none;}.cls-2{clip-path:url(#clip-path);}.cls-3{fill:#2587b9;}.cls-4{fill:#d5e9f2;}.cls-5{fill:#aad7e7;}.cls-6{fill:#0f2c42;}.cls-7{fill:#071016;}.cls-8{clip-path:url(#clip-path-2);}.cls-9{fill:#fff;}.cls-10{fill:#6fc09f;}.cls-11{clip-path:url(#clip-path-3);}.cls-12{clip-path:url(#clip-path-4);}.cls-13{fill:#1586b8;}</style><clipPath id="clip-path" transform="translate(-110.01 -118.42)"><rect id="SVGID" class="cls-1" x="172.34" y="362.38" width="105.19" height="17.74"/></clipPath><clipPath id="clip-path-2" transform="translate(-110.01 -118.42)"><rect id="SVGID-2" data-name="SVGID" class="cls-1" x="211.38" y="132.1" width="9.76" height="9.82"/></clipPath><clipPath id="clip-path-3" transform="translate(-110.01 -118.42)"><rect id="SVGID-3" data-name="SVGID" class="cls-1" x="259.1" y="117.29" width="142.07" height="152.45"/></clipPath><clipPath id="clip-path-4" transform="translate(-110.01 -118.42)"><polygon id="SVGID-4" data-name="SVGID" class="cls-1" points="236.1 252.45 266.23 99.32 407.04 131.72 376.92 284.84 236.1 252.45"/></clipPath></defs><title>icon-main</title><g class="cls-2"><path class="cls-3" d="M276.77,371.28c0,4.86-23.33,8.8-52.1,8.8s-52.11-3.94-52.11-8.8,23.34-8.79,52.11-8.79S276.77,366.41,276.77,371.28Z" transform="translate(-110.01 -118.42)"/></g><path class="cls-4" d="M263.54,185.87c-13.54-21.29-46.47-21.29-46.47-21.29s-32.92,0-46.46,21.29c-12.43,19.56-12.31,46.27-12.31,46.27l12,16.63h93.54l12-16.63S276,205.43,263.54,185.87Z" transform="translate(-110.01 -118.42)"/><path class="cls-5" d="M263.56,185.87c-5.31-8.34-13.6-13.43-21.71-16.51a37.94,37.94,0,0,1,10.94,11c12.42,19.55,12.31,46.26,12.31,46.26l-12,16.64H166.37l4,5.49h93.55l12-16.63S276,205.43,263.56,185.87Z" transform="translate(-110.01 -118.42)"/><path class="cls-6" d="M246.92,190.21c-12.61-10.32-47.08-10.32-59.69,0-13.7,11.2-13.24,37.93-13.24,37.93h86.17S260.63,201.4,246.92,190.21Z" transform="translate(-110.01 -118.42)"/><path class="cls-7" d="M174.35,228.14c.82-8.73,3.65-23.32,12.88-30.87,12.61-10.31,47.08-10.31,59.69,0,9.23,7.55,12,22.14,12.88,30.87h.36s.46-26.74-13.24-37.93c-12.61-10.32-47.08-10.32-59.69,0-13.7,11.2-13.24,37.93-13.24,37.93Z" transform="translate(-110.01 -118.42)"/><path class="cls-4" d="M206.77,159.59h20.61a1.71,1.71,0,0,1,.71.15,1.89,1.89,0,0,1,1,1.08,2,2,0,0,1,.15.76v7a2,2,0,0,1-.15.77,1.75,1.75,0,0,1-.39.64,1.83,1.83,0,0,1-.6.44,1.71,1.71,0,0,1-.71.15H206.77a1.71,1.71,0,0,1-.71-.15,2,2,0,0,1-1-1.08,2.19,2.19,0,0,1-.14-.77v-7a2.18,2.18,0,0,1,.14-.76,1.87,1.87,0,0,1,.4-.65,1.79,1.79,0,0,1,.6-.43A1.71,1.71,0,0,1,206.77,159.59Z" transform="translate(-110.01 -118.42)"/><path class="cls-4" d="M211.59,164.91,214.35,137h3.7l4.51,28.14Z" transform="translate(-110.01 -118.42)"/><g class="cls-8"><path class="cls-4" d="M220.77,136.94a5,5,0,0,1-.08.94,5.22,5.22,0,0,1-.25.88,4.31,4.31,0,0,1-.42.83,4.31,4.31,0,0,1-1.22,1.33,4.93,4.93,0,0,1-.77.44,4.56,4.56,0,0,1-.81.28,4.26,4.26,0,0,1-.86.09,4.31,4.31,0,0,1-.88-.09,4.86,4.86,0,0,1-.81-.28,5.31,5.31,0,0,1-.81-.44,5.42,5.42,0,0,1-.67-.6,4.88,4.88,0,0,1-.56-.73,6.4,6.4,0,0,1-.41-.83,5.22,5.22,0,0,1-.25-.88,5,5,0,0,1-.09-.94A4.81,4.81,0,0,1,212,136a5,5,0,0,1,.25-.88,6.52,6.52,0,0,1,.41-.84,5.65,5.65,0,0,1,.56-.73,5.42,5.42,0,0,1,.67-.6,5.31,5.31,0,0,1,.81-.44,4.06,4.06,0,0,1,.81-.27,3.83,3.83,0,0,1,1.74,0,4.27,4.27,0,0,1,1.62.71,5,5,0,0,1,.69.6,5.51,5.51,0,0,1,.54.73,5,5,0,0,1,.67,1.76A4.39,4.39,0,0,1,220.77,136.94Z" transform="translate(-110.01 -118.42)"/></g><path class="cls-5" d="M219.1,133.18a5.24,5.24,0,0,1,.36,3.2,5,5,0,0,1-.57,1.5,4.43,4.43,0,0,1-2.32,2,3.8,3.8,0,0,1-1.48.27,4.23,4.23,0,0,1-1.49-.28,4.55,4.55,0,0,1-1.31-.81,4.94,4.94,0,0,0,.54.88,4.15,4.15,0,0,0,.7.75,4.52,4.52,0,0,0,.82.55,3.87,3.87,0,0,0,.93.35,5.47,5.47,0,0,0,1,.12,4.63,4.63,0,0,0,1-.14,3.26,3.26,0,0,0,.94-.36,4,4,0,0,0,.81-.56,4.83,4.83,0,0,0,1.23-1.66,5.06,5.06,0,0,0,.32-1,5.49,5.49,0,0,0,.13-1.07,5.37,5.37,0,0,0-.11-1.06,5,5,0,0,0-.32-1,4.53,4.53,0,0,0-.52-.88A4.8,4.8,0,0,0,219.1,133.18Z" transform="translate(-110.01 -118.42)"/><path class="cls-5" d="M170.34,248.77h93.54l12-16.63H158.3Z" transform="translate(-110.01 -118.42)"/><path class="cls-5" d="M229.23,165.3a1.16,1.16,0,0,1-.92,1.29H218a1.16,1.16,0,0,1-.93-1.29v-4.44a1.17,1.17,0,0,1,.93-1.29h10.31a1.15,1.15,0,0,1,.92,1.29Z" transform="translate(-110.01 -118.42)"/><path class="cls-9" d="M198.66,173.75c-1.5-3.09-8.28-1.32-10.5-.19A30.69,30.69,0,0,0,181,178.7a25.32,25.32,0,0,0-4.43,5c-1.07,1.55-3.09,4.76-1.79,6.81,1.42,2.24,3.82.29,5-1,3.1-3.37,5.49-7,9.7-9.05C191.56,179.41,200.44,177.41,198.66,173.75Z" transform="translate(-110.01 -118.42)"/><path class="cls-9" d="M214.53,134.18c-2.1.54-1.3,5.27,1.29,2.73C217.87,134.88,215.72,133.61,214.53,134.18Z" transform="translate(-110.01 -118.42)"/><path class="cls-4" d="M280.84,286.46l-18.29-34.09h-91l-18.28,34.09a118.62,118.62,0,0,0,5.2,27.21c6.77,19.95,13.23,27.95,13.23,27.95L194.13,351l22.77,2.26v0h.41v0L240.08,351l22.38-9.35a106.75,106.75,0,0,0,13.23-27.95A146.44,146.44,0,0,0,280.84,286.46Z" transform="translate(-110.01 -118.42)"/><path class="cls-5" d="M262.55,252.37H241l18.27,34.09a146.37,146.37,0,0,1-5.17,27.21c-5.12,16.63-7.42,23.26-13.24,27.95C236.07,345.5,218.5,351,218.5,351l-12.2,1.21,10.58,1.05v0h.4v0L240.06,351l22.37-9.35a106.46,106.46,0,0,0,13.24-27.95,146.46,146.46,0,0,0,5.19-27.2Z" transform="translate(-110.01 -118.42)"/><path class="cls-5" d="M153.31,286.46H280.84l-5,10.23Z" transform="translate(-110.01 -118.42)"/><path class="cls-9" d="M178.92,309.09c-.37-5,2.75-11.77-2.44-14.39-2.68-1.34-7.22-1.89-9.3,1a7,7,0,0,0-1.22,3.78c-.75,3.52,1,8.7,1.83,11.88,1,3.72,4.32,16.82,10.48,13.25C182.45,322.15,179.18,312.74,178.92,309.09Z" transform="translate(-110.01 -118.42)"/><path class="cls-9" d="M185.62,259.51c-2.78-4.29-6.67-2.85-9.45.25-6.19,4.07-12.75,20.69-3.4,22.32,5.38.94,7-6.16,8.86-10C183.31,268.54,188.34,263.68,185.62,259.51Z" transform="translate(-110.01 -118.42)"/><path class="cls-4" d="M267.86,252.37s40-26.89,47.69-26.89,4.62,15-7.69,31.33a156.22,156.22,0,0,1-23.69,25.34Z" transform="translate(-110.01 -118.42)"/><path class="cls-5" d="M315.55,225.48a10.51,10.51,0,0,0-3.2.75c-.22,5.85-4.3,15.4-11.87,25.5a164.79,164.79,0,0,1-20.58,22.64l4.26,7.81a155.44,155.44,0,0,0,23.69-25.35C320.17,240.46,323.26,225.48,315.55,225.48Z" transform="translate(-110.01 -118.42)"/><path class="cls-4" d="M168.1,252.37s-49.77-8.69-55.89-5.94,1,14.57,15.85,24.27c14.45,9.41,22.85,12,22.85,12Z" transform="translate(-110.01 -118.42)"/><path class="cls-5" d="M112.21,246.43a8.31,8.31,0,0,1,2.78-.49c2,5,8.2,11.74,17.37,17.71,9.9,6.46,17.44,10.18,24.32,8.85l-5.78,10.18s-8.4-2.57-22.84-12C113.18,261,106.09,249.19,112.21,246.43Z" transform="translate(-110.01 -118.42)"/><path class="cls-9" d="M135,252.47c-1.41-2.44-6.42-3.89-8.76-3.75a3.15,3.15,0,0,0-2.44,1.14c-1.11.76-1,1.76-.2,2.7a3.39,3.39,0,0,0,.93,1.21,2.85,2.85,0,0,0,1.33.64h0C130.38,257.08,138.54,258.55,135,252.47Z" transform="translate(-110.01 -118.42)"/><path class="cls-9" d="M307,231.73c-1.05-.74-4.11.94-5,1.4-1.45.77-5.2,3.32-6,5.75-.87,1.29-1,2.54.42,3.3,2.17,1.17,8.21-4.12,9.52-5.87C306.75,235.23,308.39,232.75,307,231.73Z" transform="translate(-110.01 -118.42)"/><path class="cls-4" d="M171.49,344.56s8.13,22.87,14.92,23.66,7-15,7-15Z" transform="translate(-110.01 -118.42)"/><path class="cls-5" d="M187.94,351c-.08,2.23-.7,13.07-5.49,14.44,1.39,1.58,2.83,2.64,4.19,2.78,6.8.75,7-14.95,7-14.95Z" transform="translate(-110.01 -118.42)"/><path class="cls-4" d="M242.33,353.27s10.38,17.27,23.76,13.66c5.6-1.51-3.25-22.37-3.25-22.37Z" transform="translate(-110.01 -118.42)"/><path class="cls-5" d="M262.88,344.56l-5.57,2.37c2.24,6.1,5.79,17.4,1.72,18.47a13.73,13.73,0,0,1-3.25.48,14.93,14.93,0,0,0,10.3,1C271.7,365.42,262.88,344.56,262.88,344.56Z" transform="translate(-110.01 -118.42)"/><path class="cls-10" d="M229.26,213.38a.64.64,0,0,0-.53.21.77.77,0,0,0-.22.54c0,.06-.13,3.52-2.19,5.39s-5.52,2.34-7.26,2.33-5.29-.58-7.25-2.33-2.19-5.33-2.19-5.39a.75.75,0,0,0-.24-.51.66.66,0,0,0-.51-.2.73.73,0,0,0-.49.23.84.84,0,0,0-.21.53c0,.17.14,4.25,2.71,6.54a12,12,0,0,0,7.84,2.7c2.17,0,5.89-.35,8.52-2.7s2.71-6.37,2.71-6.54a.8.8,0,0,0-.2-.56A.63.63,0,0,0,229.26,213.38Z" transform="translate(-110.01 -118.42)"/><path class="cls-10" d="M203.12,206.74a1,1,0,0,1-.72-.33,1.11,1.11,0,0,1-.31-.78,6.22,6.22,0,0,0-.81-2.64c-1-1.69-2.73-2.54-5.17-2.54h-.05a5.87,5.87,0,0,0-6,5,1.07,1.07,0,0,1-.4.74,1,1,0,0,1-.77.21,1,1,0,0,1-.68-.44,1.13,1.13,0,0,1-.2-.82,8,8,0,0,1,8.07-6.93h.06c7.86,0,8,7.37,8,7.44a1.07,1.07,0,0,1-1,1.13h0Z" transform="translate(-110.01 -118.42)"/><path class="cls-10" d="M245.17,206.74a1,1,0,0,1-.72-.33,1.11,1.11,0,0,1-.31-.78,6.22,6.22,0,0,0-.81-2.64c-1-1.69-2.73-2.54-5.17-2.54h0a5.84,5.84,0,0,0-6,5,1.12,1.12,0,0,1-.41.74.94.94,0,0,1-.77.21,1,1,0,0,1-.68-.44,1.08,1.08,0,0,1-.19-.82,8,8,0,0,1,8.06-6.92h.06c7.86,0,8,7.36,8,7.44a1.21,1.21,0,0,1-.29.8,1,1,0,0,1-.74.33Z" transform="translate(-110.01 -118.42)"/><g class="cls-11"><g class="cls-12"><g class="cls-12"><path class="cls-13" d="M389.25,161.42c-15.08-8.8-28.42-30-33.3-26.79-6.41,3.71-13.82,4.93-21,4.82,1.63-8.48,1-5.84,3.25-7.74,3.19-1.83,4.07-6.72,2.13-9.91-3.59-6.23-12.34-3.13-12.43,3.52-.24,2.38,1.19,4.33,2.44,6.16a51.07,51.07,0,0,1-1.1,6.62,46.44,46.44,0,0,1-15.3-11c-1.37-1.43-2.28-4-4.55-3.8-7.91.18-22.31,9.21-37.1,10.84-4.27.59-8.53-.72-12.8-.45l-.1.52a26.31,26.31,0,0,0,13.91,3.88c1.18,1.65-.51,3.21,10.22,2.05,1.57,2.64,4.65,1.76,7.08,1.68,1.33-.21,2.44.77,3.61,1.25,1.58.88,3.41.5,5.1.72,1.47.43,2.85,1.24,4.38,1.42a31.64,31.64,0,0,0,4.83-.3c1.39.49,2.7,1.43,4.23,1.47a24.14,24.14,0,0,0,4.61-.82c3.05.53,2.14,2.71,10.67-.88-2.44,13.39-4.82,26.8-7.37,40.17-10.05-7.3-24.15-11.87-25.35-17-.16-3.69,3.32-6.16,6.41-6.53,3.4,0,6.67,1.35,10.06,1.47,3.58.12,5.24-.77,8.94-3a.55.55,0,0,0,.21-.71,1.09,1.09,0,0,0-.13-.17c-4.07-3.63-4.12-1-10.93-6.3-1.41-1.1-3.66.88-6.57,1.58-3.89,1-7.9,2.43-10.78,5.56-3.07,3.26-3.57,8.7-1.63,12.77,3.55,7.44,14.07,11.2,23.69,16.47a31.88,31.88,0,0,0-5.23,3.44,21,21,0,0,0-7.11,15c.06,5.63,4.07,9.88,7.67,13.41-3.49,1.52-7.05,3.38-9.45,6.62-7,9.79-.26,16,6.88,24.57-3.48,3.1-8.68,8.49-7.23,13.19,1.85-3.87,1.22-5.62,7.62-9.83-.71,4.3-1.52,8.59-2.34,12.87l2.34.55c.88-4.31,1.75-8.61,2.69-12.9,4.42,7,2.94,7.86,3.3,12.31A6,6,0,0,0,315,265c.37-4.22-1.22-8.25-3-11.9,9-4.16,16.69-6.83,16-16.59-.21-5.17-3.3-9.44-6.5-13,9.48-3.21,13.92-7.27,13.24-18.17-.32-4.89-2.69-9.27-5.52-13,7.84-.45,15.92.39,23.53-2.11,6.68-2.09,14.44-12.7.19-24.39-1.63-1.25-2.82-3.52-4.69-4.4-1.63-.76-3.26.8-6.09.53-3.75-.36-9-1-7.42,1.26,1.36,2,3,4.4,5.09,5.54,3.38,1.85,7.2,2.29,10.76,3.56,3.06,1.32,5.58,5.1,4.41,8.7-2.14,4.74-17,2.63-29.76,4.87,2.68-13.34,5.63-26.62,8.35-40,6.22,6.81,6.13,4.79,9.42,5.53,1.29,1,2.44,2.23,3.91,2.8s3,.38,4.45.56a29.81,29.81,0,0,0,4.24,2.35,28.23,28.23,0,0,0,4.61.64c1.63.59,3.12,1.69,4.88,1.59,1.25.08,2.63-.31,3.77.45,2.18,1.13,4.67,3.29,7.07,1.56,8.58,5.57,8.67,3.75,10.13,2.64a29.45,29.45,0,0,0,14.16,2.74l.12-.59C396.82,164,392.72,163.54,389.25,161.42Zm-79.45-5a1.53,1.53,0,0,1-1.9,1.14,1.68,1.68,0,0,1-1.11-1.83,1.53,1.53,0,0,1,1.9-1.15A1.69,1.69,0,0,1,309.8,156.38ZM308.32,208c-.14-6.68,4.88-12.37,10.67-14-1.44,7.74-2.79,15.49-4.24,23.23C312.11,214.71,308.93,212,308.32,208Zm-5.7,30.07c-1.13-2.21-.11-4.82,1.21-6.62,2.31-3,5.9-4.26,9.2-5.53-1.08,7.49-2.71,14.89-4,22.34a65,65,0,0,1-6.46-10.19ZM346,166.39a1.65,1.65,0,0,1-1.18-2,1.54,1.54,0,0,1,1.81-1.27h0a1.65,1.65,0,0,1,1.18,2,1.53,1.53,0,0,1-1.82,1.27h0Zm-22.84,70.36c.64,5.28-1.5,6.16-11.33,12.19,1.63-7.4,3.08-14.84,4.74-22.23,2.77,2.84,5.88,5.85,6.58,10.08ZM327.88,212c-1.89,3.74-6.1,4.79-9.58,6.06q2.44-11.58,4.92-23.16c4.53,4.07,7,11.1,4.66,17.14Z" transform="translate(-110.01 -118.42)"/></g></g></g></svg>