<svg id="Capa_1" data-name="Capa 1" xmlns="http://www.w3.org/2000/svg" viewBox="0 0 302.73 376.62"><defs><style>.cls-1{fill:#1e1e1c;}.cls-2{fill:none;stroke:#1e1e1c;stroke-miterlimit:10;stroke-width:3px;}</style></defs><title>icon-javeriana-2</title><path class="cls-1" d="M284.82,314.75c.34,0,1.05.05,1.11.33a1,1,0,0,1-.18.63,30.23,30.23,0,0,1-2.59,3.35,1.23,1.23,0,0,1-.7.35c-.23,0-.25-.29-.1-.69.32-.84,1.34-2.89,1.72-3.57a.94.94,0,0,1,.74-.4M283.68,328a.6.6,0,0,0,.22-.42,15.77,15.77,0,0,0,.1-2c0-.1-.1-.24-.17-.24a7,7,0,0,0-2.08.58.85.85,0,0,0-.46.9,1.48,1.48,0,0,0,1.41,1.44,2.65,2.65,0,0,0,1-.28m2.4-6.54a2.76,2.76,0,0,1,.57,1.93c0,.87-.1,3.54-.1,3.79a.88.88,0,0,0,.94.89,7.58,7.58,0,0,0,.9-.26c.08-.05.09,0,.15,0a.81.81,0,0,1,.07.32c0,.43-1.2,1.52-2.63,1.52a1.88,1.88,0,0,1-1.92-1.07c0-.08-.18-.14-.24-.08a13.69,13.69,0,0,1-2,.93,4.86,4.86,0,0,1-1.12.18,2.24,2.24,0,0,1-2-2.27,1.85,1.85,0,0,1,.47-1.13,2.16,2.16,0,0,1,.92-.55c.55-.19,2.9-.76,3.48-.92.31-.08.45-.24.45-.33s.08-1.44.06-1.73a1.65,1.65,0,0,0-1.72-1.43,1.59,1.59,0,0,0-.81.16c-.11,0-.17.27-.17,1a.22.22,0,0,1-.09.19,14.74,14.74,0,0,1-2.25.91.39.39,0,0,1-.34-.32c0-.65.56-1.25,2.16-2.15a7.16,7.16,0,0,1,2.55-.83,3.1,3.1,0,0,1,2.68,1.21m-9.61-1c.1,0,.39.09.39.25a8.93,8.93,0,0,1,.08.91c0,.22-.49.27-.67.27h-2.44a.28.28,0,0,0-.25.16c0,1.13,0,3.21,0,4.53a1.18,1.18,0,0,0,.41,1,2.39,2.39,0,0,0,1.25.38,3.87,3.87,0,0,0,1.14-.3.9.9,0,0,1,.42-.17c.09,0,.19.11.19.36s-.26.49-.41.65a4.37,4.37,0,0,1-2.92,1.05,3.2,3.2,0,0,1-2.39-1,2,2,0,0,1-.47-1.58c0-.82.12-4.08.12-4.86,0-.16-.45-.31-1-.49a.43.43,0,0,1-.31-.39.2.2,0,0,1,.11-.19,15.31,15.31,0,0,0,2.7-1.79c.3-.32.49-.5.59-.5s.51.22.51.39v1.11a.28.28,0,0,0,.22.2c.59,0,2.63-.07,2.73-.07m-16,1a3.62,3.62,0,0,0-1.06,2.93,7.15,7.15,0,0,0,.31,2.15,3.12,3.12,0,0,0,2.79,2.33,1.8,1.8,0,0,0,1.13-.57,4.89,4.89,0,0,0,.94-3.06,5.78,5.78,0,0,0-1-3.4,2.6,2.6,0,0,0-1.85-.89,2,2,0,0,0-1.24.51m7.13,3.42a4.55,4.55,0,0,1-2.28,3.81,6.78,6.78,0,0,1-3.53.92,6.5,6.5,0,0,1-3.53-1.17,4.54,4.54,0,0,1-1.92-3.45,4.21,4.21,0,0,1,1.76-3.46,6.9,6.9,0,0,1,4.1-1.3c2.57,0,5.4,1.74,5.4,4.65m-19.69-3.65a2.78,2.78,0,0,0-.59,1.91c0,1.42.82,2.89,2.05,2.89a1.74,1.74,0,0,0,.79-.34,3.3,3.3,0,0,0,.69-2.27,3.82,3.82,0,0,0-.55-1.83,1.83,1.83,0,0,0-1.39-.83,1.31,1.31,0,0,0-1,.47M251.73,334a2,2,0,0,0,1.16-1.77,1.61,1.61,0,0,0-.43-1.09,2.34,2.34,0,0,0-1.44-.58,16.69,16.69,0,0,0-2.66-.12,2.56,2.56,0,0,0-1.23.26,1.93,1.93,0,0,0-.76,1.45,1.89,1.89,0,0,0,.89,1.57,4.39,4.39,0,0,0,2.49.66,4.89,4.89,0,0,0,2-.38m-.15-13.5c.29.07.51.14.7.17.59,0,2.45.08,2.89.14a.3.3,0,0,1,.25.27,1.41,1.41,0,0,1-.55.86c-.16,0-.88,0-1.49-.06-.12,0-.18.15-.15.19a3.73,3.73,0,0,1,.15,1,3.16,3.16,0,0,1-1.45,2.8,6.05,6.05,0,0,1-3.11.85c-.16,0-.77,0-1-.05s-.29,0-.36.05-.49.4-.49.58c0,.42.65.81,1,.83,1.13,0,4.07.12,4.82.2a3.85,3.85,0,0,1,1.3.54,2.69,2.69,0,0,1,1.11,2.06c0,1.82-1.62,3-2.64,3.58a8,8,0,0,1-3.9,1,6.1,6.1,0,0,1-3.22-.77,2.55,2.55,0,0,1-1.36-2,1.4,1.4,0,0,1,.8-1.32c.52-.29,1.3-.72,1.63-.92.08-.05.1-.11,0-.16a5.12,5.12,0,0,1-1-.43,2,2,0,0,1-1-1.77.5.5,0,0,1,.18-.27,14.23,14.23,0,0,0,2.08-1.26s0-.16-.06-.23a3.23,3.23,0,0,1-2.07-2.83,3,3,0,0,1,1.54-2.53,5.7,5.7,0,0,1,3.1-.79,9,9,0,0,1,2.42.32m-16.63,1a3.65,3.65,0,0,0-1,2.93,6.85,6.85,0,0,0,.31,2.15,3.09,3.09,0,0,0,2.79,2.33,1.83,1.83,0,0,0,1.12-.57,4.77,4.77,0,0,0,.95-3.06,5.71,5.71,0,0,0-1-3.4,2.6,2.6,0,0,0-1.85-.89,2,2,0,0,0-1.25.51m7.15,3.42a4.58,4.58,0,0,1-2.28,3.81,6.85,6.85,0,0,1-3.53.92,6.48,6.48,0,0,1-3.54-1.17,4.58,4.58,0,0,1-1.93-3.45,4.25,4.25,0,0,1,1.77-3.46,6.93,6.93,0,0,1,4.1-1.3c2.56,0,5.41,1.74,5.41,4.65m-18.94-2.39a5,5,0,0,0-2.2-.43,2.06,2.06,0,0,0-.87.16c-.08.07-.22.18-.22,1,0,.59.06,3.27.12,4a1.37,1.37,0,0,0,.34.71,2.88,2.88,0,0,0,1.62.76,3.26,3.26,0,0,0,3.12-3.29,3.19,3.19,0,0,0-1.91-2.91m-2.08-6.68a6.84,6.84,0,0,0-.89.14.74.74,0,0,0-.24.35c0,.37-.09,1-.09,4.78a.32.32,0,0,0,.27.29,7,7,0,0,0,3-.54,2.48,2.48,0,0,0,1.23-2.13c0-1.85-1.45-2.89-3.29-2.89m4.26,5.49c-.08,0-.05.2,0,.2,1.77.65,3.07,1.76,3.07,3.69a3.8,3.8,0,0,1-2.19,3.25,10.64,10.64,0,0,1-4.58,1l-4.69-.06c-.92,0-1.55,0-1.95,0s-.82-.15-.82-.36.43-.34.72-.39c1.56-.26,1.66-.6,1.77-1.36.05-.48.2-2.72.2-7.14a19.89,19.89,0,0,0-.16-3.36c-.12-.49-.27-.68-1.61-.89-.34-.06-.67-.19-.67-.44s.39-.29.71-.29h1.7c.83,0,3.95-.15,5-.15a8.44,8.44,0,0,1,3.69.67,3,3,0,0,1,1.79,2.76,3.34,3.34,0,0,1-2,2.87M354.22,180.6a.87.87,0,0,0-.93-.57s-3.31.37-8.6.37c-3.59,0-7.22-.17-10.83-.49a30.11,30.11,0,0,0,6.86-6.28c7.48-4.62,9.44-11.64,9-16.67a1,1,0,0,0,0-.25V127.36a.89.89,0,0,0-.16-.52,15.81,15.81,0,0,0-1.41-1.77c.26-.49.54-1,.82-1.59,3.52-7.64,1.91-17.23-.05-23.92a.86.86,0,0,0-.92-.64.9.9,0,0,0-.8.8,45.35,45.35,0,0,1-2.05,7.75c-.73-6.12-3.27-12.71-7.57-19.61a.86.86,0,0,0-1.1-.33.91.91,0,0,0-.49,1.09,28.59,28.59,0,0,1,.78,5.85,60.87,60.87,0,0,1-1.66,16.42c-.13.54-.22,1-.31,1.54-2.3-5-2.29-6.83-2.29-6.85a.9.9,0,0,0-.66-.94.88.88,0,0,0-1,.48c-3.93,8.53-2.47,14.57-.3,18.31a11.51,11.51,0,0,0-1.82,1.53.9.9,0,0,0-.22.42,35.39,35.39,0,0,1-4-12.72,19.25,19.25,0,0,1,.16-6,1,1,0,0,0-.6-1.1.87.87,0,0,0-1.1.52c-2,5-3.71,11.33-3.39,17.71a30.49,30.49,0,0,0-7.24-3.49.87.87,0,0,0-1.06.46.93.93,0,0,0,.25,1.16,12.19,12.19,0,0,1,2.57,3,30.13,30.13,0,0,1,4.11,10.76,17.1,17.1,0,0,0,.52,1.94,20.5,20.5,0,0,1-5.46-7,.87.87,0,0,0-1-.54.88.88,0,0,0-.74.85,26.75,26.75,0,0,0,1,9.44,60.16,60.16,0,0,0-6.22-4.05,18.25,18.25,0,0,0,2.2-.69.92.92,0,0,0,.5-1.18,15.1,15.1,0,0,0-1.43-3,14.65,14.65,0,0,0,3.16-1.83,1,1,0,0,0,.19-1.28,11.4,11.4,0,0,0-3.26-3.29,6.68,6.68,0,0,0-.57-7.25,5.46,5.46,0,0,0-4.48-2.13,8,8,0,0,0-3.69,1,8,8,0,0,0-1.39-4.47,9.59,9.59,0,0,0-7.13-4l-.71,0c-4,0-7.07,2.61-8.63,7.29a3.72,3.72,0,0,0-.9-.6,3.3,3.3,0,0,0-1.41-.32h-.1a3.11,3.11,0,0,0-.19-.8,3.44,3.44,0,0,0-1.85-2,3.27,3.27,0,0,0-1.41-.32,3.32,3.32,0,0,0-1.95.64,3.34,3.34,0,0,0-1.23-1,3.3,3.3,0,0,0-1.41-.32,3.39,3.39,0,0,0-1.14.21,6.76,6.76,0,0,0-.68-1.1c.73.14,1.47.23,2.24.3h.06a.39.39,0,0,0,.15,0c.45,0,1.13,0,1.95,0,3.43,0,9.79-.39,13.83-3s6.25-7.34,7.53-12.2l1.9,4.43a.84.84,0,0,0,.5.48.72.72,0,0,0,.67,0l1.12-.51,1,2.28-1.12.51a.94.94,0,0,0-.45,1.21l2.48,5.8a.88.88,0,0,0,.8.56.82.82,0,0,0,.37-.1l11.54-5.3a.81.81,0,0,0,.46-.51,1,1,0,0,0,0-.7l-2.47-5.79a.88.88,0,0,0-1.17-.47l-1.13.52-1-2.31,1.12-.52a.94.94,0,0,0,.46-.5.92.92,0,0,0,0-.71l-.5-1.15,2.23-1,.51,1.18a.9.9,0,0,0,1.17.48l1.11-.53,1,2.28-1.13.52a.89.89,0,0,0-.46.51.94.94,0,0,0,0,.7l2.49,5.79a.85.85,0,0,0,1.15.48l11.54-5.3a.91.91,0,0,0,.47-.51,1,1,0,0,0,0-.71l-2.49-5.79a.89.89,0,0,0-.49-.48.81.81,0,0,0-.68,0l-1.12.51-1-2.32,1.11-.51a.92.92,0,0,0,.45-1.21l-1.84-4.33a3.38,3.38,0,0,0,1.78.54,3.59,3.59,0,0,0,1.42-.32,3.55,3.55,0,0,0,1.84-2,6,6,0,0,0,.2-.81h.1a3.47,3.47,0,0,0,1.41-.3A3.65,3.65,0,0,0,332,76a4.54,4.54,0,0,0,1.72-5.62,4.23,4.23,0,0,0-3.88-2.62,3.77,3.77,0,0,0-1.3.21,3.43,3.43,0,0,0-2.13-.77,3.35,3.35,0,0,0-1.42.32,3.51,3.51,0,0,0-1.23,1,3.36,3.36,0,0,0-3.37-.32,3.58,3.58,0,0,0-1.83,2,3.66,3.66,0,0,0-.17,1.88L297,82c.7-4.7,1.58-10.31,2.31-13.21h.51c.32,0,.62,0,.93,0a2.89,2.89,0,0,1,1.68.64l.13.1a6.59,6.59,0,0,0,3.76,1.34,5.22,5.22,0,0,0,4.06-2.08,1,1,0,0,0,0-1,.86.86,0,0,0-.86-.45l-.43,0a3.05,3.05,0,0,1-1.83-.64,9,9,0,0,0,2.17.27h0a5,5,0,0,0,3.95-1.51,1,1,0,0,0,.14-1,.93.93,0,0,0-.78-.55,4.41,4.41,0,0,1-1.87-.5,7.46,7.46,0,0,0,1.33.11,5.86,5.86,0,0,0,4.61-2,.89.89,0,0,0,.07-1,.88.88,0,0,0-.87-.48,6.12,6.12,0,0,1-.91.08c-1.41,0-2.11-.55-3.49-1.61l-1-.74a8.78,8.78,0,0,0-2.2-1.17h0l-.23,0a6.81,6.81,0,0,0-1.91-.35,22.9,22.9,0,0,0-2.79-.24H301.2l-.39,0-.26,0-.37,0H300l-.45.07h-.11l-.55.07-.14,0-.38.08-.19,0-.31.08-.21.05-.29.08a.89.89,0,0,0-.2.06l-.28.08-.19.07a1.58,1.58,0,0,0-.26.09l-.21.07c-.09,0-.17.08-.27.11l-.2.08-.28.11-.18.08-.32.14-.15.07c-.16.08-.31.16-.48.23-8.19,4-9,17.76-10.28,24.55-.26,1.45-.55,2.81-.84,4.09-.19.75-.36,1.47-.53,2.15L267.1,95.78a13.17,13.17,0,0,1-2.94-5.34l.69.19s0,0,0,0l.22,0a.55.55,0,0,0,.18,0l.11,0A3,3,0,0,0,267.15,89a4.52,4.52,0,0,0,0-3,27.42,27.42,0,0,1,3.26-5.4,1,1,0,0,0,.1-1,.85.85,0,0,0-.85-.47,2.48,2.48,0,0,0-.9.23c.87-1.88,1.65-3.77,2.33-5.63h.09a.9.9,0,0,0,.41-.11.89.89,0,0,0,.43-.54,42.57,42.57,0,0,1,3.72-8,1,1,0,0,0-.09-1.1.85.85,0,0,0-1-.21,3.94,3.94,0,0,0-.77.47A60.85,60.85,0,0,0,275,56.56a.92.92,0,0,0,.43-.18.86.86,0,0,0,.36-.67c.22-3.74,2.54-8.41,2.55-8.45a.94.94,0,0,0-.07-1,.89.89,0,0,0-.9-.35,3,3,0,0,0-2.08,1.92,2.72,2.72,0,0,0-.42.15c-.08-.56-.19-1.06-.29-1.51-2.18-8.24-10-14-20-15a4.41,4.41,0,0,0,1-2.77,4.27,4.27,0,0,0-3-4.12V20.93h2.06V18.57h-2.06v-2h-2.27v2h-2.06v2.36h2.06v3.65a4.27,4.27,0,0,0-3,4.12,4.41,4.41,0,0,0,1,2.77c-10,1-17.8,6.78-20,15-.12.46-.23,1-.32,1.51a2.88,2.88,0,0,0-.4-.15,3,3,0,0,0-2.1-1.92.91.91,0,0,0-.89.35.94.94,0,0,0-.07,1s2.33,4.7,2.56,8.45a1,1,0,0,0,.35.68,1,1,0,0,0,.42.17c.17,2,.45,4.08.85,6.21.08.46.19,1,.3,1.46a7.23,7.23,0,0,0-.76-.46.85.85,0,0,0-1,.21.94.94,0,0,0-.1,1.09,46,46,0,0,1,3.64,7.81.36.36,0,0,0,0,.14.87.87,0,0,0,.87.76h.11c.67,1.81,1.43,3.68,2.32,5.62a2.56,2.56,0,0,0-.87-.23.86.86,0,0,0-.85.49.93.93,0,0,0,.09,1,28,28,0,0,1,3.27,5.41,4.43,4.43,0,0,0,0,2.94,3,3,0,0,0,1.76,1.61h.05l.11,0h.21a.61.61,0,0,1,.13,0s0,0,0,0c.29-.08.56-.16.85-.22a13.35,13.35,0,0,1-3,5.42L220.4,88.66c-.17-.72-.36-1.45-.55-2.24-.3-1.27-.57-2.63-.85-4.08-1.31-6.79-2.09-20.53-10.28-24.55l-.47-.23-.16-.07a2.09,2.09,0,0,0-.3-.14l-.18-.08-.3-.12-.19-.07-.27-.11-.2-.07a1.43,1.43,0,0,0-.27-.09.68.68,0,0,0-.2-.07,1.29,1.29,0,0,0-.28-.08l-.19-.07-.3-.08-.18,0a1.67,1.67,0,0,1-.32-.08c-.07,0-.13,0-.19,0a2.57,2.57,0,0,1-.38-.08l-.15,0-.53-.07a.34.34,0,0,0-.13,0l-.46-.06a.78.78,0,0,1-.21,0l-.39,0-.25,0-.38,0a1.23,1.23,0,0,0-.27,0h-2.1a28.91,28.91,0,0,0-2.89.26,8.73,8.73,0,0,0-1.27.21l-.78.17.1,0a8,8,0,0,0-2.12,1.13l-1,.74c-1.39,1.06-2.08,1.61-3.49,1.61a6.13,6.13,0,0,1-.92-.08.94.94,0,0,0-.88.48,1,1,0,0,0,.09,1,5.89,5.89,0,0,0,4.62,2,7.58,7.58,0,0,0,1.32-.11,4.32,4.32,0,0,1-1.89.5.93.93,0,0,0-.63,1.51A5,5,0,0,0,193.72,67a9.62,9.62,0,0,0,2.18-.27,3,3,0,0,1-2.25.61.86.86,0,0,0-.87.45,1,1,0,0,0,0,1,5.23,5.23,0,0,0,4.07,2.08,6.66,6.66,0,0,0,3.75-1.34l.13-.11a3,3,0,0,1,1.69-.63c.31,0,.61,0,.91,0h.38c.76,2.91,1.63,8.57,2.34,13.28L184.53,72a3.66,3.66,0,0,0-.18-1.88,3.6,3.6,0,0,0-1.83-2,3.32,3.32,0,0,0-1.41-.31,3.41,3.41,0,0,0-2,.63,3.36,3.36,0,0,0-1.23-1,3.29,3.29,0,0,0-1.41-.31,3.33,3.33,0,0,0-2.13.77,3.83,3.83,0,0,0-1.29-.21,4.26,4.26,0,0,0-3.9,2.62A4.52,4.52,0,0,0,170.92,76,3.62,3.62,0,0,0,173,79a3.49,3.49,0,0,0,1.42.31h.09a4.49,4.49,0,0,0,.21.8,3.53,3.53,0,0,0,1.83,2,3.47,3.47,0,0,0,1.42.32,3.41,3.41,0,0,0,1.79-.53l-1.86,4.31a1,1,0,0,0,.46,1.21l1.12.51-1,2.33-1.12-.52a.79.79,0,0,0-.67,0,.87.87,0,0,0-.49.49L173.69,96a1,1,0,0,0,0,.71.91.91,0,0,0,.46.5l11.54,5.3a.86.86,0,0,0,1.16-.48l2.48-5.79a1,1,0,0,0,0-.7,1,1,0,0,0-.47-.51l-1.12-.52,1-2.27,1.12.52a.87.87,0,0,0,1.16-.48l.5-1.18,2.23,1-.48,1.16a.94.94,0,0,0,0,.7.84.84,0,0,0,.46.5l1.12.52-1,2.31-1.12-.51a.87.87,0,0,0-1.16.47l-2.49,5.79a1,1,0,0,0,0,.7.88.88,0,0,0,.47.51l11.54,5.3a.91.91,0,0,0,.36.09.89.89,0,0,0,.81-.56l2.47-5.79a.94.94,0,0,0-.44-1.22l-1.13-.51,1-2.28,1.12.52a.85.85,0,0,0,1.15-.47l2-4.63c1.3,4.94,3.44,9.71,7.58,12.41s10.42,3,13.85,3c.82,0,1.49,0,1.95,0l.14,0H232a20.78,20.78,0,0,0,2.08-.28,6.24,6.24,0,0,0-.66,1.08,3.44,3.44,0,0,0-1.15-.21,3.37,3.37,0,0,0-1.41.32,3.42,3.42,0,0,0-1.23,1,3.37,3.37,0,0,0-2-.64,3.27,3.27,0,0,0-1.41.32,3.49,3.49,0,0,0-1.84,2,4.68,4.68,0,0,0-.2.8h-.09a3.34,3.34,0,0,0-1.42.31,3.7,3.7,0,0,0-.89.61c-1.57-4.69-4.6-7.3-8.63-7.3-.23,0-.48,0-.71,0a9.55,9.55,0,0,0-7.12,4,8.1,8.1,0,0,0-1.41,4.47,8,8,0,0,0-3.67-1,5.49,5.49,0,0,0-4.51,2.14,6.76,6.76,0,0,0-.57,7.24,11.6,11.6,0,0,0-3.25,3.29.94.94,0,0,0,.19,1.28,14.49,14.49,0,0,0,3.16,1.83,15.72,15.72,0,0,0-1.45,3,.94.94,0,0,0,.51,1.18,15.27,15.27,0,0,0,2.21.69,58.92,58.92,0,0,0-6.24,4.06,26.76,26.76,0,0,0,1-9.44.93.93,0,0,0-.74-.86.87.87,0,0,0-1,.55,20.45,20.45,0,0,1-5.47,7,15.24,15.24,0,0,0,.51-1.94,30.28,30.28,0,0,1,4.1-10.76,13.56,13.56,0,0,1,2.57-3,.92.92,0,0,0,.27-1.16.85.85,0,0,0-1-.46,29.93,29.93,0,0,0-7.24,3.49c.31-6.38-1.44-12.72-3.41-17.71a.86.86,0,0,0-1.08-.52.92.92,0,0,0-.59,1.08,20.39,20.39,0,0,1,.14,6,34.8,34.8,0,0,1-4,12.72.82.82,0,0,0-.2-.42,13.86,13.86,0,0,0-1.82-1.52c2.16-3.74,3.63-9.79-.32-18.31a.85.85,0,0,0-1-.49.89.89,0,0,0-.65.93s0,1.9-2.29,6.86c-.09-.49-.19-1-.31-1.52-3.21-13.93-.9-22.2-.89-22.29a.91.91,0,0,0-.47-1.09.85.85,0,0,0-1.11.34c-4.31,6.9-6.85,13.48-7.58,19.6a42.54,42.54,0,0,1-2-7.74.9.9,0,0,0-.8-.81.87.87,0,0,0-.92.65c-2,6.69-3.57,16.28-.05,23.92.27.58.55,1.1.83,1.59a16.73,16.73,0,0,0-1.43,1.77,1,1,0,0,0-.14.52v29.35a.82.82,0,0,0,0,.22,16.74,16.74,0,0,0,.83,6.81,18.6,18.6,0,0,0,8.18,9.9,30.21,30.21,0,0,0,6.85,6.26c-3.62.33-7.24.49-10.83.49-5.28,0-8.57-.37-8.61-.37a.87.87,0,0,0-.92.58,1,1,0,0,0,.31,1.08c6.64,4.92,13.09,7.65,19.21,8.14a23.81,23.81,0,0,0-7,10,.94.94,0,0,0,.32,1.13.92.92,0,0,0,.49.16.86.86,0,0,0,.63-.27s2-1.93,10.57-4a13.94,13.94,0,0,0,3.92-1.54,41.69,41.69,0,0,0,7.9,6c8,5,12.18,6.21,12.6,6.32a5.93,5.93,0,0,0,2.08.44,4.08,4.08,0,0,0,1.86-.44,5.54,5.54,0,0,0,2.67-3.35c1.19-3.54-.73-5.53-.81-5.62a.74.74,0,0,0-.29-.18c-2.12-.9-3.47-1.5-5.54-2.59.13-.27.25-.56.4-.85a15.1,15.1,0,0,1,.91-1.49.17.17,0,0,0,.1.06c1.3.68,2.65,1.34,4,2a24.82,24.82,0,0,0,8.26,8.8,22.6,22.6,0,0,0-2.94,1.65,23.32,23.32,0,0,1-12.43,3.57,10.89,10.89,0,0,1-1.16,0,.92.92,0,0,0-.26,1.81,83.92,83.92,0,0,0,16.92,2h0c.66,0,1.3,0,1.94,0a22.1,22.1,0,0,0-3.83,11.06.91.91,0,0,0,.66,1,.78.78,0,0,0,.22,0,.89.89,0,0,0,.8-.53s1.66-3.61,8.35-6.7a35.52,35.52,0,0,0,5.73-3.26,43.08,43.08,0,0,0,13.78,2c2.1,0,4.05-2,5.33-3.72a15.22,15.22,0,0,1-1.58,8,9.44,9.44,0,0,1-3.52-.47c-.38-.11-.78-.22-1.26-.33a.93.93,0,0,0-.23,0,5.71,5.71,0,0,0-3.58,1.49,3.25,3.25,0,0,0,0,4.71h0l.1.08,0,0a.3.3,0,0,0,.1.05l.06,0a12.75,12.75,0,0,0,4.36.73,13.35,13.35,0,0,0,6.08-1.45,14.29,14.29,0,0,0,6.47-6.7,14.24,14.24,0,0,0,6.47,6.7,13.35,13.35,0,0,0,6.08,1.45,12.75,12.75,0,0,0,4.36-.73l.07,0,.07-.05.06,0,.08-.08h0a3.26,3.26,0,0,0,0-4.71,5.67,5.67,0,0,0-3.55-1.49,1,1,0,0,0-.25,0c-.49.11-.87.22-1.26.33a9.66,9.66,0,0,1-3.52.47,15.12,15.12,0,0,1-1.58-8c1.27,1.7,3.24,3.72,5.33,3.72a43.13,43.13,0,0,0,13.71-2,37.11,37.11,0,0,0,5.71,3.23c6.68,3.08,8.33,6.64,8.36,6.71a.88.88,0,0,0,.8.52h0a.89.89,0,0,0,.87-.91.58.58,0,0,0,0-.19,22,22,0,0,0-3.82-11c.63,0,1.27,0,1.94,0a84.68,84.68,0,0,0,16.94-2,.91.91,0,0,0,.7-1,.87.87,0,0,0-.94-.78s-.45,0-1.19,0a23.29,23.29,0,0,1-12.43-3.57,22.83,22.83,0,0,0-2.71-1.53,24.58,24.58,0,0,0,8.17-8.93c1.38-.62,2.73-1.27,4-2,0,0,.06,0,.09,0a11.79,11.79,0,0,1,.91,1.49c.14.29.27.57.41.85-2.09,1.09-3.43,1.68-5.55,2.58a.77.77,0,0,0-.29.19c-.07.08-2,2.06-.82,5.61a5.68,5.68,0,0,0,2.67,3.35,4.11,4.11,0,0,0,1.87.43,5.62,5.62,0,0,0,2.09-.43c.42-.11,4.56-1.31,12.58-6.32a40.52,40.52,0,0,0,7.91-6,13.89,13.89,0,0,0,3.94,1.55c8.41,2,10.49,3.88,10.56,4a.88.88,0,0,0,.62.25h0a.9.9,0,0,0,.87-.91,1,1,0,0,0-.12-.46,23.83,23.83,0,0,0-7-10c6.12-.49,12.56-3.23,19.2-8.14a.93.93,0,0,0,.26-1m-23.56-1c-1.13-.11-2.21-.17-3.23-.17a18.55,18.55,0,0,0-5.47.71,18.49,18.49,0,0,0-3.07-2c1.05-1.51,3.31-3.6,8.05-4a71.78,71.78,0,0,0,12.74-2,25.55,25.55,0,0,1-9,7.49m-36.07,8.31-.14.06h0a5.63,5.63,0,0,0-3.81,4.73c-1.58.55-3.19,1.06-4.85,1.55a6.29,6.29,0,0,0-6.43-3.64h0c-1.27.21-5.19,1-6.44,1.21l-.46.1a91.84,91.84,0,0,1-21,2.28h-.09a91.84,91.84,0,0,1-21-2.28l-.45-.1c-1.26-.25-5.19-1-6.44-1.21h0a6.29,6.29,0,0,0-6.43,3.64c-1.65-.49-3.26-1-4.84-1.55a5.58,5.58,0,0,0-3.76-4.7.52.52,0,0,0-.13-.06l-.08,0c-2.91-1.22-11.75-4.93-17.53-9.88a5.15,5.15,0,0,0-3.14-1c-.17,0-.34,0-.52,0-3.27-4-5-8.29-5-12.66,0-8.52,6.5-16.71,18.32-23.16a5.21,5.21,0,0,0,1.46-.35c.9,2.18,2.5,4.2,5.57,4.42h.37a5.46,5.46,0,0,0,4.27-2.16,8.59,8.59,0,0,0,1.68-3.36,7.35,7.35,0,0,0,5.06,1.94,9.6,9.6,0,0,0,6.67-2.9,8.94,8.94,0,0,0,2.65-6.9,134.62,134.62,0,0,1,46.58,0,9,9,0,0,0,2.66,6.9,9.6,9.6,0,0,0,6.66,2.9,7.39,7.39,0,0,0,5.07-1.94,8.79,8.79,0,0,0,1.68,3.36,5.46,5.46,0,0,0,4.27,2.16h.37c3.07-.21,4.67-2.24,5.56-4.42a5.21,5.21,0,0,0,1.46.35c11.82,6.45,18.32,14.64,18.32,23.16,0,4.37-1.71,8.67-5,12.66-.18,0-.35,0-.53,0a5.14,5.14,0,0,0-3.13,1c-5.79,4.95-14.63,8.66-17.53,9.88m3.32,1.87c-1.72.79-3.52,1.53-5.36,2.22a3,3,0,0,1,.3-.59,2.62,2.62,0,0,1,.34-.48,4.9,4.9,0,0,1,1.81-1.22,7.13,7.13,0,0,1,1.2-.09,11.45,11.45,0,0,1,1.71.16m-13.91,5a114.83,114.83,0,0,1-11.88,2.52,9.84,9.84,0,0,1,4.29-3.68,12.46,12.46,0,0,1,3.17-1.15,4.18,4.18,0,0,1,1.38,0,4.43,4.43,0,0,1,2.62,1.65,6.12,6.12,0,0,1,.42.61m-53.28,2.52a114.83,114.83,0,0,1-11.88-2.52,6.12,6.12,0,0,1,.42-.61,4.44,4.44,0,0,1,2.62-1.65,4.28,4.28,0,0,1,1.4,0,12.93,12.93,0,0,1,3.14,1.15,9.92,9.92,0,0,1,4.3,3.68M210.28,192q-2.76-1-5.36-2.22a10.15,10.15,0,0,1,1.71-.15,6.29,6.29,0,0,1,1.21.09,4.79,4.79,0,0,1,1.79,1.21,3.24,3.24,0,0,1,.36.49,2.1,2.1,0,0,1,.29.58m-1.9-50.43a6,6,0,0,0,3.32-1.25,6.27,6.27,0,0,1-1,1.6,3.84,3.84,0,0,1-2.93,1.53h-.25c-2.36-.17-3.54-1.81-4.25-3.86a.81.81,0,0,0,.06-.13,6.41,6.41,0,0,0,5,2.11m-9.95-2.15a7.11,7.11,0,0,1,1-3,1.59,1.59,0,0,1,1-.37,1.55,1.55,0,0,1,1.25.62,1.7,1.7,0,0,1-.24,2.35,4.54,4.54,0,0,1-2.35.39h-.65m53-13.94a135.8,135.8,0,0,1,24.4,2.17,13.89,13.89,0,0,0-.84,2.44,135.87,135.87,0,0,0-47.14,0,12.36,12.36,0,0,0-.83-2.44,135.58,135.58,0,0,1,24.41-2.17m-22.65,0s0,0,0,0v0h0m8.7-4.72a5.82,5.82,0,0,0,4-.34,6.32,6.32,0,0,0,3.15-3.38l6.78-3.13,6.76,3.13a6.32,6.32,0,0,0,3.15,3.38,5.85,5.85,0,0,0,4,.34,3.4,3.4,0,0,0,1.77,1.9,3.34,3.34,0,0,0,1.41.32l.11,0a5.15,5.15,0,0,0,.2.82,3.2,3.2,0,0,0,.58,1,144,144,0,0,0-36,0,3.74,3.74,0,0,0,.56-1,3.13,3.13,0,0,0,.19-.82l.11,0a3.3,3.3,0,0,0,1.41-.32,3.48,3.48,0,0,0,1.78-1.9m-2-7.41-.63-1.49a4.3,4.3,0,0,1,2.07-2,4.25,4.25,0,0,1,3.19-.15l2.36,5.52.51,1.18a4.5,4.5,0,0,1-2.23,2.37,4.13,4.13,0,0,1-2.85.24l-.48-1.09h0Zm22.91,1.8-4.84-2.24,7.23-3.36Zm4.28-5.47a4.17,4.17,0,0,1,3.16.15,4.34,4.34,0,0,1,2.09,2l-1.61,3.75-1,2.29-.48,1.09a4.12,4.12,0,0,1-2.85-.24,4.39,4.39,0,0,1-2.23-2.37l1-2.31ZM274,125.45v0s0,0,0,0h0m6.51,10.44a8.87,8.87,0,0,0,6.5,2.75h.55a5.71,5.71,0,0,1-3.57,1.22,7.83,7.83,0,0,1-5.44-2.39c-2.37-2.38-2.76-5.48-1.2-9a11.7,11.7,0,0,0,3.16,7.41m-55.11-7.41c1.57,3.49,1.19,6.6-1.2,9a7.75,7.75,0,0,1-5.43,2.39,5.74,5.74,0,0,1-3.58-1.22h.55a8.86,8.86,0,0,0,6.5-2.74,11.7,11.7,0,0,0,3.16-7.41m74,11,.08.13c-.69,2.06-1.9,3.69-4.26,3.86a3.88,3.88,0,0,1-3.19-1.53,6.48,6.48,0,0,1-1-1.6,6,6,0,0,0,3.31,1.25,6.35,6.35,0,0,0,5-2.11m1.7-2.77a1.56,1.56,0,0,1,1.24-.61,1.55,1.55,0,0,1,1,.37,7.2,7.2,0,0,1,1,3h-.65a4.53,4.53,0,0,1-2.36-.39,1.73,1.73,0,0,1-.23-2.36m47-33c1.32,5.88,1.9,13-.74,18.9-.19.42-.4.83-.61,1.22a13.56,13.56,0,0,0-4.72-2.71,16.2,16.2,0,0,1,1.33-4.36,91.54,91.54,0,0,0,4.74-13m-11.34,7.66A61.26,61.26,0,0,0,338.48,93c2.52,4.85,5.29,11.79,5.17,18.68-.52,1.33-1.12,2.75-1.8,4.3a18.76,18.76,0,0,0-1.44,4.75,9.17,9.17,0,0,0-1.3-.08,14.48,14.48,0,0,0-2.52.23c-.57-2-.77-5.07.27-9.52m-5.49-2.77a47.32,47.32,0,0,0,3,7.07,17.48,17.48,0,0,0,.45,5.65,16.16,16.16,0,0,0-2.83,1.23l-.45-.87c-1.85-3.8-1.92-8.19-.2-13.08M330.23,126a13.63,13.63,0,0,1,8.87-3.53c4.77,0,8.14,4.18,8.87,5.19v24.1a13.08,13.08,0,0,0-4.31-4v-.05l-.52-.24a11,11,0,0,0-7.26-1.26,7.38,7.38,0,0,0-1.65.42,9.45,9.45,0,0,0-4,2.8V126ZM336,153.83a.87.87,0,0,0,.81.11,4.06,4.06,0,0,1,2.57.11c2.18.73,2.5,1.95,2.56,2.38v.22c-.07.47-.73,4.08-5.48,4.08a5.93,5.93,0,0,1-6.19-6.14c-.08-4,3.2-5.72,4.61-6.26.22-.08.48-.15.75-.22v5a.88.88,0,0,0,.37.75m3.93-1.53a6.43,6.43,0,0,0-2.54-.34v-4a12.89,12.89,0,0,1,4.55,1v4.42a8,8,0,0,0-2-1m-11.28,3.76a7.59,7.59,0,0,0,7.81,6.49c5.21,0,7-3.74,7.22-5.72h0s0-.17,0-.39v-6.51a10.24,10.24,0,0,1,3.7,4.51,9.75,9.75,0,0,1,.54,2.22,14.75,14.75,0,0,1-.68,6.48,16,16,0,0,1-4.42,6.68s0,0,0,0a.89.89,0,0,0-1-.29s-4.61,2-15,2.83c-.54,0-1,.11-1.51.19a23.89,23.89,0,0,0,1.45-8.17,24.63,24.63,0,0,0-3.27-12.1,22.75,22.75,0,0,0,5,1.46v1.86a.89.89,0,0,0,.14.51m-5.92-43.6a37.61,37.61,0,0,0,5.63,16.23c.05.08.1.16.14.24v5.56a23.66,23.66,0,0,0-7-9.35,34.64,34.64,0,0,1,1.24-12.68m-7.44,10.94a22.15,22.15,0,0,1,12.15,13.28,24.18,24.18,0,0,1,1.07,4.72v2.21a15.34,15.34,0,0,0-4.1-2.51,29,29,0,0,1-2.67-1.37,13.14,13.14,0,0,1-1.75-4.44,31.46,31.46,0,0,0-4.7-11.89m8.45,19.39a11.83,11.83,0,0,1,4.76,3.42v5.62a19.38,19.38,0,0,1-10.86-6,18.53,18.53,0,0,1-4.27-11.55,23.86,23.86,0,0,0,10.37,8.46m-9.69,1a18,18,0,0,0,6.28,6.76A23.66,23.66,0,0,1,325,164.33a22.17,22.17,0,0,1-1.8,8.68,11.25,11.25,0,0,0-3.81,2,20.34,20.34,0,0,0,3.17-10.66c0-8.56-5.9-16.74-16.69-23.28a.94.94,0,0,0,.44-.9c-.05-.38-.13-1.14-.31-2a53.17,53.17,0,0,1,8,5.61m-9.46-9.08a1.53,1.53,0,0,1-.5-.07,1.64,1.64,0,0,1-.84-.93,1.69,1.69,0,0,1,0-1.27,1.61,1.61,0,0,1,1.47-1,1.51,1.51,0,0,1,.65.15,6.53,6.53,0,0,1,1.69,2.6,9.07,9.07,0,0,1-2.5.52m4.44-6a7,7,0,0,1-2.71,1.23h-.08a1.65,1.65,0,0,1-1-.66,1.84,1.84,0,0,1-.29-1.25,1.65,1.65,0,0,1,1.59-1.41h.26a6.58,6.58,0,0,1,2.28,2.08m-6.33-11.17a3.76,3.76,0,0,1,3.1,1.43c1.47,1.94,1.1,3.94.11,5.87l-.14,0a7,7,0,0,0-1.88-5.3,6.06,6.06,0,0,0-3.08-1.72,5.9,5.9,0,0,1,1.89-.32M290.33,110a7.71,7.71,0,0,1,5.8,3.18,6.09,6.09,0,0,1,1.07,3,9,9,0,0,0-6.66-3.65h-.62a10.81,10.81,0,0,0-6.8,2.53c1.46-3.53,3.94-5.33,7.21-5.07M281.85,120a.75.75,0,0,0,.08-.18l0-.1v0a3.24,3.24,0,0,0,.13-.33,8.72,8.72,0,0,1,8.31-4.88,7.78,7.78,0,0,1,6.33,4.31c.29.48.52.89,1.07.89h.08a1.89,1.89,0,0,0,.38,0,6.51,6.51,0,0,1,1-.08,4.49,4.49,0,0,1,3.31,1.35c1.27,1.3,1.52,3,1.23,5.16a3.63,3.63,0,0,0-.72,1.69,3.68,3.68,0,0,0,.34,2.17,3.44,3.44,0,0,0-1.84,1.8,3.72,3.72,0,0,0-.07,2.65,3.45,3.45,0,0,0-1.78,1.18,3.49,3.49,0,0,0-.69,1.68c-1.35,1.65-2.73,2.62-4.53,2.51a4.9,4.9,0,0,1-3.82-2.51,1.76,1.76,0,0,0-.28-.36.89.89,0,0,0-.73-.35,4.23,4.23,0,0,0-.63.09,10.5,10.5,0,0,1-2.05.23,7.14,7.14,0,0,1-5.25-2.22c-2.55-2.59-3.41-7.12-1.94-10,0,0,0,0,0,0v0s0-.08.06-.1l.09-.21Zm-3.41-3.43,0-.1a1.19,1.19,0,0,1,.33,0,1.68,1.68,0,0,1,.69.15,1.74,1.74,0,0,1,.91,1,2,2,0,0,1,0,1.37l-2.12,4.93a1.72,1.72,0,0,1-1.57,1,1.49,1.49,0,0,1-.69-.16,1.56,1.56,0,0,1-.78-.72s0,0,0-.08Zm-4.74-2.2a1.71,1.71,0,0,1,1.56-1.06,1.52,1.52,0,0,1,.7.15,1.74,1.74,0,0,1,.9,1,1.78,1.78,0,0,1,0,1.36l-3.16,7.39a1.69,1.69,0,0,1-1.56,1.06,1.73,1.73,0,0,1-1.6-1.14,1.9,1.9,0,0,1,0-1.37Zm-4.6-.65a1.72,1.72,0,0,1,1.56-1.06,1.53,1.53,0,0,1,.7.16,1.79,1.79,0,0,1,.78.71l-.05.1L268.93,121s0,.07,0,.09a.93.93,0,0,1-.34.05,1.59,1.59,0,0,1-.7-.16,1.81,1.81,0,0,1-.85-2.34Zm1.44-5.38a18.83,18.83,0,0,1-4.64-1.12L277,102c.32,0,.64-.07.94-.12a15.89,15.89,0,0,1-7.42,6.38m52.64-16.42a.89.89,0,0,0,1.17.46l1.11-.52,1.77,4.12-9.93,4.55-1.76-4.11,1.12-.51a.95.95,0,0,0,.44-1.22l-1.69-4a.88.88,0,0,0-1.17-.47l-1.1.53-.52-1.19a.88.88,0,0,0-1.16-.47l-3.85,1.78a1,1,0,0,0-.47.52.85.85,0,0,0,0,.68l.48,1.16-1.1.52A.95.95,0,0,0,306.1,95l1.71,4a.86.86,0,0,0,1.17.46l1.1-.5,1.77,4.11-9.93,4.55-1.76-4.12,1.12-.51a.94.94,0,0,0,.46-1.21l-1.71-4a.87.87,0,0,0-.49-.49.84.84,0,0,0-.66,0l-1.12.52-1.93-4.49,25.27-11.7L323,86.16l-1.11.52a.92.92,0,0,0-.45,1.21Zm6.64-22.31a2.51,2.51,0,0,1,2.27,1.54,2.68,2.68,0,0,1-.52,2.89l-1.9-4.43h.15m-4.13-.4a1.58,1.58,0,0,1,.7-.15,1.69,1.69,0,0,1,1.56,1L330.07,75a1.83,1.83,0,0,1-.87,2.35,1.68,1.68,0,0,1-.69.15,1.22,1.22,0,0,1-.34,0l0-.09L325,70a.41.41,0,0,1-.05-.09,1.89,1.89,0,0,1,.77-.71M320.2,70.8a1.64,1.64,0,0,1,.89-1,1.56,1.56,0,0,1,.7-.16,1.73,1.73,0,0,1,1.57,1l3.15,7.4A1.75,1.75,0,0,1,325,80.63a1.74,1.74,0,0,1-1.56-1.06l-3.16-7.39a1.83,1.83,0,0,1,0-1.38m-1.23,3,2.35,5.49.09.22-26,12c.38-1.92.66-3.81.93-5.54.09-.58.19-1.21.28-1.86ZM305.84,58.37l.34-.29a6.24,6.24,0,0,1,3.46,1.24q.51.38.93.72a10.58,10.58,0,0,0,2.55,1.61,5.22,5.22,0,0,1-.91.08,7.57,7.57,0,0,1-2.68-.54,11,11,0,0,0-2.42-.34c-.87,0-1.09.48-1.13.78a1,1,0,0,0,.63,1.11,7,7,0,0,1,1.62,1.08,11,11,0,0,0,1.87,1.29c-.19,0-.42,0-.65,0h0a9,9,0,0,1-3-.61,9.66,9.66,0,0,0-2.36-.33c-.83,0-1.08.42-1.15.78a1,1,0,0,0,.61,1.09,6,6,0,0,1,1.54,1.16,8.35,8.35,0,0,0,2.31,1.59,3.25,3.25,0,0,1-1.08.19,4.88,4.88,0,0,1-2.76-1l-.12-.09a4.6,4.6,0,0,0-2.56-1l-.61,0a30.45,30.45,0,0,1,4.18-7.34c.54-.5,1-.87,1.43-1.2M285.72,82.78l0-.1c.21-1.08.41-2.32.62-3.65,1.09-7,2.62-16.61,8.69-19.59a14.3,14.3,0,0,1,7.31-1.62l1.15,0h.12c-1.69,1.41-4,3.82-5.79,9.48-.91,2.9-2,10.1-2.86,15.89-.09.58-.18,1.14-.25,1.65l-3-.64.67-3.3-2.76-.59L289,83.63l-3.26-.71a.58.58,0,0,0,0-.14m-.84,4.07c.07-.35.15-.7.23-1l3.26.7-.66,3.29,2.76.6.66-3.28,3.15.68c-1,6.47-2.73,14.32-8.14,17.85-1.5,1-5,2.6-11.89,2.74a19,19,0,0,0,6.56-8.12,88.51,88.51,0,0,0,4.07-13.41m-2.85,4a67.27,67.27,0,0,1-2.59,8l-35,16.22L242,109.39ZM251.43,103l-3.88-1.8a25.66,25.66,0,0,0,3.75-7.51c0-.21.13-.44.19-.72l.2.72a25.29,25.29,0,0,0,3.71,7.46Zm14-6.48-8.34,3.86a23.33,23.33,0,0,1-3.68-7.26,32.23,32.23,0,0,1-.89-4.15,56,56,0,0,1,9.8,1l.07.54,0,.1a14.41,14.41,0,0,0,3,5.91m-14-70.31a2.45,2.45,0,1,1-2.36,2.46,2.42,2.42,0,0,1,2.36-2.46M230,47c1.82-6.85,9.06-13.74,21.2-13.84h.45c12.13.1,19.38,7,21.18,13.84a16.66,16.66,0,0,1,.42,2.4l-.1.17c-.17.34-.43.91-.61,1.3a1.21,1.21,0,0,1-1-.32,3,3,0,0,0,.25-1,3.53,3.53,0,0,0-1.57-3.38s0-.08,0-.12a3.49,3.49,0,0,0-3-3.88,3.43,3.43,0,0,0-3.75,3.11v.11a3.52,3.52,0,0,0-2.27,2.92,5.34,5.34,0,0,0,0,.8,3.4,3.4,0,0,1-2.9-.48,4.83,4.83,0,0,0,.2-1.42,4.57,4.57,0,0,0-2.73-4.24c0-.14,0-.27,0-.41a4.59,4.59,0,0,0-2.94-4.33,4.44,4.44,0,0,0-1.46-.26,4.27,4.27,0,0,0-1.48.26,4.53,4.53,0,0,0-2.59,2.51,5,5,0,0,0-.36,1.81c0,.15,0,.27,0,.41A4.58,4.58,0,0,0,244.43,46a4.52,4.52,0,0,0-.15,1.17,4.43,4.43,0,0,0,.22,1.41,3.41,3.41,0,0,1-2.92.49,2.62,2.62,0,0,0,0-.79,3.48,3.48,0,0,0-2.25-2.93.49.49,0,0,0,0-.12,3.44,3.44,0,0,0-3.73-3.11,3.5,3.5,0,0,0-3,3.9.44.44,0,0,1,0,.1A3.54,3.54,0,0,0,231,49.48a3.63,3.63,0,0,0,.25,1,1.27,1.27,0,0,1-1,.33c-.19-.39-.45-1-.6-1.3a1,1,0,0,0-.11-.17A18.58,18.58,0,0,1,230,47m-1.26,7.57a24.82,24.82,0,0,0-1.24-4.77,1.29,1.29,0,0,1,.61.59l.79,1.71a.93.93,0,0,0,.62.49A3.29,3.29,0,0,0,233,51.36a.93.93,0,0,0,.09-1.22,1.75,1.75,0,0,1-.33-.85,1.68,1.68,0,0,1,1.12-1.79.93.93,0,0,0,.54-.49.91.91,0,0,0,0-.74,2.89,2.89,0,0,1-.11-.47,1.67,1.67,0,0,1,1.43-1.86,1.63,1.63,0,0,1,1.79,1.5,1.43,1.43,0,0,1,0,.46.9.9,0,0,0,.18.73.86.86,0,0,0,.62.35,1.64,1.64,0,0,1,1.48,1.49,2.17,2.17,0,0,1-.12.84.91.91,0,0,0,.33,1.11.46.46,0,0,0,.15.09c1.87.85,4.6.74,6-1.17a1,1,0,0,0,.08-1,2.82,2.82,0,0,1-.25-1.19,3,3,0,0,1,.08-.68,2.72,2.72,0,0,1,2.06-2,.85.85,0,0,0,.59-.42.86.86,0,0,0,.09-.74,2.6,2.6,0,0,1-.11-.79A2.83,2.83,0,0,1,249,41.4a2.64,2.64,0,0,1,2.43-1.66,2.7,2.7,0,0,1,2.66,2.75,3.65,3.65,0,0,1-.1.8.86.86,0,0,0,.09.73.85.85,0,0,0,.59.42,2.75,2.75,0,0,1,2.14,2.71,2.92,2.92,0,0,1-.24,1.15,1,1,0,0,0,.06,1c1.42,1.89,4.15,2,6,1.17a.89.89,0,0,0,.55-.85,1,1,0,0,0-.08-.38,1.71,1.71,0,0,1-.1-.81,1.64,1.64,0,0,1,1.47-1.5.82.82,0,0,0,.63-.35,1,1,0,0,0,.18-.72,1.55,1.55,0,0,1,0-.48,1.63,1.63,0,0,1,1.78-1.48,1.66,1.66,0,0,1,1.45,1.86,2.37,2.37,0,0,1-.11.46,1,1,0,0,0,0,.75,1,1,0,0,0,.54.49,1.69,1.69,0,0,1,1.13,1.79,1.58,1.58,0,0,1-.34.85,1,1,0,0,0,.08,1.22,3.34,3.34,0,0,0,3.54,1.19.94.94,0,0,0,.6-.49l.79-1.71a1.29,1.29,0,0,1,.61-.59,23.44,23.44,0,0,0-1.24,4.77c-12.77-2.88-32.58-2.88-45.36,0m17.24-.2c3.6-.13,7.28-.13,10.89,0a98.35,98.35,0,0,1,16.38,1.87,61.4,61.4,0,0,1-1.64,9.8A3.23,3.23,0,0,0,270,67.08a5.29,5.29,0,0,0-.54,1.06,2.06,2.06,0,0,1-1-.31,3.26,3.26,0,0,0,.22-.71,3.12,3.12,0,0,0-1.08-3,3.11,3.11,0,0,0-.46-2.3,2.88,2.88,0,0,0-1.9-1.29,2.51,2.51,0,0,0-.55-.06A3,3,0,0,0,261.75,63a3,3,0,0,0-2.06,2.36c0,.1,0,.21,0,.31a2.17,2.17,0,0,0,0,.36,2.77,2.77,0,0,1-.7.07,2.72,2.72,0,0,1-1.59-.48,4.24,4.24,0,0,0,.15-1.06,4,4,0,0,0-2.28-3.64.86.86,0,0,0,0-.23,3.82,3.82,0,1,0-7.64,0v.23a4,4,0,0,0-2.26,3.64,4.23,4.23,0,0,0,.14,1.06,2.66,2.66,0,0,1-1.57.48,2.81,2.81,0,0,1-.71-.07c0-.12,0-.23,0-.36s0-.21,0-.3A3,3,0,0,0,241.1,63h0a3,3,0,0,0-2.91-2.51,2.6,2.6,0,0,0-.56.06,2.9,2.9,0,0,0-1.9,1.29,3.21,3.21,0,0,0-.47,2.3h0a3.16,3.16,0,0,0-1.09,3,3.35,3.35,0,0,0,.22.7,2.06,2.06,0,0,1-1,.31,5.07,5.07,0,0,0-.55-1.06A3.16,3.16,0,0,0,231.24,66a61.49,61.49,0,0,1-1.65-9.8A100.91,100.91,0,0,1,246,54.33M230.56,67.72a1.54,1.54,0,0,1,.93.5,5.06,5.06,0,0,1,.46,1.07.88.88,0,0,0,.72.64,4.16,4.16,0,0,0,.6,0,3.78,3.78,0,0,0,2.93-1.34.93.93,0,0,0,0-1.25,1.35,1.35,0,0,1-.29-.6,1.28,1.28,0,0,1,.74-1.4.87.87,0,0,0,.49-.52,1,1,0,0,0,0-.74.85.85,0,0,1-.11-.34,1.23,1.23,0,0,1,.19-.93,1.11,1.11,0,0,1,.76-.52,1.2,1.2,0,0,1,1.4,1,1.34,1.34,0,0,1,0,.35,1,1,0,0,0,.23.71.86.86,0,0,0,.66.3,1.2,1.2,0,0,1,1.16,1,1.43,1.43,0,0,1,0,.62.94.94,0,0,0,.45,1.11,4.41,4.41,0,0,0,2.08.51,4.5,4.5,0,0,0,3.21-1.36.9.9,0,0,0,.29-.67.87.87,0,0,0-.12-.47,2.06,2.06,0,0,1-.19-.89,2.12,2.12,0,0,1,1.67-2.1.88.88,0,0,0,.59-.42.92.92,0,0,0,.09-.74,2,2,0,0,1-.09-.61,2.06,2.06,0,1,1,4.12,0,2.5,2.5,0,0,1-.09.61,1,1,0,0,0,.1.73.92.92,0,0,0,.58.43,2.11,2.11,0,0,1,1.67,2.1,2.05,2.05,0,0,1-.21.94,1,1,0,0,0,.17,1.06,4.57,4.57,0,0,0,5.28.9,1,1,0,0,0,.5-1.13,1.19,1.19,0,0,1-.05-.62,1.21,1.21,0,0,1,1.18-1,.84.84,0,0,0,.64-.3,1,1,0,0,0,.23-.71,1.35,1.35,0,0,1,0-.35,1.2,1.2,0,0,1,1.39-1,1.23,1.23,0,0,1,.78.52,1.32,1.32,0,0,1,.17.93,1,1,0,0,1-.11.34,1,1,0,0,0-.05.74.92.92,0,0,0,.51.53,1.26,1.26,0,0,1,.73,1.4,1.17,1.17,0,0,1-.29.59.94.94,0,0,0,0,1.23,3.92,3.92,0,0,0,3.57,1.32.94.94,0,0,0,.72-.64,3.63,3.63,0,0,1,.45-1.07,1.49,1.49,0,0,1,.92-.5,36.06,36.06,0,0,0-1.7,4,77.72,77.72,0,0,0-38.33,0,34.19,34.19,0,0,0-1.69-4m2.9,5.53a56,56,0,0,1,8.24-1.57,83.22,83.22,0,0,1,9.71-.54,81.2,81.2,0,0,1,9.72.55,53.41,53.41,0,0,1,8.25,1.57A68.55,68.55,0,0,1,266,80.92a2.19,2.19,0,0,0-.43.43,4.26,4.26,0,0,0-.4.73.3.3,0,0,1-.13-.06c.06-.15.09-.31.14-.48a2.67,2.67,0,0,0-.84-2.48,2.62,2.62,0,0,0-2-3,.34.34,0,0,0-.14,0,1.87,1.87,0,0,0-.34,0,2.57,2.57,0,0,0-2.46,2,2.64,2.64,0,0,0-1.65,2c0,.13,0,.25-.05.39a2.22,2.22,0,0,1-.37,0,2.09,2.09,0,0,1-1-.29,3.21,3.21,0,0,0,.1-.74,3.36,3.36,0,0,0-1.78-3v-.07a3.21,3.21,0,1,0-6.41,0v.07a3.34,3.34,0,0,0-1.78,3,3.23,3.23,0,0,0,.11.74,2.07,2.07,0,0,1-1.05.29,2.34,2.34,0,0,1-.38,0,1.67,1.67,0,0,0,0-.39,2.62,2.62,0,0,0-1.64-2,2.58,2.58,0,0,0-2.47-2l-.34,0-.13,0a2.54,2.54,0,0,0-1.62,1.1,2.69,2.69,0,0,0-.41,1.85,2.71,2.71,0,0,0-.83,2.48,3,3,0,0,0,.14.49l-.13.07a3.4,3.4,0,0,0-.41-.75,2.14,2.14,0,0,0-.43-.42,76.45,76.45,0,0,1-3.32-7.68m3.16,10.55a.76.76,0,0,0,.32.11,4.47,4.47,0,0,0,.47,0,2.76,2.76,0,0,0,2.15-1.14,1,1,0,0,0,0-1.23.71.71,0,0,1-.18-.39.77.77,0,0,1,.46-.88.9.9,0,0,0,.5-.53.92.92,0,0,0,0-.73.68.68,0,0,1-.07-.23.78.78,0,0,1,.11-.59.81.81,0,0,1,.48-.34.77.77,0,0,1,.9.64.59.59,0,0,1,0,.23.93.93,0,0,0,.22.7.9.9,0,0,0,.66.31.78.78,0,0,1,.75.64,1,1,0,0,1,0,.39,1,1,0,0,0,.45,1.12,3.84,3.84,0,0,0,1.73.41,3.66,3.66,0,0,0,2.68-1.15.89.89,0,0,0,.21-1,4,4,0,0,1-.18-.76A1.49,1.49,0,0,1,249.37,78a.93.93,0,0,0,.59-.42,1,1,0,0,0,.09-.74,1.19,1.19,0,0,1-.06-.42,1.44,1.44,0,1,1,2.88,0,1.52,1.52,0,0,1-.06.42.91.91,0,0,0,.09.74.87.87,0,0,0,.59.42,1.48,1.48,0,0,1,1.15,1.47,3.69,3.69,0,0,1-.18.75,1,1,0,0,0,.21,1,3.68,3.68,0,0,0,2.69,1.15,3.89,3.89,0,0,0,1.69-.4l.12-.05a1,1,0,0,0,.37-1.07,1,1,0,0,1,0-.41.78.78,0,0,1,.75-.63.91.91,0,0,0,.65-.31,1,1,0,0,0,.23-.7.88.88,0,0,1,0-.23.77.77,0,0,1,.89-.64.81.81,0,0,1,.62.93,1.8,1.8,0,0,1-.08.21.93.93,0,0,0,0,.75.9.9,0,0,0,.5.51.8.8,0,0,1,.46.88.7.7,0,0,1-.18.39,1,1,0,0,0,0,1.23,2.67,2.67,0,0,0,2.14,1.14l.42,0a1.26,1.26,0,0,0,.36-.1c-.2.36-.37.73-.54,1.09a55.2,55.2,0,0,0-28.53,0c-.17-.35-.35-.72-.54-1.09m1.21,5s0,0,0,0a1,1,0,0,1-.48-.49,2.55,2.55,0,0,1,0-1.5,52.95,52.95,0,0,1,28.15,0,2.49,2.49,0,0,1,0,1.48,1.11,1.11,0,0,1-.47.5l0,0c-.37-.11-.75-.21-1.15-.3v0a60.47,60.47,0,0,0-24.74,0v0q-.66.15-1.29.33m2.78,1.87.09-.67a55.34,55.34,0,0,1,9.8-1,34.44,34.44,0,0,1-.89,4.15,23.27,23.27,0,0,1-3.73,7.31l-8.33-3.86a14.5,14.5,0,0,0,3.06-6M249.25,104l-7.4,3.43L223.56,99a80,80,0,0,1-2.59-8Zm-47-37.1a4.5,4.5,0,0,0-2.56,1l-.12.08a4.86,4.86,0,0,1-2.76,1,3.13,3.13,0,0,1-1.06-.19,8.35,8.35,0,0,0,2.28-1.6,6.31,6.31,0,0,1,1.56-1.15,1,1,0,0,0,.6-1.09c-.08-.36-.33-.78-1.16-.78a9.73,9.73,0,0,0-2.36.33,9,9,0,0,1-3,.61,6.15,6.15,0,0,1-.65,0,10.87,10.87,0,0,0,1.86-1.28,8.28,8.28,0,0,1,1.63-1.09,1,1,0,0,0,.64-1.1,1,1,0,0,0-1.13-.79,10.54,10.54,0,0,0-2.42.34,7.39,7.39,0,0,1-2.68.54,6.22,6.22,0,0,1-.91-.06A10.53,10.53,0,0,0,192.55,60l.94-.71a6.13,6.13,0,0,1,3.31-1.24l.33.28c.54.45,1.21.94,2,1.7a33.33,33.33,0,0,1,3.75,6.83l-.59,0m-31,7.09a2.68,2.68,0,0,1-.53-2.9A2.52,2.52,0,0,1,173,69.57h.14Zm3.43,3.37a.26.26,0,0,0-.05.09,1.15,1.15,0,0,1-.33,0,1.68,1.68,0,0,1-.69-.15,1.81,1.81,0,0,1-.87-2.35l2.12-4.93a1.67,1.67,0,0,1,1.56-1,1.51,1.51,0,0,1,.69.15,1.74,1.74,0,0,1,.78.71.53.53,0,0,1-.06.1Zm4.73,2.19a1.65,1.65,0,0,1-2.25.9,1.79,1.79,0,0,1-.87-2.35l3.17-7.4a1.68,1.68,0,0,1,1.56-1,1.59,1.59,0,0,1,.7.16,1.66,1.66,0,0,1,.9,1,1.88,1.88,0,0,1,0,1.38Zm25.64,18.25L204,97.31a.81.81,0,0,0-.68,0,.89.89,0,0,0-.49.48l-1.7,4a.93.93,0,0,0,.45,1.21l1.12.51-1.76,4.13L191,103l1.76-4.11,1.12.51A.86.86,0,0,0,195,99l1.7-4a.9.9,0,0,0,0-.7.94.94,0,0,0-.47-.51l-1.12-.51.5-1.16a.92.92,0,0,0-.44-1.2l-3.85-1.79a.89.89,0,0,0-1.17.47l-.5,1.19-1.12-.52a.86.86,0,0,0-1.15.46l-1.7,4a1,1,0,0,0,0,.69.91.91,0,0,0,.47.51l1.12.53-1.76,4.11L175.59,96l1.77-4.13,1.11.52a.87.87,0,0,0,1.16-.46l1.71-4a.93.93,0,0,0-.44-1.21l-1.12-.52,1.93-4.52L207,93.33ZM181.41,79.47l1.34-3.1,1.12-2.61,22.5,10.41c.1.64.19,1.25.27,1.8.27,1.75.55,3.66.94,5.61Zm26.85,5.41c-.08-.51-.15-1.07-.24-1.64-.87-5.79-2-13-2.86-15.91-1.77-5.65-4.12-8.06-5.79-9.47h.1c.4,0,.79,0,1.15,0A14.46,14.46,0,0,1,208,59.44c6.08,3,7.58,12.58,8.68,19.59.21,1.33.4,2.58.62,3.66a.93.93,0,0,0,.05.24l-3.26.71-.65-3.28-2.77.59.66,3.29Zm8.58,20.75c-5.42-3.52-7.09-11.38-8.13-17.85l3.14-.68.66,3.29,2.76-.6-.65-3.3,3.25-.69c.07.35.15.69.25,1a86.57,86.57,0,0,0,4,13.41,19.11,19.11,0,0,0,6.57,8.12c-6.9-.13-10.4-1.75-11.9-2.74m15.6,2.67a15.79,15.79,0,0,1-7.4-6.38c.24,0,.49.08.76.1L237,107.2a18.19,18.19,0,0,1-4.56,1.1m-1,4.47a1.65,1.65,0,0,1,.69-.15,1.7,1.7,0,0,1,1.56,1.06l2.12,4.93A1.82,1.82,0,0,1,235,121a1.62,1.62,0,0,1-.69.15,1.87,1.87,0,0,1-.34,0,.42.42,0,0,0,0-.1l-3.16-7.4-.05-.09a1.82,1.82,0,0,1,.78-.72m-5.5,1.66a1.68,1.68,0,0,1,.9-1,1.58,1.58,0,0,1,.7-.15,1.7,1.7,0,0,1,1.56,1.06l3.15,7.39a1.81,1.81,0,0,1,.05,1.37,1.69,1.69,0,0,1-.91,1,1.62,1.62,0,0,1-.69.16,1.71,1.71,0,0,1-1.57-1.06L226,115.79a1.78,1.78,0,0,1,0-1.36m-3.55,3.11a1.75,1.75,0,0,1,.91-1,1.81,1.81,0,0,1,.69-.14,1.84,1.84,0,0,1,.33,0,.42.42,0,0,0,0,.1l3.16,7.41a.28.28,0,0,1,.05.08,1.69,1.69,0,0,1-3-.18l-2.1-4.93a1.86,1.86,0,0,1,0-1.37m-15.72-4.32a7.73,7.73,0,0,1,5.8-3.18,5.83,5.83,0,0,1,.59,0c3,0,5.25,1.78,6.61,5.1a10.75,10.75,0,0,0-7.41-2.52,9.06,9.06,0,0,0-6.67,3.64,6.14,6.14,0,0,1,1.08-3m-2.16,6.37a2.05,2.05,0,0,0,.39,0H205c.55,0,.79-.41,1.08-.89a7.79,7.79,0,0,1,6.33-4.31,8.7,8.7,0,0,1,8.31,4.89c0,.11.08.21.12.32l0,0a.59.59,0,0,0,0,.08.48.48,0,0,0,.09.19l1.83,4.29c0,.07,0,.13.08.21s0,.06.06.09v0s0,0,0,0c1.46,2.87.6,7.4-1.93,10a7.16,7.16,0,0,1-5.26,2.22,11.86,11.86,0,0,1-2.06-.22,3.1,3.1,0,0,0-.62-.1,1,1,0,0,0-.74.35,3.18,3.18,0,0,0-.27.37,4.93,4.93,0,0,1-3.81,2.51c-1.8.11-3.19-.86-4.53-2.51a3.44,3.44,0,0,0-.7-1.69,3.36,3.36,0,0,0-1.77-1.17,3.67,3.67,0,0,0-.09-2.65,3.41,3.41,0,0,0-1.83-1.81,3.61,3.61,0,0,0,.35-2.17A3.57,3.57,0,0,0,199,126c-.28-2.13,0-3.86,1.23-5.17a4.48,4.48,0,0,1,3.32-1.35,7.51,7.51,0,0,1,1,.09m-7.48-.65a3.77,3.77,0,0,1,3.11-1.43,5.79,5.79,0,0,1,1.88.32,6,6,0,0,0-3.09,1.72,6.91,6.91,0,0,0-1.86,5.3l-.15,0c-1-1.93-1.35-3.93.11-5.87m-3.23,9.74a6.35,6.35,0,0,1,2.29-2.07A1.65,1.65,0,0,1,198,128a1.74,1.74,0,0,1-.29,1.25,1.65,1.65,0,0,1-1.06.66h-.07a7,7,0,0,1-2.71-1.23m1.94,5.52a6.78,6.78,0,0,1,1.69-2.61,1.44,1.44,0,0,1,.63-.14,1.62,1.62,0,0,1,1.49,1,1.82,1.82,0,0,1,0,1.28,1.64,1.64,0,0,1-.84.93,1.53,1.53,0,0,1-.5.07,9.08,9.08,0,0,1-2.49-.52m1.08,4a19.13,19.13,0,0,0-.31,2,.93.93,0,0,0,.45.9c-10.79,6.55-16.68,14.73-16.68,23.29A20.49,20.49,0,0,0,183.46,175a11.37,11.37,0,0,0-3.8-2,22.08,22.08,0,0,1-1.8-8.67,23.59,23.59,0,0,1,4.68-13.77,18.74,18.74,0,0,0,4-3.45,17.59,17.59,0,0,0,2.29-3.31,55.88,55.88,0,0,1,8-5.62m-22.5-9.24c.06-.08.09-.16.14-.24a37.71,37.71,0,0,0,5.63-16.23,34.86,34.86,0,0,1,1.24,12.68,23.58,23.58,0,0,0-7,9.36v-5.57Zm0,12.46a24.07,24.07,0,0,1,1-4.64,22.15,22.15,0,0,1,12.17-13.36,31.53,31.53,0,0,0-4.7,11.9,13,13,0,0,1-1.76,4.44,25.42,25.42,0,0,1-2.66,1.37,15.26,15.26,0,0,0-4.11,2.51v-2.22Zm0,4.8a12,12,0,0,1,4.77-3.4,24,24,0,0,0,10.37-8.47,18.61,18.61,0,0,1-4.26,11.54,19.47,19.47,0,0,1-10.89,6v-5.63Zm-5.93-30.56a47.19,47.19,0,0,0,3-7.07c2.26,6.45,1.06,11-.64,14a14.43,14.43,0,0,0-2.84-1.23,17.24,17.24,0,0,0,.44-5.65M172.6,126v23.43a9.35,9.35,0,0,0-4-2.81,7.17,7.17,0,0,0-1.7-.42,11.37,11.37,0,0,0-7.36,1.34l-.38.17v0a13.17,13.17,0,0,0-4.31,4V127.65c.74-1,4.09-5.19,8.87-5.19A13.58,13.58,0,0,1,172.6,126m-9.12,28.06a4,4,0,0,1,2.57-.11.88.88,0,0,0,1.19-.86v-5l.75.22c1.41.55,4.7,2.26,4.61,6.26-.07,3.06-2,6.14-6.18,6.14-4.72,0-5.41-3.62-5.49-4.07v-.2c0-.45.37-1.67,2.55-2.4m-2.55-.74V148.9a12.89,12.89,0,0,1,4.54-1v4a6.41,6.41,0,0,0-2.53.33,7.51,7.51,0,0,0-2,1M164.37,93A60.35,60.35,0,0,0,166,111.33c1,4.45.81,7.51.26,9.52a14.69,14.69,0,0,0-2.53-.23,9,9,0,0,0-1.29.08A19.05,19.05,0,0,0,161,116c-.7-1.54-1.29-3-1.81-4.3-.13-6.89,2.65-13.83,5.18-18.68m-9.72,10.69a87.82,87.82,0,0,0,4.75,13.06,16.83,16.83,0,0,1,1.31,4.36,13.59,13.59,0,0,0-4.71,2.7c-2-3.71-3.65-10-1.35-20.12m6.43,65.81a.9.9,0,0,0-1,.29s0,0,0,0a15.37,15.37,0,0,1-5.1-13.14,10.19,10.19,0,0,1,.53-2.22,9.41,9.41,0,0,1,3.71-4.6v6.6c0,.22,0,.37,0,.39h0c.23,2,2,5.72,7.25,5.72a7.59,7.59,0,0,0,7.8-6.5.94.94,0,0,0,.14-.5v-1.86a22.59,22.59,0,0,0,5-1.46,24.52,24.52,0,0,0-3.27,12.1,23.81,23.81,0,0,0,1.45,8.17c-.47-.08-1-.15-1.5-.19-10.3-.87-14.92-2.81-15-2.84m2.08,2.61a72.41,72.41,0,0,0,12.73,2c4.77.4,7,2.48,8.06,4a18.29,18.29,0,0,0-3.07,2,18.32,18.32,0,0,0-5.47-.71c-1,0-2.09.06-3.23.17a25.46,25.46,0,0,1-9-7.49m9.59,23.08A46.05,46.05,0,0,0,164,198c2.12-4.08,5.92-8.88,12.17-9.63a16,16,0,0,0,.16,5.38,11.54,11.54,0,0,1-3.54,1.44m3.8-8.69a15,15,0,0,0-5.66,1.6h-.69c-5.54,0-11.41-2-17.5-6,1.42.08,3.27.13,5.45.13a122.19,122.19,0,0,0,13.62-.77,29.63,29.63,0,0,1,3.64-.23,18.71,18.71,0,0,1,3.89.37,12.67,12.67,0,0,0-2.75,4.87M202.22,202a3.41,3.41,0,0,1,.28,3.34,3.77,3.77,0,0,1-1.74,2.15,3.33,3.33,0,0,1-2.52,0,4.07,4.07,0,0,1-.65-.71,7,7,0,0,1-.93-6.38c.06-.23.13-.46.2-.69,2,1,3.34,1.53,5.36,2.33m-5.83-7.76c-2.55,4.95-2,8.51-1,10.69a73.58,73.58,0,0,1-9.51-5.12,37.74,37.74,0,0,1-7.71-5.89c-.41-1.37-2.7-10.44,8.1-14.89a3.56,3.56,0,0,1,3.33.35c4.38,3.76,10.38,6.79,14.45,8.64a11.2,11.2,0,0,0-7.66,6.22m3.65-2a9.26,9.26,0,0,1,2.35-1.67,100.19,100.19,0,0,0,29.2,8.66,11.07,11.07,0,0,1,.45,2.64c-.32,0-.65-.11-1-.14a22.83,22.83,0,0,0-11.67-3.6,60,60,0,0,1-7.18-.83A85.64,85.64,0,0,1,200,192.23m6.39,7.4c2.44.9,6.45,1.83,12.88,2.19a23.17,23.17,0,0,1,9.79,2.5,14.51,14.51,0,0,1,2,1.28,27,27,0,0,1-8.86,1.56,19.56,19.56,0,0,1-15.83-7.53m5,13h0a80,80,0,0,1-9.7-.66,24.18,24.18,0,0,0,7.56-3,22.15,22.15,0,0,1,4-2,22.4,22.4,0,0,0,9,1.83,28,28,0,0,0,6.86-.87c-2.65,2.17-7.82,4.64-17.71,4.64m7.43,4.6a24.12,24.12,0,0,0-7.05,4.4,17.31,17.31,0,0,1,3.87-7.45c6.52-.52,10.7-2.19,13.36-3.95-1.86,2.21-4.95,4.77-10.18,7m17,8-.54,0a1.26,1.26,0,0,1,.23-1.78,4.11,4.11,0,0,1,2.28-.85c.37.07.7.17,1,.25a11.74,11.74,0,0,0,2.57.47,8.49,8.49,0,0,1-5.57,1.93m28.23-2.4c.33-.08.65-.18,1.05-.25a4.11,4.11,0,0,1,2.27.85,1.25,1.25,0,0,1,.23,1.78l-.55,0a8.49,8.49,0,0,1-5.55-1.93,11.77,11.77,0,0,0,2.55-.47m-.24-7.8c-2,0-4.55-3.72-5.28-5a.85.85,0,0,0-.95-.44.89.89,0,0,0-.68.8c-.64,6,.28,10.44,2.7,13.28a9.1,9.1,0,0,0,2.15,1.82,11.16,11.16,0,0,1-3.07-1.05,12.62,12.62,0,0,1-6.39-7.84.87.87,0,0,0-1.7,0,12.59,12.59,0,0,1-6.38,7.84,11.57,11.57,0,0,1-3.08,1.05,8.47,8.47,0,0,0,2.13-1.82,7.9,7.9,0,0,0,.81-1.09c1.84-2.84,2.48-6.93,1.92-12.19a.91.91,0,0,0-.7-.8.52.52,0,0,0-.17,0,.88.88,0,0,0-.77.46c-.73,1.3-3.25,5-5.28,5a42.34,42.34,0,0,1-11.71-1.45,12,12,0,0,0,6.44-9.44c.39-5.55-1.53-8.65-3.8-10.53l.08,0A96.81,96.81,0,0,0,251.37,196h.11a95.34,95.34,0,0,0,21.3-2.32h.09c-2.27,1.88-4.2,5-3.8,10.52a11.92,11.92,0,0,0,6.44,9.44,42.48,42.48,0,0,1-11.72,1.45M291,221.63a24.65,24.65,0,0,0-7.05-4.38c-5.21-2.23-8.32-4.79-10.17-7,2.64,1.75,6.8,3.42,13.28,3.94a17.6,17.6,0,0,1,3.94,7.44M293.49,209a24.67,24.67,0,0,0,7.57,3,79.72,79.72,0,0,1-9.71.66c-9.68,0-14.85-2.4-17.55-4.56a28,28,0,0,0,7,.91,22,22,0,0,0,9-1.86,23,23,0,0,1,3.75,1.87m-12.72-1.73h0a27.41,27.41,0,0,1-9.15-1.67,13.51,13.51,0,0,1,2.05-1.3,23.18,23.18,0,0,1,9.78-2.5,46.27,46.27,0,0,0,13.05-2.24s.05,0,.08,0a19.21,19.21,0,0,1-15.81,7.74m9.94-10a56.08,56.08,0,0,1-7.37.87,22.83,22.83,0,0,0-11.68,3.62l-.86.12a11.14,11.14,0,0,1,.46-2.64,100.31,100.31,0,0,0,29.19-8.65,8.75,8.75,0,0,1,2.34,1.67,88.18,88.18,0,0,1-12.08,5m13.89,10.23a3.38,3.38,0,0,1-2.52,0,3.68,3.68,0,0,1-1.75-2.15,3.36,3.36,0,0,1,.29-3.34c2-.8,3.35-1.35,5.36-2.32,1.67,4.85-.83,7.31-1.38,7.77m20.07-13.54c-.46.51-2.56,2.68-7.72,5.9a72.35,72.35,0,0,1-9.46,5.1,7.87,7.87,0,0,0,.29-.75c.7-2,1-5.33-1.33-9.92a11.17,11.17,0,0,0-7.67-6.22c4.07-1.85,10.08-4.88,14.46-8.64a3.49,3.49,0,0,1,2-.6,3.55,3.55,0,0,1,1.31.25c10.81,4.45,8.51,13.52,8.11,14.88m14.2,4a46.45,46.45,0,0,0-8.78-2.82,12.24,12.24,0,0,1-3.57-1.43,15.12,15.12,0,0,0,.18-5.38c6.25.74,10,5.54,12.17,9.63m-6.22-9.9H332a15.09,15.09,0,0,0-5.67-1.6,12.55,12.55,0,0,0-2.76-4.88,18.89,18.89,0,0,1,3.9-.36,29.75,29.75,0,0,1,3.64.23,122.19,122.19,0,0,0,13.62.77c2.19,0,4,0,5.46-.13-6.09,4-12,6-17.5,6M241.25,80c-.53.11-.81.9-.74,1.36s.65,1.07,1.17,1a1.26,1.26,0,0,0,.74-1.36c-.08-.45-.65-1.06-1.17-1m19.9,2.32c.52.11,1.08-.51,1.17-1s-.2-1.25-.73-1.36-1.1.51-1.18,1,.21,1.25.74,1.36m-8.39-2.48c0-.66-.6-1.67-1.36-1.67s-1.35,1-1.35,1.67.6,1.63,1.35,1.63,1.36-1,1.36-1.63m-14.23-14.6c-.66.14-1,1.13-.92,1.71s.82,1.35,1.49,1.21,1-1.13.92-1.7-.81-1.36-1.49-1.22m25.21,2.92c.66.14,1.38-.64,1.47-1.22a1.55,1.55,0,0,0-.91-1.7c-.67-.14-1.37.64-1.47,1.22s.24,1.57.91,1.7M253.12,65c0-.83-.78-2.1-1.72-2.1s-1.73,1.26-1.73,2.1.78,2.09,1.73,2.09,1.72-1.26,1.72-2.09m-17-17.68c-.81.1-1.35,1.25-1.27,2s.84,1.7,1.65,1.61,1.35-1.26,1.28-2-.85-1.71-1.66-1.62m30.13,3.57c.82.09,1.59-.91,1.67-1.61s-.47-1.86-1.28-2-1.59.91-1.66,1.62.47,1.86,1.27,2m-12.82-3.65c0-1-.93-2.52-2.07-2.52s-2.08,1.54-2.08,2.52.94,2.52,2.08,2.52,2.07-1.54,2.07-2.52m-14.1,68.23a1.66,1.66,0,0,0,.82-1.88,1.54,1.54,0,0,0-1.91-.56,1.68,1.68,0,0,0-.83,1.88,1.56,1.56,0,0,0,1.92.56M205,129.57a2.59,2.59,0,0,0,.63.08h.06a2.54,2.54,0,0,0-.42.57,3.83,3.83,0,0,0-.36,2.83,3.71,3.71,0,0,0,1.68,2.29,3.51,3.51,0,0,0,4.91-1.38,3,3,0,0,0,.27-.67,3.43,3.43,0,0,0,.39.6,3.53,3.53,0,0,0,5.09.28,3.87,3.87,0,0,0,.27-5.29,3.37,3.37,0,0,0-.53-.47,2.51,2.51,0,0,0,.67-.22,3.72,3.72,0,0,0,1.9-2.07,4,4,0,0,0-.07-2.87,3.61,3.61,0,0,0-3.31-2.21,3.48,3.48,0,0,0-1.45.32,2.47,2.47,0,0,0-.59.38,2.89,2.89,0,0,0,0-.72,3.63,3.63,0,0,0-3.57-3.36,2.23,2.23,0,0,0-.37,0,3.71,3.71,0,0,0-3.21,4.12,3.44,3.44,0,0,0,.16.69,4.27,4.27,0,0,0-.65-.24,3.74,3.74,0,0,0-.75-.07,3.61,3.61,0,0,0-3.51,3,3.8,3.8,0,0,0,.49,2.81,3.5,3.5,0,0,0,2.27,1.62m5,3.46a1.78,1.78,0,0,1-2.51.7,2,2,0,0,1-.68-2.61c.44-.79,2-1.27,2.48-1.4a.32.32,0,0,1,.14,0,.51.51,0,0,1,.25.06.57.57,0,0,1,.25.34c.13.49.51,2.14.07,2.93m3.87-7.6c.17-.47.8-2,1.59-2.41a1.61,1.61,0,0,1,.74-.15,1.83,1.83,0,0,1,1.69,1.13,2,2,0,0,1-.92,2.52,1.68,1.68,0,0,1-.68.12,6.9,6.9,0,0,1-2.13-.49.65.65,0,0,1-.28-.29.58.58,0,0,1,0-.43m-.9,4.33a.56.56,0,0,1,.19-.36.45.45,0,0,1,.34-.15h0c.49,0,2.12.16,2.7.83a2,2,0,0,1-.13,2.71,1.82,1.82,0,0,1-1.22.49,1.8,1.8,0,0,1-1.38-.64c-.58-.67-.54-2.37-.52-2.88m-.4-3.3a1.59,1.59,0,0,1-.77,2.07,1.34,1.34,0,0,1-.61.15l-.06,0h0l-.17,0h-.06a.44.44,0,0,1-.19-.07l-.08,0a.69.69,0,0,1-.19-.1s0,0,0,0a.78.78,0,0,1-.2-.16l-.06,0-.13-.16s0-.05,0-.07,0,0,0,0a.69.69,0,0,1-.1-.19,1.62,1.62,0,0,1,.77-2.08l.29-.09.09,0a1.77,1.77,0,0,1,.21,0,1.15,1.15,0,0,1,.26,0,.12.12,0,0,1,.07,0,.61.61,0,0,1,.18.05l.09,0s0,0,0,0a1.75,1.75,0,0,1,.29.18h0l.13.09.05.06.14.16a.09.09,0,0,1,0,.06c0,.08.08.16.12.25m-2.18-7,.2,0a1.85,1.85,0,0,1,1.82,1.72c.1.9-.89,2.24-1.2,2.65a.53.53,0,0,1-.36.19h0a.5.5,0,0,1-.33-.12c-.38-.32-1.62-1.42-1.71-2.33a1.9,1.9,0,0,1,1.63-2.09m-6.41,6a1.84,1.84,0,0,1,1.79-1.52,1.65,1.65,0,0,1,.38,0c.86.19,1.78,1.59,2,2a.64.64,0,0,1,.08.42.55.55,0,0,1-.23.35,5.57,5.57,0,0,1-2.4,1,1.09,1.09,0,0,1-.26,0,1.89,1.89,0,0,1-1.41-2.26m59.55-10a1.56,1.56,0,0,0,1.92-.56,1.66,1.66,0,0,0-.83-1.88,1.53,1.53,0,0,0-1.91.56,1.68,1.68,0,0,0,.82,1.88m21.76,12.69a2.19,2.19,0,0,0,.64.21,3.23,3.23,0,0,0-.51.47,3.86,3.86,0,0,0,.27,5.29,3.55,3.55,0,0,0,2.4,1,3.6,3.6,0,0,0,2.69-1.23,4.56,4.56,0,0,0,.38-.59c.08.23.16.45.26.67a3.54,3.54,0,0,0,4.93,1.36,3.84,3.84,0,0,0,1.31-5.12,2.22,2.22,0,0,0-.42-.56h.07a3,3,0,0,0,.62-.07,3.56,3.56,0,0,0,2.28-1.62,3.93,3.93,0,0,0,.5-2.83,3.66,3.66,0,0,0-3.53-3,3.63,3.63,0,0,0-.73.08,3.71,3.71,0,0,0-.66.24,4.3,4.3,0,0,0,.16-.69,3.74,3.74,0,0,0-3.21-4.13h-.37a3.67,3.67,0,0,0-3.59,3.36,3.56,3.56,0,0,0,0,.72,3.19,3.19,0,0,0-.6-.38,3.52,3.52,0,0,0-1.46-.32,3.57,3.57,0,0,0-3.29,2.21,3.85,3.85,0,0,0-.08,2.87,3.66,3.66,0,0,0,1.91,2.08m10.18,5.54a1.75,1.75,0,0,1-.91.26,1.85,1.85,0,0,1-1.6-1c-.44-.79-.06-2.44.07-2.93a.54.54,0,0,1,.24-.33.46.46,0,0,1,.26-.07.32.32,0,0,1,.14,0c.47.13,2,.61,2.47,1.4a2,2,0,0,1-.67,2.61m-.7-7.68c.25-.42,1.18-1.81,2-2a2.65,2.65,0,0,1,.38,0,1.86,1.86,0,0,1,1.8,1.52,1.9,1.9,0,0,1-1.41,2.26,1.15,1.15,0,0,1-.26,0,5.46,5.46,0,0,1-2.4-1,.56.56,0,0,1-.23-.35.49.49,0,0,1,.08-.42m-4.23-4.85a1.87,1.87,0,0,1,1.83-1.72l.19,0a1.89,1.89,0,0,1,1.63,2.1c-.08.9-1.33,2-1.7,2.33a.64.64,0,0,1-.34.12h0a.63.63,0,0,1-.36-.19c-.3-.41-1.29-1.76-1.2-2.66m-.15,5.26a2.6,2.6,0,0,1,.13-.24l.06-.07a.93.93,0,0,1,.13-.15l.05-.06a.6.6,0,0,1,.13-.09h0a1.14,1.14,0,0,1,.3-.18h0l.06,0,.19-.05.06,0a2.3,2.3,0,0,1,.26,0,1.2,1.2,0,0,1,.2,0l.1,0a1.18,1.18,0,0,1,.3.1,1.6,1.6,0,0,1,.76,2.08s-.06.13-.1.19h0a.09.09,0,0,1,0,0s0,0-.05.06a.67.67,0,0,1-.12.16l0,.06c-.08,0-.14.12-.21.17h0a.62.62,0,0,1-.2.1.11.11,0,0,1-.07,0,.7.7,0,0,1-.19.06h-.08l-.17,0h0l-.06,0a1.79,1.79,0,0,1-.62-.14,1.62,1.62,0,0,1-.75-2.09m-.94,2.79a.54.54,0,0,1,.36.14.56.56,0,0,1,.17.37c0,.51.06,2.21-.51,2.88a1.8,1.8,0,0,1-2.61.15,2,2,0,0,1-.13-2.71c.58-.66,2.21-.81,2.7-.83ZM285,124a1.82,1.82,0,0,1,1.68-1.13,1.61,1.61,0,0,1,.74.15c.8.37,1.42,1.94,1.6,2.41a.54.54,0,0,1,0,.43.48.48,0,0,1-.28.28,6.52,6.52,0,0,1-2.12.5,1.73,1.73,0,0,1-.69-.13A1.93,1.93,0,0,1,285,124m-16.37,56.14c-2.16-.55-2.62-1.51-2.69-4.31s-.07-16.41-.07-17.71c0-2.6.07-4.72.14-5.61.26-1.57,1.24-2,2.62-2.4.4-.14,1-.47,1-.68s-.39-.48-1.12-.48c-1.25,0-4.53.28-6.12.28-1.11,0-5.26-.28-7-.28-.78,0-1.11.14-1.11.41s.39.61,1.05.75c2.1.55,2.37,1.29,2.44,3.42v9.72c0,.38-.12.48-.4.53-.06,0-2.69.05-5.73.06v-19h5.84v-4h-5.84v-5.31h-3.89v5.31h-5.85v4h5.85v19c-3,0-5.64,0-5.8-.06s-.33-.4-.33-1.37v-8.88c.06-2.14.33-2.88,2.44-3.43.66-.14,1-.54,1-.75s-.34-.4-1.12-.4c-1.7,0-5.85.27-7,.27-1.58,0-4.87-.27-6.12-.27-.72,0-1.11.27-1.11.47s.59.54,1,.68c1.38.35,2.38.82,2.64,2.41.06.88.13,3,.13,5.6,0,1.31,0,14.84-.06,17.71s-.54,3.77-2.7,4.31c-.59.14-1.06.27-1.06.61,0,.15.46.55,1.12.55,2,0,4.47-.34,6.58-.34,2.3,0,5.19.27,7,.27.53,0,1.05-.14,1.05-.54,0-.21-.25-.41-.85-.55-1.71-.41-2.56-1-2.76-2.4-.12-1-.17-5.19-.19-11.55.06-.21.16-.34.19-.34.59-.15,15.24-.15,15.5-.07s.41.41.45.83c0,6.13-.08,10.18-.2,11.13-.19,1.44-1,2-2.75,2.4-.6.14-.86.34-.86.55,0,.41.53.54,1.06.54,1.78,0,4.66-.27,7-.27,2.11,0,4.61.34,6.58.34.67,0,1.12-.4,1.12-.55,0-.33-.48-.47-1.08-.6m23.27-17c-1.25-.89-3.36-2.13-5.4-3.7-2.43-1.92-3.22-3.36-3.22-5.2a4.72,4.72,0,0,1,4.8-5.05,6.62,6.62,0,0,1,4.15,1.7,11.48,11.48,0,0,1,2.31,3.7c.19.54.45.88.65.88s.46-.34.34-1a27.9,27.9,0,0,1-.47-4.65.73.73,0,0,0-.51-.68,24.73,24.73,0,0,0-6.66-.89,14.11,14.11,0,0,0-6.83,1.71,8.51,8.51,0,0,0-4,7.66c0,4.3,2.22,7.31,7.81,11,3.63,2.32,5.73,4.51,5.73,7,0,3.36-2.24,5.34-5.53,5.34a7.76,7.76,0,0,1-5-2.06,10.08,10.08,0,0,1-3-4.52c-.27-.75-.4-1.21-.74-1.21-.19,0-.58.4-.32,1.43.32,2,.39,4.1.59,5.06a1,1,0,0,0,.59.74,27.8,27.8,0,0,0,7.69,1.65c6.71,0,12.37-3.76,12.37-9.92,0-4.85-2.91-7.24-5.34-9m-71.44,17c-1.7-.41-2.57-1-2.77-2.4-.12-1.09-.19-6.29-.19-14V153.54c.07-2.14.34-2.88,2.44-3.43.66-.13,1.05-.53,1.05-.74s-.33-.41-1.13-.41c-1.7,0-5.84.27-7,.27-1.57,0-4.85-.27-6.11-.27-.72,0-1.12.27-1.12.47s.59.55,1,.68c1.39.35,2.37.83,2.63,2.41.07.88.14,3,.14,5.6,0,1.31,0,14.84-.06,17.72s-.52,3.76-2.7,4.31c-.58.13-1,.26-1,.6,0,.15.46.55,1.12.55,2,0,4.48-.34,6.57-.34,2.3,0,5.2.27,7,.27.53,0,1.06-.14,1.06-.54,0-.21-.26-.42-.86-.55m166.79,94c.48,1.09,1.41,3.41,2.08,5.1,2.87,7,6.41,15.29,7.45,17.56,1.73,3.67,2.87,4.13,4.63,4.59.88.23,1.36.5,1.36.82s-.52.68-1.72.68-5.21-.19-6.82-.19-3.75.1-5.11.1c-1,0-1.66-.28-1.66-.68,0-.23.37-.6,1.35-.78,2.13-.45,2.18-1.18,2.08-1.91-.11-1.19-1.21-3.72-2.39-6.65a1.61,1.61,0,0,0-1.26-.67c-5.52-.05-8,.09-8.75.13-.15,0-.46.31-.57.46-1.66,3.63-2.24,5.69-2.24,6.59s.53,1.55,2.45,2c1,.22,1.5.49,1.5.91s-.72.59-1.56.59-2.22-.1-4.17-.1-4.36.19-5.14.19c-1.2,0-1.51-.27-1.51-.55s.21-.64,1.29-.9c2.67-.65,3.23-1.37,4.75-4.05,1.24-2.18,6.87-15.15,9.06-19.66a2.93,2.93,0,0,0,.25-.82c0-.13,0-.27.11-.36a28.7,28.7,0,0,0,2.71-2.83,1.29,1.29,0,0,1,.94-.59c.28,0,.49.1.89,1m.12,15.43c-.78-2.14-3.09-7.65-3.81-9.15-.09-.32-.42-.24-.57.13-.93,2.18-3.44,7.92-3.75,9a.38.38,0,0,0,.36.45c2,0,5.9-.1,7.55-.1.06,0,.27-.18.22-.35M328.86,273.7c-.94,0-1.58.31-1.58.67s.79.69,1.37.78c2.71.54,3.07,1.18,4,2.18.16.18.32.73.32,2.55,0,3.28-.68,12-1,17.11-.15,3.41-1.39,3.77-3.79,4.42-.53.13-1.16.36-1.16.81s.63.61,1.36.61,3.79-.15,4.93-.15c1.84,0,3,.19,4.54.19,1,0,1.71-.19,1.71-.69,0-.27-.36-.59-1.46-.87-2.5-.68-3.07-1.45-3.26-2.91-.26-2.23-.17-5.69-.12-12,.06-3.6.16-4.64.27-5.87,0-.14.3-.51.57-.23,4.64,4.77,13.12,12.6,18,17.83,1.42,1.49,2.39,2.55,3.38,3.68.48.55,1.73,1.73,2.82,1.73a1.09,1.09,0,0,0,.83-.87c0-1.18-.32-5.18-.32-7.09,0-3.86.38-15.37.53-17,.26-1.82.51-2.65,3.22-3.42.94-.23,1.31-.64,1.31-.91s-.38-.59-1.26-.59c-1.35,0-3.48.22-6,.22-1,0-2.23,0-3.53,0-.95,0-1.51.22-1.51.54,0,.55.68.82,1.72,1.06,2.59.58,3.11,1.63,3.22,2.54a43.23,43.23,0,0,1,.31,4.87c0,3.82.16,9-.1,10.28,0,.1-.21.5-.47.28-2.74-2.55-13-11.79-15.51-14.52-2.14-2.19-3.59-3.6-4.37-4.41a3.53,3.53,0,0,0-1.14-.59c-2.65,0-6.76-.17-7.91-.17m-22.14.41c.47,1.09,1.41,3.41,2.08,5.1,2.87,7,6.41,15.29,7.45,17.56,1.7,3.67,2.86,4.13,4.63,4.59.88.23,1.36.5,1.36.82s-.54.68-1.73.68-5.2-.19-6.82-.19-3.74.1-5.1.1c-1,0-1.66-.28-1.66-.68,0-.23.37-.6,1.35-.78,2.13-.45,2.2-1.18,2.08-1.91-.09-1.19-1.19-3.72-2.4-6.65a1.56,1.56,0,0,0-1.24-.67c-5.52-.05-8,.09-8.74.13-.16,0-.47.31-.57.46-1.67,3.63-2.24,5.69-2.24,6.59s.52,1.55,2.44,2c1,.22,1.52.49,1.52.91s-.74.59-1.57.59-2.25-.1-4.16-.1-4.38.19-5.16.19c-1.21,0-1.51-.27-1.51-.55s.2-.64,1.3-.9c2.66-.65,3.23-1.37,4.74-4.05,1.23-2.18,6.87-15.15,9.06-19.66a3.79,3.79,0,0,0,.25-.82c0-.13,0-.27.11-.36a29.92,29.92,0,0,0,2.71-2.83,1.3,1.3,0,0,1,1-.59c.25,0,.46.1.87,1m.1,15.43c-.78-2.14-3.06-7.65-3.8-9.15-.1-.32-.41-.24-.57.13-.94,2.18-3.43,7.92-3.75,9a.39.39,0,0,0,.37.45c2,0,5.89-.1,7.55-.1.05,0,.26-.18.2-.35M270.59,278.7c.15,1.73.15,6.46.15,8.79,0,3.86-.09,8.55-.25,10.27-.11,2-.48,2.92-2.87,3.42-1.09.23-1.56.54-1.56.86s.36.78,1.62.78c1.92,0,3.48-.15,5-.15,2.2-.05,5.73.24,7.83.24.62,0,1.6-.14,1.6-.6s-.51-.78-1.45-1c-2.91-.68-3.23-1.23-3.43-3.91-.11-1.37-.16-3.32-.16-8.83,0-7.83.05-9.42.2-10.56s.27-2.37,2.87-2.78c.9-.13,1.61-.49,1.61-.91s-.71-.64-1.61-.64c-1.82,0-3.64.15-6.19.15-1.73,0-4.43-.15-5.94-.15-.94,0-1.67.28-1.67.64s.31.64,1.57.91c2.55.57,2.55,1.25,2.7,3.43m-20,8.15c-.21.13-1.3.64-2,1-.25.07-.19.45-.1.62a70.45,70.45,0,0,0,7.87,10.74,7.68,7.68,0,0,0,4.48,2.28c.52.08.94.45.94.63s-.47.59-.83.68a16.27,16.27,0,0,1-3.49.37c-4.74,0-6.77-1.64-7.86-3-1.46-1.73-4.11-5.46-6.3-8.74a8.24,8.24,0,0,0-1.66-1.91,5.35,5.35,0,0,0-2.51-.59.71.71,0,0,0-.56.45c-.1.92,0,7,.16,9.06s.51,2.4,2.91,2.95c.88.23,1.24.55,1.24.86,0,.5-1,.68-1.6.68-1.83,0-4.12-.27-6.68-.27-1.82,0-4.42.19-5,.19-1.3,0-1.66-.32-1.66-.73s.58-.55,1.25-.73c2.4-.64,3-1.18,3.12-2.64.33-3.5.33-7.33.33-11.19,0-4.88-.12-8.74-.27-10s-.58-1.78-3-2.28c-.73-.18-1.3-.5-1.3-.86s.63-.64,1.5-.64h3.81c1.93,0,6.25-.23,9.06-.23,2.39,0,6.56.18,9.06,2a7,7,0,0,1,2.81,5.42c0,2.46-1.38,4.24-3.66,5.84m-5-10.11a6.43,6.43,0,0,0-4.22-1.59,8.92,8.92,0,0,0-2,.32,2,2,0,0,0-.62.95c-.15,1.54-.36,9.51-.15,10.69a.76.76,0,0,0,.67.54,15.1,15.1,0,0,0,5.62-1,6,6,0,0,0,2.91-5.09,6.69,6.69,0,0,0-2.23-4.83m-38.7-2.86c-2.71,0-7-.14-9.42-.14-.74,0-1.62.27-1.62.68s.57.64,1.66.82c2.24.36,2.66,1.29,2.77,2.91.1,1.32,0,3.42,0,8.78,0,5.65-.27,9.11-.42,11-.2,2.45-.88,2.91-3.54,3.46-.88.18-1.56.5-1.56.9s.78.6,1.77.6c1.88,0,2.45-.24,5.93-.24,3.91,0,16.77.24,17.35.24.25,0,1.09-.28,1.24-.6a33.49,33.49,0,0,0,2-5.27c.06-.36.11-1.33-.41-1.33s-.88.43-1.62,1.6a7.77,7.77,0,0,1-4.12,3.37,17.87,17.87,0,0,1-4.78.41,29,29,0,0,1-4.22-.28,1.82,1.82,0,0,1-1.14-1.09,27.73,27.73,0,0,1-.2-3.73,50.57,50.57,0,0,1,.1-6.32,1.22,1.22,0,0,1,.67-.55c1.61,0,3.53,0,5.2.14,2,.14,2.7.45,3.39,2.47.15.45.57,1,1,1s.73-.54.69-1.37c-.09-1.13-.2-1.86-.2-3.08,0-1.06.11-1.87.2-3.14.05-.5-.09-1.28-.52-1.28s-.83.49-1.15,1.18c-1,2-.88,2.18-4.59,2.18h-4.15a.57.57,0,0,1-.52-.45c0-2.5.1-8.82.21-10s.46-1.28.69-1.28a54.6,54.6,0,0,1,7.21.28c1.2.18,2.67.86,3.33,3.42.11.45.54,1.13,1,1.13s.83-.64.83-1.28c0-.91,0-4-.06-4.87,0-.31-.42-.64-.62-.59a42.93,42.93,0,0,1-4.59.28h-7.79Zm-50.46-.23c-.79,0-1.51.27-1.51.69s.72.68,1.34.81c2.35.59,3.13,1.59,4.22,3.73,2,4.14,6,12.52,7.75,16.66a51.32,51.32,0,0,1,2.72,6.95c.11.34.58,1.1,1.15,1.1s1.2-.68,1.41-1.18c1-2.79,2.18-5.32,3.89-8.91,3.14-6.74,6.36-12.24,7.5-14.48,1.31-2.36,2.41-3.32,4.74-3.82.89-.13,1.43-.45,1.43-.86s-.68-.64-1.58-.64c-1.09,0-3.18.18-4.68.18-1.72,0-2.82-.14-4.43-.14-.83,0-1.41.38-1.41.69s.58.59,1.14.77c2.09.69,3.5.87,2.35,3.56-1.56,3.58-7.08,14.82-7.5,15.55,0,.13-.37.13-.47,0-1.26-2.23-6.82-14.33-7.61-16.56-.41-1.28-.45-1.91,1.87-2.46.95-.23,1.31-.59,1.31-1s-.57-.55-1.25-.55c-1.19,0-4.42.09-6.19.09-2.55,0-5.16-.23-6.19-.23m-13.33.46c.47,1.09,1.4,3.41,2.08,5.1,2.88,7,6.41,15.29,7.45,17.56,1.73,3.67,2.86,4.13,4.65,4.59.87.23,1.35.5,1.35.82s-.53.68-1.73.68-5.2-.19-6.82-.19-3.75.1-5.1.1c-1.05,0-1.66-.28-1.66-.68,0-.23.37-.6,1.35-.78,2.13-.45,2.19-1.18,2.08-1.91-.11-1.19-1.2-3.72-2.4-6.65a1.56,1.56,0,0,0-1.24-.67c-5.52-.05-8,.09-8.74.13-.16,0-.48.32-.58.46-1.67,3.63-2.24,5.69-2.24,6.59s.52,1.55,2.44,2c1,.22,1.52.49,1.52.91s-.74.59-1.57.59-2.24-.1-4.16-.1-4.38.19-5.16.19c-1.2,0-1.51-.27-1.51-.55s.21-.64,1.3-.9c2.67-.65,3.23-1.37,4.75-4.05,1.24-2.18,6.86-15.15,9-19.66a2.92,2.92,0,0,0,.27-.82c0-.13-.05-.27.11-.36a31.25,31.25,0,0,0,2.71-2.83,1.27,1.27,0,0,1,.93-.59c.26,0,.46.1.88,1m.1,15.43c-.78-2.14-3.07-7.65-3.8-9.15-.09-.32-.41-.24-.58.13-.93,2.18-3.42,7.92-3.74,9a.39.39,0,0,0,.37.45c2,0,5.89-.1,7.55-.1,0,0,.26-.18.2-.35m-41.52,18.51a5.63,5.63,0,0,0-1.62,2.27c0,1.28,2.13,2.05,3.74,2.05a13.66,13.66,0,0,0,6.41-2.32,15,15,0,0,0,6.57-12c.11-3.86.32-15.82.36-19.56.06-2.23.73-2.81,2.51-3.18,1.23-.27,1.55-.63,1.55-1s-.67-.55-1.45-.55c-1.62,0-3.49.14-6.36.14-2.24,0-4.32-.18-5.93-.18-1.19,0-1.62.33-1.62.64s.51.78,1.67,1c2.34.5,2.87,1.46,2.91,2.31.1,1.92.27,6.48.27,13s0,12.47-.17,15.05a5.33,5.33,0,0,1-1,3,1.69,1.69,0,0,1-1.41.54,7.41,7.41,0,0,1-3.27-1.32,4.4,4.4,0,0,0-1.62-.49,3.78,3.78,0,0,0-1.51.67M376.58,252c.12,0,.22-.16.24-.28a39.16,39.16,0,0,0,0-5.42c0-.16,0-.47-1.43-1.1-.27-.13-.34-.22-.34-.27s.34-.4.52-.43a29.47,29.47,0,0,0,3.34-.78,1,1,0,0,1,.42-.09.44.44,0,0,1,.22.42c-.11,1.36-.27,2.79-.27,10.59a54.78,54.78,0,0,0,.1,6c.06,1.13.29,1.26.48,1.26.34,0,1.32-.17,1.63-.19a.2.2,0,0,1,.19.16c0,.22-.41.65-.56.71a27.38,27.38,0,0,0-2.87.53,4.39,4.39,0,0,1-1.17.28.47.47,0,0,1-.34-.35c0-.26.07-.7.07-1.09a.19.19,0,0,0-.18-.19,6.85,6.85,0,0,1-4,1.32,5.56,5.56,0,0,1-3.83-1.43,5,5,0,0,1-1.55-3.71,5.54,5.54,0,0,1,3.32-5,9.49,9.49,0,0,1,4.06-1,14.21,14.21,0,0,1,1.93.1m-5.34,1.72a5,5,0,0,0-1.27,3.37,4.57,4.57,0,0,0,4.32,4.61,3.61,3.61,0,0,0,2.1-.58,4.1,4.1,0,0,0,.49-1.68,43.29,43.29,0,0,0-.09-4.51,2.53,2.53,0,0,0-.66-1,4.39,4.39,0,0,0-2.61-1.06,3.6,3.6,0,0,0-2.28.89m-8-.51a3.21,3.21,0,0,1,.65,2.26c0,1.05-.13,4.4-.13,4.7a1.18,1.18,0,0,0,1.21,1.29,5.15,5.15,0,0,0,1.17-.41.14.14,0,0,1,.18.08.57.57,0,0,1,.07.31c0,.5-1.4,1.69-2.87,1.69a2.05,2.05,0,0,1-2-1.32s-.15-.13-.2-.11a15.48,15.48,0,0,1-2.72,1.22,6.55,6.55,0,0,1-1.27.16,2.47,2.47,0,0,1-2.19-2.53,2.3,2.3,0,0,1,.58-1.41,3.25,3.25,0,0,1,1.25-.65c.49-.18,3-.78,3.69-1s.85-.32.85-.48.07-1.86.05-2.19a2.2,2.2,0,0,0-2.35-1.78,2.34,2.34,0,0,0-1.2.27c-.16.09-.25.51-.22,1.14a.48.48,0,0,1-.16.26,12,12,0,0,1-2.16,1,.41.41,0,0,1-.36-.38c0-.75.83-1.5,2.37-2.39a7.26,7.26,0,0,1,2.9-1,3.35,3.35,0,0,1,2.88,1.32m-2.22,8c.18-.08.34-.57.37-.64,0-.57.06-1.54.06-2.16,0-.08-.12-.23-.22-.23a8.94,8.94,0,0,0-3.05.82c-.34.16-.58.35-.58,1,0,1.19,1.23,1.62,1.84,1.62a3.8,3.8,0,0,0,1.58-.43M348.64,252c.12,0,.22-.16.25-.28a40.76,40.76,0,0,0,0-5.42c0-.16,0-.47-1.43-1.1-.27-.13-.33-.22-.33-.27s.33-.4.52-.43a29.47,29.47,0,0,0,3.34-.78,1.1,1.1,0,0,1,.42-.09.42.42,0,0,1,.22.42,104.42,104.42,0,0,0-.27,10.59c0,5.45.06,5.45.09,6,.06,1.13.3,1.26.5,1.26s1.33-.17,1.62-.19a.22.22,0,0,1,.19.16,1.22,1.22,0,0,1-.56.71,28.37,28.37,0,0,0-2.87.53,4.36,4.36,0,0,1-1.16.28.48.48,0,0,1-.34-.35c0-.26.07-.7.07-1.09a.2.2,0,0,0-.19-.19,6.82,6.82,0,0,1-3.95,1.32,5.54,5.54,0,0,1-3.82-1.43,5,5,0,0,1-1.56-3.71,5.54,5.54,0,0,1,3.31-5,9.6,9.6,0,0,1,4.08-1,13.89,13.89,0,0,1,1.9.1m-5.34,1.72a5,5,0,0,0-1.26,3.37,4.56,4.56,0,0,0,4.31,4.61,3.57,3.57,0,0,0,2.1-.58,4.22,4.22,0,0,0,.5-1.68c0-1.55,0-3.28-.09-4.51a2.43,2.43,0,0,0-.66-1,4.39,4.39,0,0,0-2.63-1.06,3.62,3.62,0,0,0-2.27.89m-10.86-1c1.2-.21,2.74-.81,3.22-.92.15,0,.3.25.3.31,0,.4-.18,4-.18,5.49,0,1.38,0,2.46.06,3.41s.64.91,1.42,1.12c.49.14.68.31.68.47s-.39.3-.77.3c-.22,0-1.77-.08-2.41-.08-1,0-2.16.1-2.72.1s-.8-.13-.8-.32.21-.3.75-.4a1.83,1.83,0,0,0,1.24-.79,29.86,29.86,0,0,0,.11-3.07c0-.17,0-3.51,0-3.83s-.37-.44-1.23-1c-.18-.13-.27-.24-.27-.32s.29-.41.63-.49m3.67-4.93a1.61,1.61,0,0,1-1.54,1.37,2.11,2.11,0,0,1-1-.34,1.37,1.37,0,0,1-.5-1,1.53,1.53,0,0,1,.4-1,2.14,2.14,0,0,1,1.3-.41,1.48,1.48,0,0,1,1.38,1.41M327.74,252a8.43,8.43,0,0,0-1.6-.17,5.32,5.32,0,0,0-2.55.57,2.88,2.88,0,0,0-1.74,2.51,3.43,3.43,0,0,0,1.95,2.78c1,.51,1.2.67,2,1.13,1,.54,1.35,1.08,1.35,1.73a1.74,1.74,0,0,1-.71,1.42,2.16,2.16,0,0,1-1.23.41c-1.05,0-1.94-.52-2.83-1.94-.19-.3-.41-.63-.69-.63s-.24.25-.24.6a6.37,6.37,0,0,0,.49,2.08,7.07,7.07,0,0,0,3,.59,6.16,6.16,0,0,0,2.69-.65,3.25,3.25,0,0,0,1.81-2.64c0-1.21-.62-2.13-2.52-3.1s-3-1.62-3-2.57a1.77,1.77,0,0,1,1.77-1.59,2.8,2.8,0,0,1,2.49,1.79c.16.29.37.52.54.52s.37-.28.37-.52-.1-1.16-.1-1.63a.69.69,0,0,0-.27-.4,6.11,6.11,0,0,0-1-.29m-16.11.83a.58.58,0,0,0-.41.44c0,.11.41.32,1.09.78.31.18.31.54.31.86v5c0,1.62-.13,1.88-1.3,2.23-.21.09-.62.19-.62.36s.31.35.66.35c.73,0,1.17-.11,2-.11,1.79,0,3,.14,3.8.14.5,0,.76-.11.76-.27s-.08-.3-.58-.43-1-.24-1.39-.3c-.52-.11-.74-.62-.8-1.4,0-.41-.15-5.24-.15-5.78a.82.82,0,0,1,.31-.59,1.71,1.71,0,0,1,1.2-.33,3.36,3.36,0,0,1,1.75.63,1.3,1.3,0,0,0,.48.08,7,7,0,0,0,1.31-1.32,1,1,0,0,0,.2-.41c0-.24-.31-.95-1.61-.95a6.48,6.48,0,0,0-3.49,1.68s-.18,0-.18-.11c0-.51.06-1,.06-1.48a.4.4,0,0,0-.32-.3,1.81,1.81,0,0,0-.64.3,17.17,17.17,0,0,1-2.47.91m-3.55.09a3,3,0,0,1,1.1,2.29.71.71,0,0,1-.63.51c-.33,0-5.54,0-7,0a.43.43,0,0,0-.28.2,3.19,3.19,0,0,0-.13,1,5,5,0,0,0,1.12,2.94,4.71,4.71,0,0,0,3.49,1.45,3.26,3.26,0,0,0,2.77-1c.12-.12.28-.31.41-.31s.27.22.27.31a1.73,1.73,0,0,1-.25.69,5.61,5.61,0,0,1-4.59,2.07,5.19,5.19,0,0,1-5.56-5.36,5.77,5.77,0,0,1,3.73-5.32,7.1,7.1,0,0,1,2.41-.45,4.91,4.91,0,0,1,3.11,1m-6.47,1.72a.22.22,0,0,0,.16.3c.79,0,2.27,0,3.82,0,.67,0,1.06-.16,1.06-.73a2,2,0,0,0-2-1.64,3.31,3.31,0,0,0-3.07,2.07m-16.11-2.56c-.31,0-.78.14-.78.3s.16.3.61.45a2,2,0,0,1,1.34.93,61.47,61.47,0,0,1,3.15,6.25c.7,1.56.83,2,1.14,2.78.09.3.27.48.43.48s.59-.3.74-.69a31,31,0,0,1,1.43-3.59c.92-1.89,2-4.34,2.53-5.07a3.24,3.24,0,0,1,1.55-1.1c.48-.16.67-.27.67-.43s-.34-.3-.62-.3c-.58,0-1.54.14-2.1.14-.73,0-1.14-.08-1.71-.08-.38,0-.6.13-.6.29s.25.29.52.38c.93.3,1.2.48.95,1.16s-1.91,4.5-2.31,5.25c-.06.14-.16.19-.24.11a35.84,35.84,0,0,1-2.65-5.53c-.16-.35-.22-.69.63-.91.42-.12.69-.24.69-.44s-.24-.3-.72-.3-1.16.06-2,.06c-.35,0-2.17-.14-2.69-.14m-6.43.59c1.21-.21,2.74-.81,3.21-.92.15,0,.31.25.31.31,0,.4-.18,4-.18,5.49,0,1.38,0,2.46.06,3.41s.66.91,1.42,1.12c.5.14.68.31.68.47s-.41.3-.78.3c-.21,0-1.76-.08-2.4-.08-1,0-2.16.1-2.71.1s-.81-.13-.81-.32.22-.3.74-.4c.71-.19,1.15-.52,1.22-.79a22.13,22.13,0,0,0,.14-3.07c0-.17,0-3.51,0-3.83s-.36-.44-1.24-1c-.19-.13-.28-.24-.28-.32s.31-.41.65-.49m3.67-4.93a1.6,1.6,0,0,1-1.54,1.37,2.2,2.2,0,0,1-1.06-.34,1.47,1.47,0,0,1-.49-1,1.54,1.54,0,0,1,.41-1,2.13,2.13,0,0,1,1.29-.41,1.47,1.47,0,0,1,1.39,1.41m-19.81,4.91c-.21.07-.52.35-.52.54s.12.19.52.45c.64.48.78.76.78,1.06,0,2.72-.1,5-.19,5.85-.1,1-.26,1.24-1.27,1.51-.34.08-.65.22-.65.4s.33.38.81.38,1.47-.08,2.6-.08l2,0c.45,0,.79-.14.79-.32s-.24-.35-.55-.43c-1-.25-1.07-.46-1.11-.84s-.06-6.12,0-6.47a1.07,1.07,0,0,1,.3-.65,4,4,0,0,1,2.6-.78,4.23,4.23,0,0,1,1.94.51,2.72,2.72,0,0,1,.83,1.92c0,.78,0,4-.06,4.93s-.24,1.14-1,1.38c-.4.12-.75.27-.75.46s.45.33.78.33,1.42-.06,2.19-.06,1.67.06,2.4.06c.47,0,.9-.14.9-.33s-.18-.33-.76-.46c-.78-.19-1.09-.53-1.15-1s-.08-4.36-.08-4.9a4.75,4.75,0,0,0-1.08-3.29,3.86,3.86,0,0,0-2.83-1,8.54,8.54,0,0,0-4.1,1.49s-.18,0-.18-.08.09-.93.09-1.33c0-.11-.16-.41-.27-.41a2.28,2.28,0,0,0-.85.33,12.85,12.85,0,0,1-2.15.79m-21.85-7.27c-.5,0-.87.11-.87.33s.35.4.71.49c1.17.22,1.6.65,1.68,1.16,0,.35.09,2.92.09,6.42,0,4.48.77,6.39,2.49,7.83a9.56,9.56,0,0,0,5.62,1.58,10.11,10.11,0,0,0,4.41-.83c2.18-1.11,3.67-3.34,3.85-8,.08-1.4.27-4.43.29-5.63a2.16,2.16,0,0,1,2-2.48c.45-.14.7-.31.7-.46s-.26-.32-.77-.32c-.86,0-1.54.05-2.81.05-1,0-1.91-.09-2.66-.09-.55,0-.76.14-.76.3s.4.41.7.46c1.67.35,1.95.73,2,1.73a29.14,29.14,0,0,1,.12,3.32,28.79,28.79,0,0,1-.65,6.87c-.77,3-3.66,3.72-5.7,3.72a7.2,7.2,0,0,1-4.3-1.4c-1-.94-1.75-2-1.75-5.13,0-3.83,0-6.57.13-7.46.18-1.09.74-1.38,1.85-1.57.58-.11.9-.27.9-.48s-.35-.32-.93-.32-1.94.05-3.09.05-2-.1-3.3-.1m-11.15,7.78a3.21,3.21,0,0,1,.65,2.26c0,1.05-.12,4.4-.12,4.7a1.18,1.18,0,0,0,1.21,1.29,5.28,5.28,0,0,0,1.16-.41c.09,0,.13,0,.2.08a.76.76,0,0,1,.05.31c0,.5-1.39,1.69-2.87,1.69a2,2,0,0,1-2-1.32s-.17-.13-.23-.11a14.55,14.55,0,0,1-2.72,1.22A6.46,6.46,0,0,1,224,263a2.47,2.47,0,0,1-2.19-2.53,2.2,2.2,0,0,1,.59-1.41,2.91,2.91,0,0,1,1.23-.65c.5-.18,3-.78,3.7-1s.84-.32.84-.48.1-1.86.07-2.19a2.21,2.21,0,0,0-2.35-1.78,2.31,2.31,0,0,0-1.2.27c-.17.09-.26.51-.23,1.14a.39.39,0,0,1-.16.26,12,12,0,0,1-2.16,1,.43.43,0,0,1-.37-.38c0-.75.84-1.5,2.38-2.39a7.29,7.29,0,0,1,2.91-1,3.35,3.35,0,0,1,2.87,1.32m-2.21,8c.19-.08.33-.57.36-.64,0-.57.07-1.54.07-2.16,0-.08-.13-.23-.22-.23a8.93,8.93,0,0,0-3.06.82c-.34.16-.58.35-.58,1,0,1.19,1.24,1.62,1.84,1.62a3.84,3.84,0,0,0,1.59-.43m-13.06-8.47c1.2-.21,2.74-.81,3.21-.92.15,0,.3.25.3.31,0,.4-.17,4-.17,5.49,0,1.38,0,2.46.06,3.41s.65.91,1.41,1.12c.5.14.67.31.67.47s-.39.3-.77.3c-.2,0-1.74-.08-2.39-.08-1,0-2.17.1-2.72.1s-.8-.13-.8-.32.21-.3.73-.4a1.83,1.83,0,0,0,1.25-.79,27.22,27.22,0,0,0,.11-3.07c0-.17,0-3.51,0-3.83s-.38-.44-1.24-1c-.19-.13-.28-.24-.28-.32s.3-.41.65-.49m3.67-4.93a1.6,1.6,0,0,1-1.54,1.37,2.14,2.14,0,0,1-1-.34,1.37,1.37,0,0,1-.5-1,1.53,1.53,0,0,1,.4-1,2.14,2.14,0,0,1,1.3-.41,1.48,1.48,0,0,1,1.39,1.41m-6.92,4.8a6.65,6.65,0,0,0-2.92-.59,9.48,9.48,0,0,0-4.08,1.14,5.42,5.42,0,0,0-3,4.66,5.77,5.77,0,0,0,1,3.15,5.65,5.65,0,0,0,4.6,2.17,6.72,6.72,0,0,0,4.49-1.71,1.12,1.12,0,0,0,.45-.8c0-.14-.26-.22-.57,0a5.3,5.3,0,0,1-2.77.81,4.5,4.5,0,0,1-3.76-1.73,4.07,4.07,0,0,1-.87-2.69,4.51,4.51,0,0,1,1.27-3.19,3,3,0,0,1,1.79-.83A4.54,4.54,0,0,1,209.6,254a2.82,2.82,0,0,0,1.24.54c.13,0,1-.67,1-1.11a1.25,1.25,0,0,0-.47-.87m-18.58-.33c-.23,0-2.31,0-2.76,0-.23,0-.41-.16-.41-.26,0-3.64.68-5.5,1.38-6.23a2.38,2.38,0,0,1,1.85-.76,4.09,4.09,0,0,1,2.6,1,3.29,3.29,0,0,0,1.2.81c.41,0,1.6-.7,1.6-1.34a.93.93,0,0,0-.27-.68,4,4,0,0,0-3.28-1.2,7.25,7.25,0,0,0-4,1.27,7.84,7.84,0,0,0-2.74,3.06,8.75,8.75,0,0,0-.87,4c0,.13-.15.26-.3.37-1,.43-1.37.67-1.4.92a.28.28,0,0,0,.24.3c.41,0,.69.05,1.11.11a.49.49,0,0,1,.32.35c0,2,0,6.26-.06,6.85-.13.93-.29,1.11-1.34,1.38-.39.08-.62.22-.62.4s.23.33.62.33,1.55-.13,2.63-.13,2.37.07,2.91.07.67-.19.67-.32-.16-.3-.66-.43c-1.38-.37-1.51-.52-1.57-1.38-.09-1.46-.09-6.07-.09-6.85a.44.44,0,0,1,.3-.35,43.53,43.53,0,0,1,5,0c.13,0,.38.24.38.4,0,1.16,0,5.5-.13,7.21,0,.45-.34.69-1.11,1-.49.19-.68.29-.68.45s.28.33.62.33c.68,0,1.61-.1,2.66-.1.76,0,1.75.07,2.43.07.37,0,.74-.11.74-.32s-.06-.27-.67-.46c-.91-.25-1.24-.38-1.31-.94-.09-1.11-.06-2.24-.06-7.13,0-1.56.1-2.28-.13-2.28a4.52,4.52,0,0,0-1,.15,11.72,11.72,0,0,1-3.87.34m-14.44.46c1.2-.22,2.75-.81,3.21-.92.16,0,.31.25.31.3,0,.4-.18,4-.18,5.5,0,1.37,0,2.46.06,3.4s.66.91,1.44,1.13c.48.14.66.3.66.46s-.4.3-.77.3c-.21,0-1.76-.08-2.41-.08-1,0-2.15.11-2.71.11s-.8-.14-.8-.33.22-.29.74-.39c.71-.2,1.14-.52,1.24-.8a26.63,26.63,0,0,0,.12-3.07c0-.17,0-3.5,0-3.83s-.38-.43-1.23-1c-.19-.14-.28-.25-.28-.32s.29-.41.63-.49m3.68-4.93a1.61,1.61,0,0,1-1.54,1.37,2.14,2.14,0,0,1-1.06-.34,1.47,1.47,0,0,1-.49-1,1.53,1.53,0,0,1,.4-1,2.16,2.16,0,0,1,1.3-.41,1.49,1.49,0,0,1,1.39,1.41m-6.39,4.37c-.13,0-3,.11-3.68.11a.32.32,0,0,1-.27-.22v-1.29c0-.08-.32-.32-.47-.32s-.34.24-.7.59a17.16,17.16,0,0,1-2.63,1.92.38.38,0,0,0-.19.29c0,.11.16.26.41.35.64.13,1.2.33,1.2.51,0,.95-.13,5-.13,6a2.84,2.84,0,0,0,.41,1.81,3.63,3.63,0,0,0,2.78,1.24,4.92,4.92,0,0,0,3.34-1.22,1.08,1.08,0,0,0,.43-.7.28.28,0,0,0-.17-.29,1,1,0,0,0-.48.16,3.66,3.66,0,0,1-1.47.4,2.93,2.93,0,0,1-1.8-.51,1.58,1.58,0,0,1-.56-1.32c0-1.35,0-5,.1-5.72a.29.29,0,0,1,.24-.19h3.3c.22,0,.81-.05.81-.32a8.59,8.59,0,0,0-.09-1,.67.67,0,0,0-.38-.25m-22.51.54c-.22.07-.52.35-.52.54s.12.19.52.45c.66.48.77.76.77,1.06,0,2.72-.09,5-.17,5.85-.11,1-.27,1.24-1.27,1.51-.34.08-.65.22-.65.4s.34.38.8.38,1.48-.08,2.63-.08l2,0c.47,0,.81-.14.81-.32s-.25-.35-.55-.43c-1-.25-1.09-.46-1.13-.84s0-6.12,0-6.46a1.08,1.08,0,0,1,.31-.66,4,4,0,0,1,2.59-.78,4.31,4.31,0,0,1,1.95.51,2.68,2.68,0,0,1,.83,1.92c0,.78,0,4-.05,4.93s-.27,1.14-1,1.38c-.4.12-.74.27-.74.46s.43.33.77.33,1.42-.06,2.2-.06,1.66.06,2.4.06c.46,0,.9-.14.9-.33s-.19-.33-.78-.46c-.77-.19-1.09-.53-1.14-1s-.09-4.36-.09-4.9a4.75,4.75,0,0,0-1.08-3.29,3.81,3.81,0,0,0-2.81-1,8.54,8.54,0,0,0-4.11,1.49s-.19,0-.19-.08.1-.92.1-1.33c0-.11-.16-.41-.28-.41a2.65,2.65,0,0,0-.83.33,13,13,0,0,1-2.16.79m-3,4.72A5.59,5.59,0,0,1,147.5,262a7.3,7.3,0,0,1-3.95,1.08,7.46,7.46,0,0,1-4.14-1.4,5.62,5.62,0,0,1-2.28-4.13,5,5,0,0,1,2.16-4.21,7.51,7.51,0,0,1,4.62-1.51c3.06,0,6.27,2.1,6.27,5.53m-8.77-4a4.72,4.72,0,0,0-1.42,3.5,6.48,6.48,0,0,0,.37,2.42,4.24,4.24,0,0,0,3.86,3,2.86,2.86,0,0,0,1.76-.85,5.57,5.57,0,0,0,1.32-3.58,6,6,0,0,0-1.44-4.13,4.05,4.05,0,0,0-2.54-1,3.36,3.36,0,0,0-1.91.74m-13.26-7.34a4.69,4.69,0,0,1,4.86,4.55,4,4,0,0,1-3.79,4.31h-.67c-.26,0-.4.13-.4.25s.18.32.51.45a7.76,7.76,0,0,0,1.67.19,6.91,6.91,0,0,0,3.59-1.19,4.89,4.89,0,0,0,2.1-4.16,4.78,4.78,0,0,0-1.8-3.67c-1.14-1-3-1.59-5.86-1.59-1.49,0-3.92.22-5.32.22-.26,0-.79,0-1,0-.41,0-.69.13-.69.35s.31.34.91.4c1.73.22,1.73.63,1.76,1.59s.09,6.62.09,7.5c0,1.35-.07,3.48-.17,4.78-.05,1.13-.42,1.64-2.08,2-.32.09-.69.24-.69.43s.37.41,1,.41c.91,0,2.25-.11,3.15-.11,1.35,0,2.59.11,3.39.11.44,0,1-.11,1-.33s-.21-.4-.8-.54c-1.63-.4-1.86-.68-1.88-2.4,0-.67-.07-2.83-.07-5.28,0-3.07,0-6.46.07-7a1.54,1.54,0,0,1,.27-1,1.77,1.77,0,0,1,.91-.23" transform="translate(-100.05 -16.57)"/><line class="cls-2" x1="133.8" y1="336.65" x2="168.94" y2="336.65"/><path class="cls-1" d="M159.33,375.34c2.63,0,3.51-.06,3.71-.08a.27.27,0,0,1,.29.24c0,.57.07,1.52.09,2.19,0,.25-.11.55-.34.55s-.36-.2-.52-.65a1.88,1.88,0,0,0-1.51-1.44c-.7-.06-2.66-.06-3.14,0a.48.48,0,0,0-.33.22,40.8,40.8,0,0,0-.14,4.22c0,.31.09.68.27.68.68,0,2.12,0,2.62,0,.7-.09.95-.23,1.19-.9.12-.28.25-.52.48-.52s.27.3.27.47-.09.91-.09,1.27c0,.69,0,1.18,0,1.5,0,.47-.2.65-.38.65s-.27-.14-.41-.52c-.23-.7-.59-.88-.93-.94a9.34,9.34,0,0,0-1.47-.12,12.38,12.38,0,0,0-1.39.06c-.09,0-.18.17-.21.21,0,1.31.09,3.26.09,3.59,0,.82.23,1.05,1.38,1.25.36.06.66.2.66.39s-.34.3-.75.3c-.59,0-1.42-.06-2.28-.06-1.15,0-2.48.12-3.23.12-.45,0-.66-.12-.66-.24s.25-.33.66-.41c1-.24,1.2-.57,1.24-1.05a50.17,50.17,0,0,0,.18-5.66c0-1.84,0-3-.05-3.5s-.32-.94-1.2-1.12c-.47-.11-.72-.21-.72-.41s.36-.28.67-.28c1,0,2,.06,2.92.06h3Z" transform="translate(-100.05 -16.57)"/><path class="cls-1" d="M170.65,380.87a2.46,2.46,0,0,1,.5,1.7c0,.77-.09,3.12-.09,3.33a.79.79,0,0,0,.84.79,5.14,5.14,0,0,0,.79-.23c.06,0,.09,0,.14,0a.74.74,0,0,1,.06.28,2.56,2.56,0,0,1-2.33,1.34,1.67,1.67,0,0,1-1.69-1,.16.16,0,0,0-.21-.08,10.11,10.11,0,0,1-1.79.83,3.87,3.87,0,0,1-1,.16,2,2,0,0,1-1.73-2,1.72,1.72,0,0,1,.4-1,1.75,1.75,0,0,1,.82-.47c.5-.18,2.55-.68,3.07-.81.27-.08.41-.22.41-.3s.06-1.25,0-1.52a1.64,1.64,0,0,0-2.24-1.12c-.09,0-.13.24-.13.91a.26.26,0,0,1-.09.18,12.75,12.75,0,0,1-2,.79.34.34,0,0,1-.3-.28c0-.57.5-1.11,1.9-1.89a6.28,6.28,0,0,1,2.26-.73,2.65,2.65,0,0,1,2.34,1.05m-2.12,5.76a.59.59,0,0,0,.2-.38,14.49,14.49,0,0,0,.09-1.75c0-.08-.09-.2-.16-.2a5.86,5.86,0,0,0-1.83.51.74.74,0,0,0-.41.79,1.3,1.3,0,0,0,1.25,1.27,2.27,2.27,0,0,0,.86-.24" transform="translate(-100.05 -16.57)"/><path class="cls-1" d="M181.32,380.33a.79.79,0,0,1,.38.72c0,.35-.75.92-.88.92a2,2,0,0,1-1-.49,3.11,3.11,0,0,0-1.78-.85,1.48,1.48,0,0,0-1,.44,3.38,3.38,0,0,0-.89,2.4,2.88,2.88,0,0,0,.72,2.07,3.15,3.15,0,0,0,2.46,1.07,4.85,4.85,0,0,0,2.18-.65.19.19,0,0,1,.29.16,1,1,0,0,1-.36.61,5.35,5.35,0,0,1-3.48,1.32,4.46,4.46,0,0,1-3.55-1.58,4,4,0,0,1-.74-2.29,3.93,3.93,0,0,1,2.26-3.43,7.58,7.58,0,0,1,3.19-.85,5.44,5.44,0,0,1,2.21.43" transform="translate(-100.05 -16.57)"/><path class="cls-1" d="M189.56,386.35a1,1,0,0,0,.22-.45l0-4.42a.57.57,0,0,0-.38-.46c-.36-.09-.61-.2-.91-.29-.15,0-.36-.2-.36-.36s.21-.19.39-.19a22.66,22.66,0,0,0,3-.26,3.31,3.31,0,0,1,.55-.08c.15,0,.22.24.22.31,0,.72-.12,5.73-.12,6.36,0,.06.05.36.3.36s.72-.14,1-.14c.09,0,.25.46.27.51s-.15.22-.27.22a19.59,19.59,0,0,0-2.3.42c-.39.1-1.11.25-1.18.25a.3.3,0,0,1-.24-.27c0-.12,0-.48,0-.81,0-.1-.09-.18-.13-.14a12.64,12.64,0,0,1-1.58.87,3.47,3.47,0,0,1-1.45.29,2.72,2.72,0,0,1-2.3-1,2.32,2.32,0,0,1-.25-1c0-1.4,0-3.31-.07-4.36,0-.57-.38-.69-.77-.83-.2-.08-.41-.24-.41-.42s.14-.21.36-.21c.63,0,3-.21,3.12-.21s.18.21.18.29c0,1.5,0,4.46,0,5.37a1.1,1.1,0,0,0,.44.85,2.44,2.44,0,0,0,1.26.37,2.51,2.51,0,0,0,1.39-.48" transform="translate(-100.05 -16.57)"/><path class="cls-1" d="M195.25,374.75a11.42,11.42,0,0,0,2.93-.89c.07,0,.27.12.27.2-.07.7-.18,4.67-.18,7.64,0,1.54,0,4.14.09,4.74.07.45.16.69,1,.91.32.09.47.19.47.33s-.36.24-.61.24c-.54,0-1.83-.08-2.23-.08s-1.63.08-2.11.08-.65-.14-.65-.24.29-.29.55-.33c.74-.18.88-.47.94-1.5s.14-3.1.14-6.22c0-1,0-2.9,0-3.45,0-.24-.14-.36-.61-.67-.3-.22-.41-.32-.41-.41s.16-.27.41-.35" transform="translate(-100.05 -16.57)"/><path class="cls-1" d="M206.65,380c.09,0,.34.08.34.21,0-.05.06.57.06.81s-.43.24-.59.24h-2.14a.22.22,0,0,0-.22.14c0,1,0,2.82,0,4a1,1,0,0,0,.36.93,2,2,0,0,0,1.1.33,2.93,2.93,0,0,0,1-.28.84.84,0,0,1,.38-.14c.07,0,.16.1.16.32s-.23.43-.36.57a3.87,3.87,0,0,1-2.58.93,2.85,2.85,0,0,1-2.1-.85,1.83,1.83,0,0,1-.41-1.41c0-.73.09-3.59.09-4.28,0-.14-.38-.27-.85-.43a.38.38,0,0,1-.27-.34c0-.08,0-.12.11-.18a14.67,14.67,0,0,0,2.38-1.57c.27-.28.43-.44.52-.44s.45.2.45.34v1a.25.25,0,0,0,.2.18c.49,0,2.3,0,2.39,0" transform="translate(-100.05 -16.57)"/><path class="cls-1" d="M214.83,380.87a2.46,2.46,0,0,1,.5,1.7c0,.77-.09,3.12-.09,3.33a.78.78,0,0,0,.83.79,5.14,5.14,0,0,0,.79-.23c.07,0,.09,0,.13,0a.63.63,0,0,1,.08.28,2.58,2.58,0,0,1-2.33,1.34,1.66,1.66,0,0,1-1.69-1c0-.08-.17-.12-.21-.08a10.77,10.77,0,0,1-1.78.83,4,4,0,0,1-1,.16,2,2,0,0,1-1.74-2,1.67,1.67,0,0,1,.41-1,1.75,1.75,0,0,1,.82-.47c.5-.18,2.55-.68,3.07-.81.27-.08.4-.22.4-.3a12.29,12.29,0,0,0,0-1.52,1.43,1.43,0,0,0-1.51-1.25,1.4,1.4,0,0,0-.72.13c-.09,0-.14.24-.14.91a.23.23,0,0,1-.09.18,12.37,12.37,0,0,1-2,.79.34.34,0,0,1-.3-.28c0-.57.5-1.11,1.9-1.89a6.33,6.33,0,0,1,2.26-.73,2.66,2.66,0,0,1,2.35,1.05m-2.13,5.76a.57.57,0,0,0,.21-.38,14.49,14.49,0,0,0,.09-1.75c0-.08-.09-.2-.16-.2a5.86,5.86,0,0,0-1.83.51.74.74,0,0,0-.41.79,1.31,1.31,0,0,0,1.25,1.27,2.27,2.27,0,0,0,.85-.24" transform="translate(-100.05 -16.57)"/><path class="cls-1" d="M224.54,379.88c.09,0,.16-.1.18-.18a25.35,25.35,0,0,0-.05-3.71c0-.16,0-.47-.95-.83-.2-.08-.31-.15-.31-.19s.27-.36.4-.38a22.1,22.1,0,0,0,2.85-.57,1.17,1.17,0,0,1,.43-.1c.09,0,.22.2.2.39-.09.75-.2,3.07-.2,7.51,0,2.45,0,3.43,0,3.8,0,1.21.21,1.39.41,1.39s.86-.08,1.13-.08c.09,0,.13.14.13.16a1.32,1.32,0,0,1-.47.53c-.61.08-2,.26-2.39.39a4.75,4.75,0,0,1-1,.22.34.34,0,0,1-.27-.28c0-.16.05-.45.05-.75,0-.09-.11-.16-.16-.13a5.23,5.23,0,0,1-2.77.92,4.1,4.1,0,0,1-2.72-.95,3.57,3.57,0,0,1-1.24-2.78,4,4,0,0,1,2.44-3.67,7.55,7.55,0,0,1,3-.75,10.9,10.9,0,0,1,1.24,0m-3.39,1.26a3.63,3.63,0,0,0-.83,2.41,3.22,3.22,0,0,0,3,3.3,1.77,1.77,0,0,0,1.09-.3,1.89,1.89,0,0,0,.31-.93c0-.69,0-2.67,0-3.42a2.6,2.6,0,0,0-.41-.79,2.71,2.71,0,0,0-1.83-.87,2.27,2.27,0,0,0-1.34.6" transform="translate(-100.05 -16.57)"/><path class="cls-1" d="M240.91,379.88c.09,0,.16-.1.18-.18A22.84,22.84,0,0,0,241,376c0-.16,0-.47-.94-.83-.21-.08-.32-.15-.32-.19s.27-.36.41-.38A22,22,0,0,0,243,374a1.21,1.21,0,0,1,.43-.1c.09,0,.23.2.21.39-.09.75-.21,3.07-.21,7.51,0,2.45,0,3.43,0,3.8,0,1.21.21,1.39.41,1.39s.86-.08,1.13-.08c.09,0,.13.14.13.16a1.32,1.32,0,0,1-.47.53c-.61.08-2,.26-2.4.39a4.85,4.85,0,0,1-1,.22A.33.33,0,0,1,241,388c0-.16.05-.45.05-.75,0-.09-.12-.16-.16-.13a5.23,5.23,0,0,1-2.78.92,4.09,4.09,0,0,1-2.71-.95,3.54,3.54,0,0,1-1.24-2.78,4,4,0,0,1,2.44-3.67,7.5,7.5,0,0,1,3-.75,11,11,0,0,1,1.25,0m-3.38,1.26a3.64,3.64,0,0,0-.84,2.41,3.23,3.23,0,0,0,3,3.3,1.72,1.72,0,0,0,1.08-.3,1.88,1.88,0,0,0,.32-.93c0-.69,0-2.67,0-3.42a2.6,2.6,0,0,0-.41-.79,2.73,2.73,0,0,0-1.83-.87,2.22,2.22,0,0,0-1.33.6" transform="translate(-100.05 -16.57)"/><path class="cls-1" d="M253.25,380.63a2.26,2.26,0,0,1,.86,1.73.6.6,0,0,1-.5.48h-4.93c-.11,0-.23.06-.24.14a2.09,2.09,0,0,0-.09.7,3.42,3.42,0,0,0,.7,1.84,3.38,3.38,0,0,0,2.51,1,2.53,2.53,0,0,0,2-.69c.09-.12.2-.24.29-.24s.21.14.21.26a1.06,1.06,0,0,1-.18.49,4.15,4.15,0,0,1-3.61,1.72,3.87,3.87,0,0,1-4.18-4,4.27,4.27,0,0,1,2.87-3.9,4.9,4.9,0,0,1,1.85-.38,3.82,3.82,0,0,1,2.41.83m-4.68,1.4a.18.18,0,0,0,.16.2c.59,0,1.29,0,2.42,0a.72.72,0,0,0,.79-.68,1.38,1.38,0,0,0-1.27-1.2,2.36,2.36,0,0,0-2.1,1.68" transform="translate(-100.05 -16.57)"/><path class="cls-1" d="M262.05,377.43c-.06-.95-.06-1.24-1.17-1.47-.54-.13-.68-.26-.68-.4s.32-.28.73-.28c.65,0,1.83.06,2.57.06,1.11,0,1.9-.06,2.69-.06.38,0,.7.08.7.28s-.32.34-.7.4c-1.13.17-1.2.69-1.24,1.2a42.73,42.73,0,0,0-.09,4.58c0,2.39,0,3.23.06,3.83.09,1.16.23,1.4,1.5,1.7.4.08.63.21.63.41s-.44.26-.71.26c-.9,0-2.44-.12-3.39-.1-.65,0-1.33.06-2.17.06-.54,0-.7-.14-.7-.34s.2-.27.68-.37c1-.22,1.2-.64,1.24-1.48s.11-2.79.11-4.46c0-1,0-3.07-.06-3.82" transform="translate(-100.05 -16.57)"/><path class="cls-1" d="M268.52,380.49a18.76,18.76,0,0,0,1.83-.59,3.64,3.64,0,0,1,.76-.3c.09,0,.25.22.25.3s0,.69,0,.87.13.1.15.1a5.4,5.4,0,0,1,2.87-1.07,2.81,2.81,0,0,1,2.07.8,3.28,3.28,0,0,1,.82,2.38c0,.42,0,3.32.07,3.59s.2.54.79.67c.43.1.59.2.59.36s-.27.28-.66.28c-.54,0-1.42,0-2.06,0s-1.47.06-1.78.06-.6-.06-.6-.28.24-.26.54-.33c.52-.18.63-.36.67-1s.05-3.1.05-3.67a1.65,1.65,0,0,0-.5-1.18,2.38,2.38,0,0,0-1.29-.42,2.43,2.43,0,0,0-1.48.4.9.9,0,0,0-.23.43c0,.34,0,4.58.05,4.82s.09.41.78.61c.21.08.39.21.39.34s-.26.27-.64.27l-1.74,0c-.84,0-1.71,0-2.1,0s-.61-.12-.61-.29.23-.26.48-.31c.74-.22.86-.38.92-1.11S269,384,269,382c0-.22-.16-.42-.66-.82-.18-.15-.25-.21-.25-.27a.83.83,0,0,1,.42-.45" transform="translate(-100.05 -16.57)"/><path class="cls-1" d="M286.09,380a4,4,0,0,0,.61.12c.52,0,2.17.1,2.55.16a.26.26,0,0,1,.23.22,1.17,1.17,0,0,1-.5.75c-.14,0-.77,0-1.31,0-.11,0-.16.12-.14.13a2.9,2.9,0,0,1,.14.85,2.78,2.78,0,0,1-1.29,2.47,5.34,5.34,0,0,1-2.73.75l-.91,0c-.16,0-.25,0-.32,0s-.43.35-.43.5c0,.38.56.72.83.74,1,0,3.59.1,4.25.19a2.74,2.74,0,0,1,1.15.47,2.35,2.35,0,0,1,1,1.8c0,1.6-1.43,2.67-2.33,3.16a7.08,7.08,0,0,1-3.43.87,5.47,5.47,0,0,1-2.85-.67,2.28,2.28,0,0,1-1.2-1.78,1.25,1.25,0,0,1,.7-1.16c.45-.26,1.16-.63,1.45-.81.07,0,.09-.1,0-.14a3.6,3.6,0,0,1-.92-.37,1.75,1.75,0,0,1-.89-1.56.39.39,0,0,1,.16-.23,13.72,13.72,0,0,0,1.83-1.13s0-.14-.05-.19a2.83,2.83,0,0,1-1.82-2.49,2.6,2.6,0,0,1,1.35-2.21,5,5,0,0,1,2.73-.73,8.33,8.33,0,0,1,2.16.31m.13,11.89a1.73,1.73,0,0,0,1-1.56,1.4,1.4,0,0,0-.38-1,2.11,2.11,0,0,0-1.27-.52,17.41,17.41,0,0,0-2.35-.09,2.13,2.13,0,0,0-1.08.23,1.63,1.63,0,0,0-.68,1.26,1.72,1.72,0,0,0,.79,1.4,3.87,3.87,0,0,0,2.19.58,4.28,4.28,0,0,0,1.76-.34m-3.38-11.23a2.48,2.48,0,0,0-.53,1.68c0,1.26.72,2.54,1.81,2.54a1.48,1.48,0,0,0,.7-.3,2.87,2.87,0,0,0,.61-2,3.38,3.38,0,0,0-.49-1.6,1.63,1.63,0,0,0-1.23-.75,1.19,1.19,0,0,0-.87.42" transform="translate(-100.05 -16.57)"/><path class="cls-1" d="M297.26,380.63a2.23,2.23,0,0,1,.86,1.73.59.59,0,0,1-.5.48H292.7a.27.27,0,0,0-.25.14,2.38,2.38,0,0,0-.09.7,2.9,2.9,0,0,0,3.21,2.83,2.55,2.55,0,0,0,2-.69c.09-.12.2-.24.29-.24s.2.14.2.26a1,1,0,0,1-.18.49,4.15,4.15,0,0,1-3.61,1.72,3.87,3.87,0,0,1-4.17-4,4.26,4.26,0,0,1,2.86-3.9,5,5,0,0,1,1.86-.38,3.79,3.79,0,0,1,2.4.83m-4.67,1.4a.18.18,0,0,0,.16.2c.58,0,1.29,0,2.41,0a.73.73,0,0,0,.8-.68,1.38,1.38,0,0,0-1.27-1.2,2.36,2.36,0,0,0-2.1,1.68" transform="translate(-100.05 -16.57)"/><path class="cls-1" d="M300.07,380.49a18.76,18.76,0,0,0,1.83-.59,3.64,3.64,0,0,1,.76-.3c.09,0,.25.22.25.3s0,.69,0,.87.13.1.15.1a5.43,5.43,0,0,1,2.87-1.07,2.86,2.86,0,0,1,2.08.8,3.32,3.32,0,0,1,.81,2.38c0,.42,0,3.32.07,3.59s.2.54.79.67c.43.1.59.2.59.36s-.27.28-.66.28-1.42,0-2,0-1.47.06-1.79.06-.6-.06-.6-.28.24-.26.54-.33c.52-.18.63-.36.68-1s0-3.1,0-3.67a1.65,1.65,0,0,0-.5-1.18,2.37,2.37,0,0,0-1.28-.42,2.5,2.5,0,0,0-1.5.4,1,1,0,0,0-.23.43c0,.34,0,4.58.05,4.82s.09.41.79.61c.2.08.38.21.38.34s-.25.27-.63.27l-1.74,0c-.84,0-1.72,0-2.1,0s-.62-.12-.62-.29.23-.26.48-.31c.75-.22.86-.38.92-1.11s.12-2.17.12-4.16c0-.22-.17-.42-.66-.82-.18-.15-.25-.21-.25-.27a.89.89,0,0,1,.43-.45" transform="translate(-100.05 -16.57)"/><path class="cls-1" d="M311.83,387.91c-.36,0-.63-.12-.63-.25s.16-.24.59-.35.79-.38.83-.58a20.62,20.62,0,0,0,.14-3.07c0-.6,0-1.54,0-1.78s-.3-.35-.77-.71c-.14-.11-.27-.21-.27-.31s.25-.32.61-.37c.93-.16,2.35-.64,2.71-.71a.28.28,0,0,1,.23.21c0,.67-.11,3.32-.11,4.46,0,.61,0,1.3.05,2s.29.67.88.83c.33.1.5.21.5.38s-.32.25-.64.25c-.16,0-1.37,0-1.87,0-.74,0-1.82.06-2.21.06m3.44-11a1.43,1.43,0,0,1-1.36,1.2,1.66,1.66,0,0,1-.9-.34,1.1,1.1,0,0,1-.43-.86A1.26,1.26,0,0,1,313,376a1.85,1.85,0,0,1,1.12-.36,1.28,1.28,0,0,1,1.2,1.23" transform="translate(-100.05 -16.57)"/><path class="cls-1" d="M324.84,380.63a2.23,2.23,0,0,1,.86,1.73.6.6,0,0,1-.5.48h-4.92a.25.25,0,0,0-.25.14,2.38,2.38,0,0,0-.09.7,2.9,2.9,0,0,0,3.21,2.83,2.55,2.55,0,0,0,2-.69c.09-.12.2-.24.29-.24s.2.14.2.26a1.06,1.06,0,0,1-.18.49,4.15,4.15,0,0,1-3.61,1.72,3.87,3.87,0,0,1-4.18-4,4.27,4.27,0,0,1,2.87-3.9,4.9,4.9,0,0,1,1.85-.38,3.8,3.8,0,0,1,2.41.83m-4.67,1.4a.18.18,0,0,0,.16.2c.58,0,1.29,0,2.41,0a.72.72,0,0,0,.79-.68,1.37,1.37,0,0,0-1.27-1.2,2.36,2.36,0,0,0-2.09,1.68" transform="translate(-100.05 -16.57)"/><path class="cls-1" d="M327.42,380.59a15.94,15.94,0,0,0,2.28-.75,1.85,1.85,0,0,1,.54-.24.35.35,0,0,1,.27.24c0,.36-.06.73-.06,1.11a.12.12,0,0,0,.18.08A4.25,4.25,0,0,1,333,379.8c1,0,1.31.53,1.31.81a.84.84,0,0,1-.14.32,5.43,5.43,0,0,1-1.11,1.16,1,1,0,0,1-.4-.07,3.17,3.17,0,0,0-1.42-.56,1,1,0,0,0-.57.12.44.44,0,0,0-.2.4c0,.39.11,3.83.13,4.12,0,.61.2,1,.52,1s.7.18,1,.26.45.23.45.31-.27.24-.63.24c-.68,0-1.86-.1-3.19-.1-.47,0-.95.05-1.49.05-.25,0-.54-.05-.54-.27s.33-.24.52-.3c.82-.26.86-.48.88-1.66V382.4c0-.35,0-.65-.18-.75a3.64,3.64,0,0,1-.81-.69.42.42,0,0,1,.3-.37" transform="translate(-100.05 -16.57)"/><path class="cls-1" d="M335.91,380.47c.93-.15,2.35-.63,2.71-.7a.29.29,0,0,1,.23.21c-.05.67-.12,3.32-.12,4.46,0,.61,0,1.3,0,2s.3.67.89.82c.34.1.49.22.49.38s-.31.26-.63.26c-.16,0-1.38-.06-1.87-.06-.72,0-1.81.08-2.19.08s-.64-.12-.64-.26.16-.23.59-.35.79-.38.84-.57a21.43,21.43,0,0,0,.13-3.08c0-.42,0-1.54,0-1.78s-.27-.35-.77-.71c-.14-.11-.27-.21-.27-.33s.25-.31.61-.37m3-5.54c.3,0,1.06.08,1.11.35a.84.84,0,0,1-.16.54,23.83,23.83,0,0,1-2.35,2.94,1.11,1.11,0,0,1-.65.31c-.2,0-.23-.25-.09-.61.27-.73,1.15-2.56,1.49-3.18a.85.85,0,0,1,.65-.35" transform="translate(-100.05 -16.57)"/><path class="cls-1" d="M347.88,380.87a2.46,2.46,0,0,1,.5,1.7c0,.77-.09,3.12-.09,3.33a.78.78,0,0,0,.83.79,4.57,4.57,0,0,0,.79-.23c.07,0,.09,0,.14,0a.74.74,0,0,1,.06.28,2.56,2.56,0,0,1-2.33,1.34,1.67,1.67,0,0,1-1.69-1,.15.15,0,0,0-.2-.08,10.77,10.77,0,0,1-1.78.83,3.94,3.94,0,0,1-1,.16,2,2,0,0,1-1.74-2,1.67,1.67,0,0,1,.41-1,1.72,1.72,0,0,1,.81-.47c.5-.18,2.55-.68,3.07-.81.27-.08.41-.22.41-.3a14.62,14.62,0,0,0,0-1.52,1.45,1.45,0,0,0-1.51-1.25,1.4,1.4,0,0,0-.72.13c-.09,0-.14.24-.14.91a.23.23,0,0,1-.09.18,12,12,0,0,1-2,.79.34.34,0,0,1-.3-.28c0-.57.5-1.11,1.9-1.89a6.3,6.3,0,0,1,2.25-.73,2.66,2.66,0,0,1,2.35,1.05m-2.12,5.76a.59.59,0,0,0,.2-.38,14.49,14.49,0,0,0,.09-1.75c0-.08-.09-.2-.16-.2a5.8,5.8,0,0,0-1.82.51.74.74,0,0,0-.41.79,1.3,1.3,0,0,0,1.24,1.27,2.37,2.37,0,0,0,.86-.24" transform="translate(-100.05 -16.57)"/></svg>